EncodeSans-Black.ufo
<glyph name="exclam" format="2">
  <advance width="660.0"/>
  <unicode hex="0021"/>
  <outline>
    <contour>
      <point x="204.0" y="532.0" type="line"/>
      <point x="461.0" y="532.0" type="line"/>
      <point x="556.0" y="996.0" type="line"/>
      <point x="556.0" y="1480.0" type="line"/>
      <point x="104.0" y="1480.0" type="line"/>
      <point x="104.0" y="996.0" type="line"/>
    </contour>
    <contour>
      <point x="330.0" y="-20.0" type="curve" smooth="yes"/>
      <point x="493.0" y="-20.0"/>
      <point x="598.0" y="75.0"/>
      <point x="598.0" y="216.0" type="curve" smooth="yes"/>
      <point x="598.0" y="357.0"/>
      <point x="497.0" y="452.0"/>
      <point x="330.0" y="452.0" type="curve" smooth="yes"/>
      <point x="163.0" y="452.0"/>
      <point x="62.0" y="361.0"/>
      <point x="62.0" y="216.0" type="curve" smooth="yes"/>
      <point x="62.0" y="71.0"/>
      <point x="167.0" y="-20.0"/>
    </contour>
  </outline>
</glyph>
<glyph name="quotedbl" format="2">
  <advance width="1014.0"/>
  <unicode hex="0022"/>
  <outline>
    <contour>
      <point x="127.0" y="798.0" type="line"/>
      <point x="387.0" y="798.0" type="line"/>
      <point x="464.0" y="1616.0" type="line"/>
      <point x="50.0" y="1616.0" type="line"/>
    </contour>
    <contour>
      <point x="627.0" y="798.0" type="line"/>
      <point x="887.0" y="798.0" type="line"/>
      <point x="964.0" y="1616.0" type="line"/>
      <point x="550.0" y="1616.0" type="line"/>
    </contour>
  </outline>
</glyph>
<glyph name="dollar" format="2">
  <advance width="1214.0"/>
  <unicode hex="0024"/>
  <outline>
    <contour>
      <point x="520.0" y="-20.0" type="curve" smooth="yes"/>
      <point x="932.0" y="-20.0"/>
      <point x="1172.0" y="166.0"/>
      <point x="1172.0" y="461.0" type="curve" smooth="yes"/>
      <point x="1172.0" y="697.0"/>
      <point x="1035.0" y="836.0"/>
      <point x="739.0" y="908.0" type="curve" smooth="yes"/>
      <point x="607.0" y="942.0" type="line" smooth="yes"/>
      <point x="496.0" y="972.0"/>
      <point x="472.0" y="997.0"/>
      <point x="472.0" y="1045.0" type="curve" smooth="yes"/>
      <point x="472.0" y="1105.0"/>
      <point x="527.0" y="1155.0"/>
      <point x="763.0" y="1155.0" type="curve" smooth="yes"/>
      <point x="867.0" y="1155.0"/>
      <point x="998.0" y="1139.0"/>
      <point x="1088.0" y="1115.0" type="curve"/>
      <point x="1088.0" y="1462.0" type="line"/>
      <point x="993.0" y="1484.0"/>
      <point x="866.0" y="1500.0"/>
      <point x="732.0" y="1500.0" type="curve" smooth="yes"/>
      <point x="264.0" y="1500.0"/>
      <point x="42.0" y="1323.0"/>
      <point x="42.0" y="1022.0" type="curve" smooth="yes"/>
      <point x="42.0" y="786.0"/>
      <point x="181.0" y="646.0"/>
      <point x="447.0" y="581.0" type="curve" smooth="yes"/>
      <point x="579.0" y="547.0" type="line" smooth="yes"/>
      <point x="713.0" y="512.0"/>
      <point x="742.0" y="484.0"/>
      <point x="742.0" y="431.0" type="curve" smooth="yes"/>
      <point x="742.0" y="368.0"/>
      <point x="694.0" y="325.0"/>
      <point x="512.0" y="325.0" type="curve" smooth="yes"/>
      <point x="391.0" y="325.0"/>
      <point x="211.0" y="350.0"/>
      <point x="86.0" y="388.0" type="curve"/>
      <point x="86.0" y="41.0" type="line"/>
      <point x="211.0" y="3.0"/>
      <point x="370.0" y="-20.0"/>
    </contour>
    <contour>
      <point x="407.0" y="-240.0" type="line"/>
      <point x="807.0" y="-240.0" type="line"/>
      <point x="807.0" y="80.0" type="line"/>
      <point x="407.0" y="80.0" type="line"/>
    </contour>
    <contour>
      <point x="407.0" y="1420.0" type="line"/>
      <point x="807.0" y="1420.0" type="line"/>
      <point x="807.0" y="1720.0" type="line"/>
      <point x="407.0" y="1720.0" type="line"/>
    </contour>
  </outline>
</glyph>
<glyph name="percent" format="2">
  <advance width="2260.0"/>
  <unicode hex="0025"/>
  <note>
450
</note>
  <outline>
    <contour>
      <point x="623.0" y="0.0" type="line"/>
      <point x="964.0" y="0.0" type="line"/>
      <point x="1637.0" y="1480.0" type="line"/>
      <point x="1296.0" y="1480.0" type="line"/>
    </contour>
    <contour>
      <point x="512.0" y="566.0" type="curve" smooth="yes"/>
      <point x="775.0" y="566.0"/>
      <point x="954.0" y="728.0"/>
      <point x="954.0" y="1033.0" type="curve" smooth="yes"/>
      <point x="954.0" y="1338.0"/>
      <point x="775.0" y="1500.0"/>
      <point x="512.0" y="1500.0" type="curve" smooth="yes"/>
      <point x="249.0" y="1500.0"/>
      <point x="70.0" y="1338.0"/>
      <point x="70.0" y="1033.0" type="curve" smooth="yes"/>
      <point x="70.0" y="728.0"/>
      <point x="249.0" y="566.0"/>
    </contour>
    <contour>
      <point x="512.0" y="824.0" type="curve" smooth="yes"/>
      <point x="447.0" y="824.0"/>
      <point x="399.0" y="875.0"/>
      <point x="399.0" y="1033.0" type="curve" smooth="yes"/>
      <point x="399.0" y="1191.0"/>
      <point x="447.0" y="1242.0"/>
      <point x="512.0" y="1242.0" type="curve" smooth="yes"/>
      <point x="577.0" y="1242.0"/>
      <point x="625.0" y="1191.0"/>
      <point x="625.0" y="1033.0" type="curve" smooth="yes"/>
      <point x="625.0" y="875.0"/>
      <point x="577.0" y="824.0"/>
    </contour>
    <contour>
      <point x="1748.0" y="-18.0" type="curve" smooth="yes"/>
      <point x="2011.0" y="-18.0"/>
      <point x="2190.0" y="144.0"/>
      <point x="2190.0" y="449.0" type="curve" smooth="yes"/>
      <point x="2190.0" y="754.0"/>
      <point x="2011.0" y="916.0"/>
      <point x="1748.0" y="916.0" type="curve" smooth="yes"/>
      <point x="1485.0" y="916.0"/>
      <point x="1306.0" y="754.0"/>
      <point x="1306.0" y="449.0" type="curve" smooth="yes"/>
      <point x="1306.0" y="144.0"/>
      <point x="1485.0" y="-18.0"/>
    </contour>
    <contour>
      <point x="1748.0" y="240.0" type="curve" smooth="yes"/>
      <point x="1683.0" y="240.0"/>
      <point x="1635.0" y="291.0"/>
      <point x="1635.0" y="449.0" type="curve" smooth="yes"/>
      <point x="1635.0" y="607.0"/>
      <point x="1683.0" y="658.0"/>
      <point x="1748.0" y="658.0" type="curve" smooth="yes"/>
      <point x="1813.0" y="658.0"/>
      <point x="1861.0" y="607.0"/>
      <point x="1861.0" y="449.0" type="curve" smooth="yes"/>
      <point x="1861.0" y="291.0"/>
      <point x="1813.0" y="240.0"/>
    </contour>
  </outline>
</glyph>
<glyph name="ampersand" format="2">
  <advance width="1674.0"/>
  <unicode hex="0026"/>
  <outline>
    <contour>
      <point x="1481.0" y="-20.0" type="line"/>
      <point x="1674.0" y="295.0" type="line"/>
      <point x="746.0" y="873.0" type="line" smooth="yes"/>
      <point x="671.0" y="919.0"/>
      <point x="639.0" y="959.0"/>
      <point x="639.0" y="1014.0" type="curve" smooth="yes"/>
      <point x="639.0" y="1098.0"/>
      <point x="701.0" y="1155.0"/>
      <point x="926.0" y="1155.0" type="curve" smooth="yes"/>
      <point x="1005.0" y="1155.0"/>
      <point x="1099.0" y="1144.0"/>
      <point x="1167.0" y="1131.0" type="curve"/>
      <point x="1167.0" y="1478.0" type="line"/>
      <point x="1085.0" y="1491.0"/>
      <point x="997.0" y="1500.0"/>
      <point x="891.0" y="1500.0" type="curve" smooth="yes"/>
      <point x="428.0" y="1500.0"/>
      <point x="209.0" y="1318.0"/>
      <point x="209.0" y="1024.0" type="curve" smooth="yes"/>
      <point x="209.0" y="873.0"/>
      <point x="275.0" y="728.0"/>
      <point x="553.0" y="558.0" type="curve" smooth="yes"/>
    </contour>
    <contour>
      <point x="705.0" y="-18.0" type="curve" smooth="yes"/>
      <point x="1155.0" y="-18.0"/>
      <point x="1430.0" y="212.0"/>
      <point x="1430.0" y="666.0" type="curve" smooth="yes"/>
      <point x="1430.0" y="738.0"/>
      <point x="1419.0" y="826.0"/>
      <point x="1400.0" y="906.0" type="curve"/>
      <point x="1064.0" y="906.0" type="line"/>
      <point x="1083.0" y="826.0"/>
      <point x="1095.0" y="736.0"/>
      <point x="1095.0" y="662.0" type="curve" smooth="yes"/>
      <point x="1095.0" y="370.0"/>
      <point x="945.0" y="280.0"/>
      <point x="756.0" y="280.0" type="curve" smooth="yes"/>
      <point x="603.0" y="280.0"/>
      <point x="511.0" y="342.0"/>
      <point x="511.0" y="454.0" type="curve" smooth="yes"/>
      <point x="511.0" y="532.0"/>
      <point x="545.0" y="586.0"/>
      <point x="594.0" y="632.0" type="curve"/>
      <point x="373.0" y="786.0" type="line"/>
      <point x="216.0" y="740.0"/>
      <point x="83.0" y="602.0"/>
      <point x="83.0" y="406.0" type="curve" smooth="yes"/>
      <point x="83.0" y="148.0"/>
      <point x="293.0" y="-18.0"/>
    </contour>
  </outline>
</glyph>
<glyph name="quotesingle" format="2">
  <advance width="514.0"/>
  <unicode hex="0027"/>
  <outline>
    <contour>
      <point x="127.0" y="798.0" type="line"/>
      <point x="387.0" y="798.0" type="line"/>
      <point x="464.0" y="1616.0" type="line"/>
      <point x="50.0" y="1616.0" type="line"/>
    </contour>
  </outline>
</glyph>
<glyph name="parenleft" format="2">
  <advance width="754.0"/>
  <unicode hex="0028"/>
  <outline>
    <contour>
      <point x="432.0" y="-440.0" type="curve"/>
      <point x="873.0" y="-440.0" type="line"/>
      <point x="626.0" y="-139.0"/>
      <point x="524.0" y="185.0"/>
      <point x="524.0" y="588.0" type="curve" smooth="yes"/>
      <point x="524.0" y="991.0"/>
      <point x="626.0" y="1315.0"/>
      <point x="873.0" y="1616.0" type="curve"/>
      <point x="432.0" y="1616.0" type="line"/>
      <point x="187.0" y="1349.0"/>
      <point x="89.0" y="995.0"/>
      <point x="89.0" y="588.0" type="curve" smooth="yes"/>
      <point x="89.0" y="181.0"/>
      <point x="187.0" y="-173.0"/>
    </contour>
  </outline>
</glyph>
<glyph name="parenright" format="2">
  <advance width="754.0"/>
  <unicode hex="0029"/>
  <outline>
    <contour>
      <point x="-119.0" y="-440.0" type="curve"/>
      <point x="322.0" y="-440.0" type="line"/>
      <point x="567.0" y="-173.0"/>
      <point x="665.0" y="181.0"/>
      <point x="665.0" y="588.0" type="curve" smooth="yes"/>
      <point x="665.0" y="995.0"/>
      <point x="567.0" y="1349.0"/>
      <point x="322.0" y="1616.0" type="curve"/>
      <point x="-119.0" y="1616.0" type="line"/>
      <point x="128.0" y="1315.0"/>
      <point x="230.0" y="991.0"/>
      <point x="230.0" y="588.0" type="curve" smooth="yes"/>
      <point x="230.0" y="185.0"/>
      <point x="128.0" y="-139.0"/>
    </contour>
  </outline>
</glyph>
<glyph name="period" format="2">
  <advance width="620.0"/>
  <unicode hex="002E"/>
  <outline>
    <contour>
      <point x="310.0" y="-20.0" type="curve" smooth="yes"/>
      <point x="473.0" y="-20.0"/>
      <point x="578.0" y="79.0"/>
      <point x="578.0" y="229.0" type="curve" smooth="yes"/>
      <point x="578.0" y="379.0"/>
      <point x="477.0" y="478.0"/>
      <point x="310.0" y="478.0" type="curve" smooth="yes"/>
      <point x="143.0" y="478.0"/>
      <point x="42.0" y="383.0"/>
      <point x="42.0" y="229.0" type="curve" smooth="yes"/>
      <point x="42.0" y="75.0"/>
      <point x="147.0" y="-20.0"/>
    </contour>
  </outline>
</glyph>
<glyph name="zero" format="2">
  <advance width="1397.0"/>
  <unicode hex="0030"/>
  <note>
600
</note>
  <outline>
    <contour>
      <point x="698.0" y="-20.0" type="curve" smooth="yes"/>
      <point x="1086.0" y="-20.0"/>
      <point x="1318.0" y="224.0"/>
      <point x="1318.0" y="740.0" type="curve" smooth="yes"/>
      <point x="1318.0" y="1256.0"/>
      <point x="1086.0" y="1500.0"/>
      <point x="698.0" y="1500.0" type="curve" smooth="yes"/>
      <point x="310.0" y="1500.0"/>
      <point x="79.0" y="1256.0"/>
      <point x="79.0" y="740.0" type="curve" smooth="yes"/>
      <point x="79.0" y="224.0"/>
      <point x="310.0" y="-20.0"/>
    </contour>
    <contour>
      <point x="699.0" y="331.0" type="curve" smooth="yes"/>
      <point x="569.0" y="331.0"/>
      <point x="503.0" y="428.0"/>
      <point x="503.0" y="740.0" type="curve" smooth="yes"/>
      <point x="503.0" y="1052.0"/>
      <point x="571.0" y="1149.0"/>
      <point x="699.0" y="1149.0" type="curve" smooth="yes"/>
      <point x="826.0" y="1149.0"/>
      <point x="894.0" y="1052.0"/>
      <point x="894.0" y="740.0" type="curve" smooth="yes"/>
      <point x="894.0" y="428.0"/>
      <point x="826.0" y="331.0"/>
    </contour>
  </outline>
</glyph>
<glyph name="one" format="2">
  <advance width="898.0"/>
  <unicode hex="0031"/>
  <outline>
    <contour>
      <point x="345.0" y="0.0" type="line"/>
      <point x="779.0" y="0.0" type="line"/>
      <point x="779.0" y="1486.0" type="line"/>
      <point x="499.0" y="1486.0" type="line"/>
      <point x="29.0" y="1168.0" type="line"/>
      <point x="29.0" y="768.0" type="line"/>
      <point x="499.0" y="1086.0" type="line"/>
      <point x="345.0" y="1244.0" type="line"/>
    </contour>
  </outline>
</glyph>
<glyph name="five" format="2">
  <advance width="1151.0"/>
  <unicode hex="0035"/>
  <outline>
    <contour>
      <point x="468.0" y="-20.0" type="curve" smooth="yes"/>
      <point x="892.0" y="-20.0"/>
      <point x="1108.0" y="146.0"/>
      <point x="1109.0" y="457.0" type="curve" smooth="yes"/>
      <point x="1110.0" y="748.0"/>
      <point x="927.0" y="901.0"/>
      <point x="458.0" y="927.0" type="curve" smooth="yes"/>
      <point x="269.0" y="937.0" type="line"/>
      <point x="518.0" y="794.0" type="line"/>
      <point x="554.0" y="1340.0" type="line"/>
      <point x="368.0" y="1151.0" type="line"/>
      <point x="1050.0" y="1151.0" type="line"/>
      <point x="1050.0" y="1480.0" type="line"/>
      <point x="157.0" y="1480.0" type="line"/>
      <point x="105.0" y="625.0" type="line"/>
      <point x="294.0" y="615.0" type="line" smooth="yes"/>
      <point x="636.0" y="595.0"/>
      <point x="702.0" y="545.0"/>
      <point x="702.0" y="447.0" type="curve" smooth="yes"/>
      <point x="702.0" y="353.0"/>
      <point x="632.0" y="301.0"/>
      <point x="449.0" y="301.0" type="curve" smooth="yes"/>
      <point x="325.0" y="301.0"/>
      <point x="177.0" y="322.0"/>
      <point x="64.0" y="351.0" type="curve"/>
      <point x="64.0" y="34.0" type="line"/>
      <point x="185.0" y="1.0"/>
      <point x="321.0" y="-20.0"/>
    </contour>
  </outline>
</glyph>
<glyph name="nine" format="2">
  <advance width="1317.0"/>
  <unicode hex="0039"/>
  <outline>
    <contour>
      <point x="609.0" y="1500.0" type="curve" smooth="yes"/>
      <point x="259.0" y="1500.0"/>
      <point x="49.0" y="1312.0"/>
      <point x="49.0" y="1019.0" type="curve" smooth="yes"/>
      <point x="49.0" y="700.0"/>
      <point x="261.0" y="564.0"/>
      <point x="533.0" y="564.0" type="curve" smooth="yes"/>
      <point x="666.0" y="564.0"/>
      <point x="802.0" y="607.0"/>
      <point x="874.0" y="681.0" type="curve"/>
      <point x="874.0" y="968.0" type="line"/>
      <point x="804.0" y="899.0"/>
      <point x="714.0" y="868.0"/>
      <point x="622.0" y="868.0" type="curve" smooth="yes"/>
      <point x="510.0" y="868.0"/>
      <point x="438.0" y="918.0"/>
      <point x="438.0" y="1031.0" type="curve" smooth="yes"/>
      <point x="438.0" y="1141.0"/>
      <point x="506.0" y="1194.0"/>
      <point x="607.0" y="1194.0" type="curve" smooth="yes"/>
      <point x="732.0" y="1194.0"/>
      <point x="809.0" y="1125.0"/>
      <point x="809.0" y="858.0" type="curve" smooth="yes"/>
      <point x="809.0" y="672.0" type="line" smooth="yes"/>
      <point x="809.0" y="430.0"/>
      <point x="691.0" y="305.0"/>
      <point x="431.0" y="305.0" type="curve" smooth="yes"/>
      <point x="324.0" y="305.0"/>
      <point x="224.0" y="320.0"/>
      <point x="130.0" y="351.0" type="curve"/>
      <point x="130.0" y="26.0" type="line"/>
      <point x="223.0" y="-8.0"/>
      <point x="332.0" y="-20.0"/>
      <point x="454.0" y="-20.0" type="curve" smooth="yes"/>
      <point x="947.0" y="-20.0"/>
      <point x="1229.0" y="252.0"/>
      <point x="1229.0" y="788.0" type="curve" smooth="yes"/>
      <point x="1229.0" y="1282.0"/>
      <point x="978.0" y="1500.0"/>
    </contour>
  </outline>
</glyph>
<glyph name="colon" format="2">
  <advance width="620.0"/>
  <unicode hex="003A"/>
  <outline>
    <contour>
      <point x="310.0" y="-20.0" type="curve" smooth="yes"/>
      <point x="473.0" y="-20.0"/>
      <point x="578.0" y="79.0"/>
      <point x="578.0" y="229.0" type="curve" smooth="yes"/>
      <point x="578.0" y="379.0"/>
      <point x="477.0" y="478.0"/>
      <point x="310.0" y="478.0" type="curve" smooth="yes"/>
      <point x="143.0" y="478.0"/>
      <point x="42.0" y="383.0"/>
      <point x="42.0" y="229.0" type="curve" smooth="yes"/>
      <point x="42.0" y="75.0"/>
      <point x="147.0" y="-20.0"/>
    </contour>
    <contour>
      <point x="310.0" y="622.0" type="curve" smooth="yes"/>
      <point x="473.0" y="622.0"/>
      <point x="578.0" y="721.0"/>
      <point x="578.0" y="871.0" type="curve" smooth="yes"/>
      <point x="578.0" y="1021.0"/>
      <point x="477.0" y="1120.0"/>
      <point x="310.0" y="1120.0" type="curve" smooth="yes"/>
      <point x="143.0" y="1120.0"/>
      <point x="42.0" y="1025.0"/>
      <point x="42.0" y="871.0" type="curve" smooth="yes"/>
      <point x="42.0" y="717.0"/>
      <point x="147.0" y="622.0"/>
    </contour>
  </outline>
</glyph>
<glyph name="semicolon" format="2">
  <advance width="620.0"/>
  <unicode hex="003B"/>
  <outline>
    <contour>
      <point x="142.0" y="-360.0" type="curve"/>
      <point x="382.0" y="-360.0" type="line"/>
      <point x="500.0" y="-218.0"/>
      <point x="576.0" y="-24.0"/>
      <point x="576.0" y="155.0" type="curve" smooth="yes"/>
      <point x="576.0" y="369.0"/>
      <point x="482.0" y="478.0"/>
      <point x="304.0" y="478.0" type="curve" smooth="yes"/>
      <point x="143.0" y="478.0"/>
      <point x="42.0" y="386.0"/>
      <point x="42.0" y="229.0" type="curve" smooth="yes"/>
      <point x="42.0" y="75.0"/>
      <point x="149.0" y="-20.0"/>
      <point x="310.0" y="-20.0" type="curve" smooth="yes"/>
      <point x="362.0" y="-20.0" type="line"/>
      <point x="265.0" y="52.0" type="line"/>
      <point x="265.0" y="-82.0"/>
      <point x="220.0" y="-206.0"/>
    </contour>
    <contour>
      <point x="310.0" y="622.0" type="curve" smooth="yes"/>
      <point x="473.0" y="622.0"/>
      <point x="578.0" y="721.0"/>
      <point x="578.0" y="871.0" type="curve" smooth="yes"/>
      <point x="578.0" y="1021.0"/>
      <point x="477.0" y="1120.0"/>
      <point x="310.0" y="1120.0" type="curve" smooth="yes"/>
      <point x="143.0" y="1120.0"/>
      <point x="42.0" y="1025.0"/>
      <point x="42.0" y="871.0" type="curve" smooth="yes"/>
      <point x="42.0" y="717.0"/>
      <point x="147.0" y="622.0"/>
    </contour>
  </outline>
</glyph>
<glyph name="equal" format="2">
  <advance width="1116.0"/>
  <unicode hex="003D"/>
  <outline>
    <contour>
      <point x="96.0" y="840.0" type="line"/>
      <point x="1020.0" y="840.0" type="line"/>
      <point x="1020.0" y="1160.0" type="line"/>
      <point x="96.0" y="1160.0" type="line"/>
    </contour>
    <contour>
      <point x="96.0" y="360.0" type="line"/>
      <point x="1020.0" y="360.0" type="line"/>
      <point x="1020.0" y="680.0" type="line"/>
      <point x="96.0" y="680.0" type="line"/>
    </contour>
  </outline>
</glyph>
<glyph name="greater" format="2">
  <advance width="1116.0"/>
  <unicode hex="003E"/>
  <outline>
    <contour>
      <point x="96.0" y="226.0" type="line"/>
      <point x="1020.0" y="556.0" type="line"/>
      <point x="1020.0" y="964.0" type="line"/>
      <point x="96.0" y="1294.0" type="line"/>
      <point x="96.0" y="974.0" type="line"/>
      <point x="793.0" y="742.0" type="line"/>
      <point x="793.0" y="783.0" type="line"/>
      <point x="96.0" y="546.0" type="line"/>
    </contour>
  </outline>
</glyph>
<glyph name="at" format="2">
  <advance width="2208.0"/>
  <unicode hex="0040"/>
  <outline>
    <contour>
      <point x="1150.0" y="-460.0" type="curve" smooth="yes"/>
      <point x="1318.0" y="-460.0"/>
      <point x="1481.0" y="-442.0"/>
      <point x="1642.0" y="-406.0" type="curve"/>
      <point x="1642.0" y="-140.0" type="line"/>
      <point x="1479.0" y="-176.0"/>
      <point x="1318.0" y="-194.0"/>
      <point x="1150.0" y="-194.0" type="curve" smooth="yes"/>
      <point x="606.0" y="-194.0"/>
      <point x="381.0" y="-2.0"/>
      <point x="381.0" y="520.0" type="curve" smooth="yes"/>
      <point x="381.0" y="1042.0"/>
      <point x="606.0" y="1232.0"/>
      <point x="1113.0" y="1232.0" type="curve" smooth="yes"/>
      <point x="1621.0" y="1232.0"/>
      <point x="1847.0" y="1050.0"/>
      <point x="1851.0" y="580.0" type="curve" smooth="yes"/>
      <point x="1854.0" y="300.0"/>
      <point x="1800.0" y="246.0"/>
      <point x="1720.0" y="246.0" type="curve" smooth="yes"/>
      <point x="1670.0" y="246.0"/>
      <point x="1638.0" y="274.0"/>
      <point x="1638.0" y="344.0" type="curve" smooth="yes"/>
      <point x="1638.0" y="605.0" type="line" smooth="yes"/>
      <point x="1638.0" y="970.0"/>
      <point x="1474.0" y="1098.0"/>
      <point x="1086.0" y="1098.0" type="curve" smooth="yes"/>
      <point x="964.0" y="1098.0"/>
      <point x="825.0" y="1078.0"/>
      <point x="711.0" y="1042.0" type="curve"/>
      <point x="709.0" y="729.0" type="line"/>
      <point x="801.0" y="762.0"/>
      <point x="916.0" y="781.0"/>
      <point x="1006.0" y="781.0" type="curve" smooth="yes"/>
      <point x="1173.0" y="781.0"/>
      <point x="1224.0" y="737.0"/>
      <point x="1224.0" y="624.0" type="curve" smooth="yes"/>
      <point x="1224.0" y="296.0" type="line"/>
      <point x="1196.0" y="278.0"/>
      <point x="1143.0" y="270.0"/>
      <point x="1116.0" y="270.0" type="curve" smooth="yes"/>
      <point x="1061.0" y="270.0"/>
      <point x="1013.0" y="294.0"/>
      <point x="1013.0" y="354.0" type="curve" smooth="yes"/>
      <point x="1013.0" y="418.0"/>
      <point x="1053.0" y="447.0"/>
      <point x="1136.0" y="452.0" type="curve" smooth="yes"/>
      <point x="1329.0" y="463.0" type="line"/>
      <point x="1281.0" y="679.0" type="line"/>
      <point x="1092.0" y="668.0" type="line" smooth="yes"/>
      <point x="742.0" y="647.0"/>
      <point x="597.0" y="525.0"/>
      <point x="597.0" y="309.0" type="curve" smooth="yes"/>
      <point x="597.0" y="113.0"/>
      <point x="732.0" y="-22.0"/>
      <point x="969.0" y="-22.0" type="curve" smooth="yes"/>
      <point x="1087.0" y="-22.0"/>
      <point x="1199.0" y="14.0"/>
      <point x="1238.0" y="132.0" type="curve"/>
      <point x="1259.0" y="132.0" type="line"/>
      <point x="1333.0" y="26.0"/>
      <point x="1454.0" y="-22.0"/>
      <point x="1621.0" y="-22.0" type="curve" smooth="yes"/>
      <point x="1930.0" y="-22.0"/>
      <point x="2139.0" y="140.0"/>
      <point x="2139.0" y="588.0" type="curve" smooth="yes"/>
      <point x="2139.0" y="1194.0"/>
      <point x="1772.0" y="1498.0"/>
      <point x="1113.0" y="1498.0" type="curve" smooth="yes"/>
      <point x="455.0" y="1498.0"/>
      <point x="69.0" y="1194.0"/>
      <point x="69.0" y="520.0" type="curve" smooth="yes"/>
      <point x="69.0" y="-154.0"/>
      <point x="455.0" y="-460.0"/>
    </contour>
  </outline>
</glyph>
<glyph name="K" format="2">
  <advance width="1392.0"/>
  <unicode hex="004B"/>
  <anchor x="731.0" y="0.0" name="bottom"/>
  <anchor x="722.0" y="1480.0" name="top"/>
  <outline>
    <contour>
      <point x="986.0" y="0.0" type="line"/>
      <point x="1453.0" y="0.0" type="line"/>
      <point x="943.0" y="814.0" type="line"/>
      <point x="935.0" y="704.0" type="line"/>
      <point x="1410.0" y="1480.0" type="line"/>
      <point x="958.0" y="1480.0" type="line"/>
      <point x="513.0" y="752.0" type="line"/>
    </contour>
    <contour>
      <point x="109.0" y="0.0" type="line"/>
      <point x="543.0" y="0.0" type="line"/>
      <point x="543.0" y="1480.0" type="line"/>
      <point x="109.0" y="1480.0" type="line"/>
    </contour>
    <contour>
      <point x="485.0" y="565.0" type="line"/>
      <point x="677.0" y="565.0" type="line"/>
      <point x="677.0" y="945.0" type="line"/>
      <point x="485.0" y="945.0" type="line"/>
    </contour>
  </outline>
</glyph>
<glyph name="N" format="2">
  <advance width="1592.0"/>
  <unicode hex="004E"/>
  <anchor x="796.0" y="0.0" name="bottom"/>
  <anchor x="796.0" y="1520.0" name="top"/>
  <outline>
    <contour>
      <point x="109.0" y="0.0" type="line"/>
      <point x="516.0" y="0.0" type="line"/>
      <point x="516.0" y="932.0" type="line"/>
      <point x="450.0" y="932.0" type="line"/>
      <point x="1050.0" y="0.0" type="line"/>
      <point x="1483.0" y="0.0" type="line"/>
      <point x="1483.0" y="1480.0" type="line"/>
      <point x="1076.0" y="1480.0" type="line"/>
      <point x="1076.0" y="548.0" type="line"/>
      <point x="1142.0" y="548.0" type="line"/>
      <point x="542.0" y="1480.0" type="line"/>
      <point x="109.0" y="1480.0" type="line"/>
    </contour>
  </outline>
</glyph>
<glyph name="P" format="2">
  <advance width="1373.0"/>
  <unicode hex="0050"/>
  <outline>
    <contour>
      <point x="109.0" y="0.0" type="line"/>
      <point x="543.0" y="0.0" type="line"/>
      <point x="543.0" y="393.0" type="line"/>
      <point x="579.0" y="393.0"/>
      <point x="612.0" y="391.0"/>
      <point x="652.0" y="391.0" type="curve" smooth="yes"/>
      <point x="1079.0" y="391.0"/>
      <point x="1311.0" y="579.0"/>
      <point x="1311.0" y="945.0" type="curve" smooth="yes"/>
      <point x="1311.0" y="1330.0"/>
      <point x="1076.0" y="1500.0"/>
      <point x="603.0" y="1500.0" type="curve" smooth="yes"/>
      <point x="421.0" y="1500.0"/>
      <point x="259.0" y="1480.0"/>
      <point x="109.0" y="1450.0" type="curve"/>
    </contour>
    <contour>
      <point x="656.0" y="711.0" type="curve" smooth="yes"/>
      <point x="612.0" y="711.0"/>
      <point x="581.0" y="713.0"/>
      <point x="543.0" y="718.0" type="curve"/>
      <point x="543.0" y="1172.0" type="line"/>
      <point x="575.0" y="1178.0"/>
      <point x="603.0" y="1180.0"/>
      <point x="645.0" y="1180.0" type="curve" smooth="yes"/>
      <point x="815.0" y="1180.0"/>
      <point x="892.0" y="1110.0"/>
      <point x="892.0" y="943.0" type="curve" smooth="yes"/>
      <point x="892.0" y="771.0"/>
      <point x="815.0" y="711.0"/>
    </contour>
  </outline>
</glyph>
<glyph name="T" format="2">
  <advance width="1359.0"/>
  <unicode hex="0054"/>
  <anchor x="680.0" y="0.0" name="bottom"/>
  <anchor x="680.0" y="700.0" name="center"/>
  <anchor x="680.0" y="1520.0" name="top"/>
  <outline>
    <contour>
      <point x="462.0" y="0.0" type="line"/>
      <point x="897.0" y="0.0" type="line"/>
      <point x="897.0" y="1123.0" type="line"/>
      <point x="1346.0" y="1123.0" type="line"/>
      <point x="1346.0" y="1480.0" type="line"/>
      <point x="13.0" y="1480.0" type="line"/>
      <point x="13.0" y="1123.0" type="line"/>
      <point x="462.0" y="1123.0" type="line"/>
    </contour>
  </outline>
</glyph>
<glyph name="U" format="2">
  <advance width="1547.0"/>
  <unicode hex="0055"/>
  <anchor x="778.0" y="0.0" name="bottom"/>
  <anchor x="1033.0" y="0.0" name="ogonek"/>
  <anchor x="778.0" y="1520.0" name="top"/>
  <anchor x="1052.0" y="1480.0" name="topright"/>
  <outline>
    <contour>
      <point x="778.0" y="-20.0" type="curve" smooth="yes"/>
      <point x="1239.0" y="-20.0"/>
      <point x="1444.0" y="202.0"/>
      <point x="1444.0" y="649.0" type="curve" smooth="yes"/>
      <point x="1444.0" y="1480.0" type="line"/>
      <point x="1018.0" y="1480.0" type="line"/>
      <point x="1018.0" y="608.0" type="line" smooth="yes"/>
      <point x="1018.0" y="410.0"/>
      <point x="934.0" y="332.0"/>
      <point x="778.0" y="332.0" type="curve" smooth="yes"/>
      <point x="622.0" y="332.0"/>
      <point x="537.0" y="410.0"/>
      <point x="537.0" y="608.0" type="curve" smooth="yes"/>
      <point x="537.0" y="1480.0" type="line"/>
      <point x="103.0" y="1480.0" type="line"/>
      <point x="103.0" y="649.0" type="line" smooth="yes"/>
      <point x="103.0" y="202.0"/>
      <point x="310.0" y="-20.0"/>
    </contour>
  </outline>
</glyph>
<glyph name="W" format="2">
  <advance width="2388.0"/>
  <unicode hex="0057"/>
  <anchor x="1194.0" y="0.0" name="bottom"/>
  <anchor x="1194.0" y="1520.0" name="top"/>
  <outline>
    <contour>
      <point x="387.0" y="0.0" type="line"/>
      <point x="941.0" y="0.0" type="line"/>
      <point x="1261.0" y="1218.0" type="line"/>
      <point x="1146.0" y="1218.0" type="line"/>
      <point x="1447.0" y="0.0" type="line"/>
      <point x="2001.0" y="0.0" type="line"/>
      <point x="2374.0" y="1480.0" type="line"/>
      <point x="1965.0" y="1480.0" type="line"/>
      <point x="1655.0" y="187.0" type="line"/>
      <point x="1754.0" y="187.0" type="line"/>
      <point x="1443.0" y="1480.0" type="line"/>
      <point x="971.0" y="1480.0" type="line"/>
      <point x="641.0" y="187.0" type="line"/>
      <point x="751.0" y="187.0" type="line"/>
      <point x="451.0" y="1480.0" type="line"/>
      <point x="14.0" y="1480.0" type="line"/>
    </contour>
  </outline>
</glyph>
<glyph name="bracketleft" format="2">
  <advance width="754.0"/>
  <unicode hex="005B"/>
  <outline>
    <contour>
      <point x="129.0" y="-440.0" type="line"/>
      <point x="770.0" y="-440.0" type="line"/>
      <point x="770.0" y="-110.0" type="line"/>
      <point x="554.0" y="-110.0" type="line"/>
      <point x="554.0" y="1286.0" type="line"/>
      <point x="780.0" y="1286.0" type="line"/>
      <point x="780.0" y="1616.0" type="line"/>
      <point x="129.0" y="1616.0" type="line"/>
    </contour>
  </outline>
</glyph>
<glyph name="i" format="2">
  <advance width="620.0"/>
  <unicode hex="0069"/>
  <anchor x="310.0" y="1200.0" name="_top"/>
  <anchor x="310.0" y="0.0" name="bottom"/>
  <anchor x="523.0" y="0.0" name="ogonek"/>
  <anchor x="310.0" y="1200.0" name="top"/>
  <outline>
    <contour>
      <point x="97.0" y="0.0" type="line"/>
      <point x="523.0" y="0.0" type="line"/>
      <point x="523.0" y="1100.0" type="line"/>
      <point x="97.0" y="1100.0" type="line"/>
    </contour>
    <contour>
      <point x="310.0" y="1208.0" type="curve" smooth="yes"/>
      <point x="486.0" y="1208.0"/>
      <point x="564.0" y="1284.0"/>
      <point x="564.0" y="1418.0" type="curve" smooth="yes"/>
      <point x="564.0" y="1552.0"/>
      <point x="486.0" y="1628.0"/>
      <point x="310.0" y="1628.0" type="curve" smooth="yes"/>
      <point x="134.0" y="1628.0"/>
      <point x="56.0" y="1552.0"/>
      <point x="56.0" y="1418.0" type="curve" smooth="yes"/>
      <point x="56.0" y="1284.0"/>
      <point x="134.0" y="1208.0"/>
    </contour>
  </outline>
</glyph>
<glyph name="j" format="2">
  <advance width="620.0"/>
  <unicode hex="006A"/>
  <anchor x="305.0" y="1200.0" name="_top"/>
  <anchor x="305.0" y="1200.0" name="top"/>
  <outline>
    <contour>
      <point x="227.0" y="-476.0" type="line"/>
      <point x="448.0" y="-258.0"/>
      <point x="523.0" y="-54.0"/>
      <point x="523.0" y="196.0" type="curve" smooth="yes"/>
      <point x="523.0" y="1100.0" type="line"/>
      <point x="97.0" y="1100.0" type="line"/>
      <point x="97.0" y="180.0" type="line" smooth="yes"/>
      <point x="97.0" y="-26.0"/>
      <point x="64.0" y="-152.0"/>
      <point x="-45.0" y="-296.0" type="curve"/>
    </contour>
    <contour>
      <point x="305.0" y="1208.0" type="curve" smooth="yes"/>
      <point x="481.0" y="1208.0"/>
      <point x="559.0" y="1284.0"/>
      <point x="559.0" y="1418.0" type="curve" smooth="yes"/>
      <point x="559.0" y="1552.0"/>
      <point x="481.0" y="1628.0"/>
      <point x="305.0" y="1628.0" type="curve" smooth="yes"/>
      <point x="129.0" y="1628.0"/>
      <point x="51.0" y="1552.0"/>
      <point x="51.0" y="1418.0" type="curve" smooth="yes"/>
      <point x="51.0" y="1284.0"/>
      <point x="129.0" y="1208.0"/>
    </contour>
  </outline>
</glyph>
<glyph name="p" format="2">
  <advance width="1297.0"/>
  <unicode hex="0070"/>
  <outline>
    <contour>
      <point x="97.0" y="-440.0" type="line"/>
      <point x="522.0" y="-440.0" type="line"/>
      <point x="522.0" y="-17.0" type="line"/>
      <point x="550.0" y="-19.0"/>
      <point x="582.0" y="-21.0"/>
      <point x="615.0" y="-21.0" type="curve" smooth="yes"/>
      <point x="1028.0" y="-21.0"/>
      <point x="1244.0" y="196.0"/>
      <point x="1244.0" y="571.0" type="curve" smooth="yes"/>
      <point x="1244.0" y="954.0"/>
      <point x="1028.0" y="1118.0"/>
      <point x="781.0" y="1118.0" type="curve" smooth="yes"/>
      <point x="652.0" y="1118.0"/>
      <point x="557.0" y="1066.0"/>
      <point x="496.0" y="985.0" type="curve"/>
      <point x="478.0" y="985.0" type="line"/>
      <point x="453.0" y="1100.0" type="line"/>
      <point x="97.0" y="1100.0" type="line"/>
    </contour>
    <contour>
      <point x="614.0" y="296.0" type="curve" smooth="yes"/>
      <point x="583.0" y="296.0"/>
      <point x="548.0" y="300.0"/>
      <point x="522.0" y="304.0" type="curve"/>
      <point x="522.0" y="741.0" type="line"/>
      <point x="556.0" y="764.0"/>
      <point x="604.0" y="775.0"/>
      <point x="649.0" y="775.0" type="curve" smooth="yes"/>
      <point x="752.0" y="775.0"/>
      <point x="818.0" y="723.0"/>
      <point x="818.0" y="539.0" type="curve" smooth="yes"/>
      <point x="818.0" y="361.0"/>
      <point x="751.0" y="296.0"/>
    </contour>
  </outline>
</glyph>
<glyph name="w" format="2">
  <advance width="1890.0"/>
  <unicode hex="0077"/>
  <anchor x="946.0" y="0.0" name="bottom"/>
  <anchor x="946.0" y="1200.0" name="top"/>
  <outline>
    <contour>
      <point x="311.0" y="0.0" type="line"/>
      <point x="773.0" y="0.0" type="line"/>
      <point x="959.0" y="736.0" type="line"/>
      <point x="940.0" y="736.0" type="line"/>
      <point x="1119.0" y="0.0" type="line"/>
      <point x="1581.0" y="0.0" type="line"/>
      <point x="1858.0" y="1100.0" type="line"/>
      <point x="1476.0" y="1100.0" type="line"/>
      <point x="1320.0" y="425.0" type="line"/>
      <point x="1344.0" y="425.0" type="line"/>
      <point x="1186.0" y="1100.0" type="line"/>
      <point x="724.0" y="1100.0" type="line"/>
      <point x="561.0" y="425.0" type="line"/>
      <point x="576.0" y="425.0" type="line"/>
      <point x="431.0" y="1100.0" type="line"/>
      <point x="32.0" y="1100.0" type="line"/>
    </contour>
  </outline>
</glyph>
<glyph name="x" format="2">
  <advance width="1204.0"/>
  <unicode hex="0078"/>
  <anchor x="602.0" y="0.0" name="bottom"/>
  <anchor x="603.0" y="1200.0" name="top"/>
  <outline>
    <contour>
      <point x="765.0" y="0.0" type="line"/>
      <point x="1228.0" y="0.0" type="line"/>
      <point x="849.0" y="559.0" type="line"/>
      <point x="607.0" y="850.0" type="line"/>
      <point x="447.0" y="1100.0" type="line"/>
      <point x="-16.0" y="1100.0" type="line"/>
      <point x="352.0" y="554.0" type="line"/>
      <point x="599.0" y="265.0" type="line"/>
    </contour>
    <contour>
      <point x="-23.0" y="0.0" type="line"/>
      <point x="427.0" y="0.0" type="line"/>
      <point x="599.0" y="265.0" type="line"/>
      <point x="849.0" y="559.0" type="line"/>
      <point x="1214.0" y="1100.0" type="line"/>
      <point x="764.0" y="1100.0" type="line"/>
      <point x="607.0" y="850.0" type="line"/>
      <point x="352.0" y="554.0" type="line"/>
    </contour>
  </outline>
</glyph>
<glyph name="y" format="2">
  <advance width="1238.0"/>
  <unicode hex="0079"/>
  <anchor x="1080.0" y="0.0" name="bottom"/>
  <anchor x="619.0" y="1200.0" name="top"/>
  <outline>
    <contour>
      <point x="321.0" y="-440.0" type="line"/>
      <point x="735.0" y="-440.0" type="line"/>
      <point x="1250.0" y="1100.0" type="line"/>
      <point x="834.0" y="1100.0" type="line"/>
      <point x="619.0" y="344.0" type="line"/>
      <point x="470.0" y="0.0" type="line"/>
    </contour>
    <contour>
      <point x="354.0" y="0.0" type="line"/>
      <point x="746.0" y="0.0" type="line"/>
      <point x="430.0" y="1100.0" type="line"/>
      <point x="-12.0" y="1100.0" type="line"/>
    </contour>
  </outline>
</glyph>
<glyph name="z" format="2">
  <advance width="1075.0"/>
  <unicode hex="007A"/>
  <anchor x="548.0" y="0.0" name="bottom"/>
  <anchor x="548.0" y="1200.0" name="top"/>
  <outline>
    <contour>
      <point x="67.0" y="0.0" type="line"/>
      <point x="1028.0" y="0.0" type="line"/>
      <point x="1028.0" y="330.0" type="line"/>
      <point x="530.0" y="330.0" type="line"/>
      <point x="530.0" y="258.0" type="line"/>
      <point x="1018.0" y="830.0" type="line"/>
      <point x="1018.0" y="1100.0" type="line"/>
      <point x="77.0" y="1100.0" type="line"/>
      <point x="77.0" y="770.0" type="line"/>
      <point x="555.0" y="770.0" type="line"/>
      <point x="555.0" y="842.0" type="line"/>
      <point x="67.0" y="270.0" type="line"/>
    </contour>
  </outline>
</glyph>
<glyph name="braceleft" format="2">
  <advance width="794.0"/>
  <unicode hex="007B"/>
  <outline>
    <contour>
      <point x="623.0" y="-460.0" type="curve" smooth="yes"/>
      <point x="700.0" y="-460.0"/>
      <point x="763.0" y="-454.0"/>
      <point x="820.0" y="-446.0" type="curve"/>
      <point x="820.0" y="-124.0" type="line"/>
      <point x="701.0" y="-124.0" type="line" smooth="yes"/>
      <point x="631.0" y="-124.0"/>
      <point x="594.0" y="-98.0"/>
      <point x="594.0" y="-30.0" type="curve" smooth="yes"/>
      <point x="594.0" y="352.0" type="line" smooth="yes"/>
      <point x="594.0" y="548.0"/>
      <point x="486.0" y="656.0"/>
      <point x="200.0" y="656.0" type="curve"/>
      <point x="200.0" y="608.0" type="line"/>
      <point x="486.0" y="608.0"/>
      <point x="594.0" y="716.0"/>
      <point x="594.0" y="912.0" type="curve" smooth="yes"/>
      <point x="594.0" y="1206.0" type="line" smooth="yes"/>
      <point x="594.0" y="1274.0"/>
      <point x="631.0" y="1300.0"/>
      <point x="701.0" y="1300.0" type="curve" smooth="yes"/>
      <point x="820.0" y="1300.0" type="line"/>
      <point x="820.0" y="1622.0" type="line"/>
      <point x="763.0" y="1630.0"/>
      <point x="700.0" y="1636.0"/>
      <point x="623.0" y="1636.0" type="curve" smooth="yes"/>
      <point x="322.0" y="1636.0"/>
      <point x="169.0" y="1490.0"/>
      <point x="169.0" y="1222.0" type="curve" smooth="yes"/>
      <point x="169.0" y="906.0" type="line" smooth="yes"/>
      <point x="169.0" y="841.0"/>
      <point x="125.0" y="797.0"/>
      <point x="60.0" y="797.0" type="curve" smooth="yes"/>
      <point x="-8.0" y="797.0" type="line"/>
      <point x="-8.0" y="467.0" type="line"/>
      <point x="60.0" y="467.0" type="line" smooth="yes"/>
      <point x="125.0" y="467.0"/>
      <point x="169.0" y="423.0"/>
      <point x="169.0" y="358.0" type="curve" smooth="yes"/>
      <point x="169.0" y="-46.0" type="line" smooth="yes"/>
      <point x="169.0" y="-314.0"/>
      <point x="322.0" y="-460.0"/>
    </contour>
  </outline>
</glyph>
<glyph name="braceright" format="2">
  <advance width="794.0"/>
  <unicode hex="007D"/>
  <outline>
    <contour>
      <point x="171.0" y="-460.0" type="curve" smooth="yes"/>
      <point x="472.0" y="-460.0"/>
      <point x="625.0" y="-314.0"/>
      <point x="625.0" y="-46.0" type="curve" smooth="yes"/>
      <point x="625.0" y="358.0" type="line" smooth="yes"/>
      <point x="625.0" y="423.0"/>
      <point x="669.0" y="467.0"/>
      <point x="734.0" y="467.0" type="curve" smooth="yes"/>
      <point x="802.0" y="467.0" type="line"/>
      <point x="802.0" y="797.0" type="line"/>
      <point x="734.0" y="797.0" type="line" smooth="yes"/>
      <point x="669.0" y="797.0"/>
      <point x="625.0" y="841.0"/>
      <point x="625.0" y="906.0" type="curve" smooth="yes"/>
      <point x="625.0" y="1222.0" type="line" smooth="yes"/>
      <point x="625.0" y="1490.0"/>
      <point x="472.0" y="1636.0"/>
      <point x="171.0" y="1636.0" type="curve" smooth="yes"/>
      <point x="94.0" y="1636.0"/>
      <point x="31.0" y="1630.0"/>
      <point x="-26.0" y="1622.0" type="curve"/>
      <point x="-26.0" y="1300.0" type="line"/>
      <point x="93.0" y="1300.0" type="line" smooth="yes"/>
      <point x="163.0" y="1300.0"/>
      <point x="200.0" y="1274.0"/>
      <point x="200.0" y="1206.0" type="curve" smooth="yes"/>
      <point x="200.0" y="912.0" type="line" smooth="yes"/>
      <point x="200.0" y="716.0"/>
      <point x="311.0" y="608.0"/>
      <point x="594.0" y="608.0" type="curve"/>
      <point x="594.0" y="656.0" type="line"/>
      <point x="311.0" y="656.0"/>
      <point x="200.0" y="548.0"/>
      <point x="200.0" y="352.0" type="curve" smooth="yes"/>
      <point x="200.0" y="-30.0" type="line" smooth="yes"/>
      <point x="200.0" y="-98.0"/>
      <point x="163.0" y="-124.0"/>
      <point x="93.0" y="-124.0" type="curve" smooth="yes"/>
      <point x="-26.0" y="-124.0" type="line"/>
      <point x="-26.0" y="-446.0" type="line"/>
      <point x="31.0" y="-454.0"/>
      <point x="94.0" y="-460.0"/>
    </contour>
  </outline>
</glyph>
<glyph name="asciitilde" format="2">
  <advance width="1116.0"/>
  <unicode hex="007E"/>
  <outline>
    <contour>
      <point x="764.0" y="544.0" type="curve" smooth="yes"/>
      <point x="875.0" y="544.0"/>
      <point x="951.0" y="574.0"/>
      <point x="1020.0" y="646.0" type="curve"/>
      <point x="1020.0" y="968.0" type="line"/>
      <point x="938.0" y="890.0"/>
      <point x="865.0" y="858.0"/>
      <point x="768.0" y="858.0" type="curve" smooth="yes"/>
      <point x="636.0" y="858.0"/>
      <point x="516.0" y="976.0"/>
      <point x="352.0" y="976.0" type="curve" smooth="yes"/>
      <point x="241.0" y="976.0"/>
      <point x="165.0" y="946.0"/>
      <point x="96.0" y="874.0" type="curve"/>
      <point x="96.0" y="552.0" type="line"/>
      <point x="178.0" y="630.0"/>
      <point x="251.0" y="662.0"/>
      <point x="348.0" y="662.0" type="curve" smooth="yes"/>
      <point x="480.0" y="662.0"/>
      <point x="600.0" y="544.0"/>
    </contour>
  </outline>
</glyph>
<glyph name="brokenbar" format="2">
  <advance width="598.0"/>
  <unicode hex="00A6"/>
  <outline>
    <contour>
      <point x="109.0" y="836.0" type="line"/>
      <point x="489.0" y="836.0" type="line"/>
      <point x="489.0" y="1616.0" type="line"/>
      <point x="109.0" y="1616.0" type="line"/>
    </contour>
    <contour>
      <point x="109.0" y="-440.0" type="line"/>
      <point x="489.0" y="-440.0" type="line"/>
      <point x="489.0" y="340.0" type="line"/>
      <point x="109.0" y="340.0" type="line"/>
    </contour>
  </outline>
</glyph>
<glyph name="ordfeminine" format="2">
  <advance width="982.0"/>
  <unicode hex="00AA"/>
  <outline>
    <contour>
      <point x="329.0" y="592.0" type="curve" smooth="yes"/>
      <point x="420.0" y="592.0"/>
      <point x="504.0" y="619.0"/>
      <point x="552.0" y="691.0" type="curve"/>
      <point x="569.0" y="691.0" type="line"/>
      <point x="597.0" y="610.0" type="line"/>
      <point x="922.0" y="610.0" type="line"/>
      <point x="922.0" y="1079.0" type="line" smooth="yes"/>
      <point x="922.0" y="1392.0"/>
      <point x="778.0" y="1502.0"/>
      <point x="431.0" y="1502.0" type="curve" smooth="yes"/>
      <point x="329.0" y="1502.0"/>
      <point x="207.0" y="1490.0"/>
      <point x="103.0" y="1465.0" type="curve"/>
      <point x="103.0" y="1186.0" type="line"/>
      <point x="180.0" y="1206.0"/>
      <point x="273.0" y="1218.0"/>
      <point x="352.0" y="1218.0" type="curve" smooth="yes"/>
      <point x="505.0" y="1218.0"/>
      <point x="531.0" y="1186.0"/>
      <point x="531.0" y="1131.0" type="curve" smooth="yes"/>
      <point x="531.0" y="850.0" type="line"/>
      <point x="514.0" y="846.0"/>
      <point x="493.0" y="845.0"/>
      <point x="479.0" y="845.0" type="curve" smooth="yes"/>
      <point x="430.0" y="845.0"/>
      <point x="403.0" y="866.0"/>
      <point x="403.0" y="907.0" type="curve" smooth="yes"/>
      <point x="403.0" y="945.0"/>
      <point x="427.0" y="966.0"/>
      <point x="486.0" y="968.0" type="curve" smooth="yes"/>
      <point x="632.0" y="972.0" type="line"/>
      <point x="583.0" y="1152.0" type="line"/>
      <point x="425.0" y="1146.0" type="line" smooth="yes"/>
      <point x="136.0" y="1135.0"/>
      <point x="19.0" y="1041.0"/>
      <point x="19.0" y="859.0" type="curve" smooth="yes"/>
      <point x="19.0" y="706.0"/>
      <point x="124.0" y="592.0"/>
    </contour>
  </outline>
</glyph>
<glyph name="guillemetleft" format="2">
  <advance width="1370.0"/>
  <unicode hex="00AB"/>
  <outline>
    <contour>
      <point x="314.0" y="130.0" type="line"/>
      <point x="744.0" y="130.0" type="line"/>
      <point x="496.0" y="570.0" type="line"/>
      <point x="744.0" y="1010.0" type="line"/>
      <point x="314.0" y="1010.0" type="line"/>
      <point x="66.0" y="570.0" type="line"/>
    </contour>
    <contour>
      <point x="914.0" y="130.0" type="line"/>
      <point x="1344.0" y="130.0" type="line"/>
      <point x="1096.0" y="570.0" type="line"/>
      <point x="1344.0" y="1010.0" type="line"/>
      <point x="914.0" y="1010.0" type="line"/>
      <point x="666.0" y="570.0" type="line"/>
    </contour>
  </outline>
</glyph>
<glyph name="softhyphen" format="2">
  <advance width="956.0"/>
  <unicode hex="00AD"/>
  <outline>
    <contour>
      <point x="96.0" y="399.0" type="line"/>
      <point x="860.0" y="399.0" type="line"/>
      <point x="860.0" y="741.0" type="line"/>
      <point x="96.0" y="741.0" type="line"/>
    </contour>
  </outline>
</glyph>
<glyph name="registered" format="2">
  <advance width="1394.0"/>
  <unicode hex="00AE"/>
  <outline>
    <contour>
      <point x="697.0" y="268.0" type="curve" smooth="yes"/>
      <point x="1059.0" y="268.0"/>
      <point x="1307.0" y="518.0"/>
      <point x="1307.0" y="882.0" type="curve" smooth="yes"/>
      <point x="1307.0" y="1246.0"/>
      <point x="1059.0" y="1498.0"/>
      <point x="697.0" y="1498.0" type="curve" smooth="yes"/>
      <point x="335.0" y="1498.0"/>
      <point x="87.0" y="1246.0"/>
      <point x="87.0" y="882.0" type="curve" smooth="yes"/>
      <point x="87.0" y="518.0"/>
      <point x="335.0" y="268.0"/>
    </contour>
    <contour>
      <point x="803.0" y="600.0" type="line"/>
      <point x="985.0" y="600.0" type="line"/>
      <point x="833.0" y="820.0" type="line"/>
      <point x="669.0" y="794.0" type="line"/>
    </contour>
    <contour>
      <point x="697.0" y="424.0" type="curve" smooth="yes"/>
      <point x="429.0" y="424.0"/>
      <point x="255.0" y="604.0"/>
      <point x="255.0" y="882.0" type="curve" smooth="yes"/>
      <point x="255.0" y="1162.0"/>
      <point x="429.0" y="1342.0"/>
      <point x="697.0" y="1342.0" type="curve" smooth="yes"/>
      <point x="965.0" y="1342.0"/>
      <point x="1139.0" y="1162.0"/>
      <point x="1139.0" y="882.0" type="curve" smooth="yes"/>
      <point x="1139.0" y="604.0"/>
      <point x="965.0" y="424.0"/>
    </contour>
    <contour>
      <point x="475.0" y="600.0" type="line"/>
      <point x="641.0" y="600.0" type="line"/>
      <point x="647.0" y="786.0" type="line"/>
      <point x="689.0" y="786.0" type="line" smooth="yes"/>
      <point x="869.0" y="786.0"/>
      <point x="953.0" y="850.0"/>
      <point x="953.0" y="988.0" type="curve" smooth="yes"/>
      <point x="953.0" y="1126.0"/>
      <point x="867.0" y="1192.0"/>
      <point x="689.0" y="1192.0" type="curve" smooth="yes"/>
      <point x="475.0" y="1192.0" type="line"/>
    </contour>
    <contour>
      <point x="647.0" y="918.0" type="line"/>
      <point x="647.0" y="1060.0" type="line"/>
      <point x="715.0" y="1060.0" type="line" smooth="yes"/>
      <point x="763.0" y="1060.0"/>
      <point x="791.0" y="1036.0"/>
      <point x="791.0" y="988.0" type="curve" smooth="yes"/>
      <point x="791.0" y="940.0"/>
      <point x="765.0" y="918.0"/>
      <point x="715.0" y="918.0" type="curve" smooth="yes"/>
    </contour>
  </outline>
</glyph>
<glyph name="degree" format="2">
  <advance width="966.0"/>
  <unicode hex="00B0"/>
  <outline>
    <contour>
      <point x="483.0" y="722.0" type="curve" smooth="yes"/>
      <point x="711.0" y="722.0"/>
      <point x="879.0" y="886.0"/>
      <point x="879.0" y="1112.0" type="curve" smooth="yes"/>
      <point x="879.0" y="1338.0"/>
      <point x="711.0" y="1500.0"/>
      <point x="483.0" y="1500.0" type="curve" smooth="yes"/>
      <point x="255.0" y="1500.0"/>
      <point x="87.0" y="1338.0"/>
      <point x="87.0" y="1112.0" type="curve" smooth="yes"/>
      <point x="87.0" y="886.0"/>
      <point x="255.0" y="722.0"/>
    </contour>
    <contour>
      <point x="483.0" y="959.0" type="curve" smooth="yes"/>
      <point x="402.0" y="959.0"/>
      <point x="340.0" y="1017.0"/>
      <point x="340.0" y="1112.0" type="curve" smooth="yes"/>
      <point x="340.0" y="1208.0"/>
      <point x="404.0" y="1263.0"/>
      <point x="483.0" y="1263.0" type="curve" smooth="yes"/>
      <point x="562.0" y="1263.0"/>
      <point x="626.0" y="1208.0"/>
      <point x="626.0" y="1112.0" type="curve" smooth="yes"/>
      <point x="626.0" y="1017.0"/>
      <point x="564.0" y="959.0"/>
    </contour>
  </outline>
</glyph>
<glyph name="plusminus" format="2">
  <advance width="1116.0"/>
  <unicode hex="00B1"/>
  <outline>
    <contour>
      <point x="391.0" y="398.0" type="line"/>
      <point x="725.0" y="398.0" type="line"/>
      <point x="725.0" y="674.0" type="line"/>
      <point x="1020.0" y="674.0" type="line"/>
      <point x="1020.0" y="994.0" type="line"/>
      <point x="725.0" y="994.0" type="line"/>
      <point x="725.0" y="1270.0" type="line"/>
      <point x="391.0" y="1270.0" type="line"/>
      <point x="391.0" y="994.0" type="line"/>
      <point x="96.0" y="994.0" type="line"/>
      <point x="96.0" y="674.0" type="line"/>
      <point x="391.0" y="674.0" type="line"/>
    </contour>
    <contour>
      <point x="96.0" y="1.0" type="line"/>
      <point x="1020.0" y="1.0" type="line"/>
      <point x="1020.0" y="321.0" type="line"/>
      <point x="96.0" y="321.0" type="line"/>
    </contour>
  </outline>
</glyph>
<glyph name="twosuperior" format="2">
  <advance width="900.0"/>
  <unicode hex="00B2"/>
  <outline>
    <contour>
      <point x="76.0" y="-136.0" type="line"/>
      <point x="829.0" y="-136.0" type="line"/>
      <point x="829.0" y="129.0" type="line"/>
      <point x="453.0" y="129.0" type="line"/>
      <point x="450.0" y="49.0" type="line"/>
      <point x="643.0" y="260.0" type="line" smooth="yes"/>
      <point x="744.0" y="372.0"/>
      <point x="786.0" y="467.0"/>
      <point x="786.0" y="567.0" type="curve" smooth="yes"/>
      <point x="786.0" y="783.0"/>
      <point x="636.0" y="878.0"/>
      <point x="344.0" y="878.0" type="curve" smooth="yes"/>
      <point x="246.0" y="878.0"/>
      <point x="136.0" y="864.0"/>
      <point x="63.0" y="841.0" type="curve"/>
      <point x="63.0" y="583.0" type="line"/>
      <point x="122.0" y="604.0"/>
      <point x="214.0" y="622.0"/>
      <point x="293.0" y="622.0" type="curve" smooth="yes"/>
      <point x="419.0" y="622.0"/>
      <point x="456.0" y="590.0"/>
      <point x="456.0" y="533.0" type="curve" smooth="yes"/>
      <point x="456.0" y="486.0"/>
      <point x="426.0" y="432.0"/>
      <point x="351.0" y="346.0" type="curve" smooth="yes"/>
      <point x="76.0" y="36.0" type="line"/>
    </contour>
  </outline>
</glyph>
<glyph name="micro" format="2">
  <advance width="1271.0"/>
  <unicode hex="00B5"/>
  <outline>
    <contour>
      <point x="582.0" y="-19.0" type="curve" smooth="yes"/>
      <point x="660.0" y="-19.0"/>
      <point x="727.0" y="24.0"/>
      <point x="781.0" y="104.0" type="curve"/>
      <point x="797.0" y="104.0" type="line"/>
      <point x="825.0" y="0.0" type="line"/>
      <point x="1174.0" y="0.0" type="line"/>
      <point x="1174.0" y="1100.0" type="line"/>
      <point x="749.0" y="1100.0" type="line"/>
      <point x="749.0" y="396.0" type="line"/>
      <point x="718.0" y="365.0"/>
      <point x="665.0" y="344.0"/>
      <point x="617.0" y="344.0" type="curve" smooth="yes"/>
      <point x="555.0" y="344.0"/>
      <point x="516.0" y="374.0"/>
      <point x="516.0" y="470.0" type="curve" smooth="yes"/>
      <point x="516.0" y="700.0" type="line"/>
      <point x="312.0" y="700.0" type="line"/>
      <point x="312.0" y="439.0" type="line" smooth="yes"/>
      <point x="312.0" y="110.0"/>
      <point x="425.0" y="-19.0"/>
    </contour>
    <contour>
      <point x="91.0" y="-440.0" type="line"/>
      <point x="516.0" y="-440.0" type="line"/>
      <point x="516.0" y="1099.0" type="line"/>
      <point x="91.0" y="1099.0" type="line"/>
    </contour>
  </outline>
</glyph>
<glyph name="periodcentered" format="2">
  <advance width="620.0"/>
  <unicode hex="00B7"/>
  <anchor x="310.0" y="560.0" name="_periodcentered"/>
  <outline>
    <contour>
      <point x="310.0" y="311.0" type="curve" smooth="yes"/>
      <point x="473.0" y="311.0"/>
      <point x="578.0" y="410.0"/>
      <point x="578.0" y="560.0" type="curve" smooth="yes"/>
      <point x="578.0" y="710.0"/>
      <point x="477.0" y="809.0"/>
      <point x="310.0" y="809.0" type="curve" smooth="yes"/>
      <point x="143.0" y="809.0"/>
      <point x="42.0" y="714.0"/>
      <point x="42.0" y="560.0" type="curve" smooth="yes"/>
      <point x="42.0" y="406.0"/>
      <point x="147.0" y="311.0"/>
    </contour>
  </outline>
</glyph>
<glyph name="onesuperior" format="2">
  <advance width="900.0"/>
  <unicode hex="00B9"/>
  <outline>
    <contour>
      <point x="324.0" y="-106.0" type="line"/>
      <point x="659.0" y="-106.0" type="line"/>
      <point x="659.0" y="868.0" type="line"/>
      <point x="442.0" y="868.0" type="line"/>
      <point x="132.0" y="680.0" type="line"/>
      <point x="132.0" y="395.0" type="line"/>
      <point x="442.0" y="583.0" type="line"/>
      <point x="324.0" y="691.0" type="line"/>
    </contour>
    <contour>
      <point x="125.0" y="-136.0" type="line"/>
      <point x="847.0" y="-136.0" type="line"/>
      <point x="847.0" y="129.0" type="line"/>
      <point x="125.0" y="129.0" type="line"/>
    </contour>
  </outline>
</glyph>
<glyph name="ordmasculine" format="2">
  <advance width="1054.0"/>
  <unicode hex="00BA"/>
  <outline>
    <contour>
      <point x="527.0" y="592.0" type="curve" smooth="yes"/>
      <point x="850.0" y="592.0"/>
      <point x="1028.0" y="769.0"/>
      <point x="1028.0" y="1047.0" type="curve" smooth="yes"/>
      <point x="1028.0" y="1325.0"/>
      <point x="850.0" y="1502.0"/>
      <point x="527.0" y="1502.0" type="curve" smooth="yes"/>
      <point x="204.0" y="1502.0"/>
      <point x="26.0" y="1330.0"/>
      <point x="26.0" y="1047.0" type="curve" smooth="yes"/>
      <point x="26.0" y="764.0"/>
      <point x="204.0" y="592.0"/>
    </contour>
    <contour>
      <point x="527.0" y="876.0" type="curve" smooth="yes"/>
      <point x="462.0" y="876.0"/>
      <point x="418.0" y="913.0"/>
      <point x="418.0" y="1047.0" type="curve" smooth="yes"/>
      <point x="418.0" y="1182.0"/>
      <point x="462.0" y="1218.0"/>
      <point x="527.0" y="1218.0" type="curve" smooth="yes"/>
      <point x="594.0" y="1218.0"/>
      <point x="636.0" y="1182.0"/>
      <point x="636.0" y="1047.0" type="curve" smooth="yes"/>
      <point x="636.0" y="913.0"/>
      <point x="594.0" y="876.0"/>
    </contour>
  </outline>
</glyph>
<glyph name="guillemetright" format="2">
  <advance width="1370.0"/>
  <unicode hex="00BB"/>
  <outline>
    <contour>
      <point x="26.0" y="130.0" type="line"/>
      <point x="456.0" y="130.0" type="line"/>
      <point x="704.0" y="570.0" type="line"/>
      <point x="456.0" y="1010.0" type="line"/>
      <point x="26.0" y="1010.0" type="line"/>
      <point x="274.0" y="570.0" type="line"/>
    </contour>
    <contour>
      <point x="626.0" y="130.0" type="line"/>
      <point x="1056.0" y="130.0" type="line"/>
      <point x="1304.0" y="570.0" type="line"/>
      <point x="1056.0" y="1010.0" type="line"/>
      <point x="626.0" y="1010.0" type="line"/>
      <point x="874.0" y="570.0" type="line"/>
    </contour>
  </outline>
</glyph>
<glyph name="onequarter" format="2">
  <advance width="2231.0"/>
  <unicode hex="00BC"/>
  <outline>
    <contour>
      <point x="324.0" y="646.0" type="line"/>
      <point x="659.0" y="646.0" type="line"/>
      <point x="659.0" y="1620.0" type="line"/>
      <point x="442.0" y="1620.0" type="line"/>
      <point x="132.0" y="1432.0" type="line"/>
      <point x="132.0" y="1147.0" type="line"/>
      <point x="442.0" y="1335.0" type="line"/>
      <point x="324.0" y="1443.0" type="line"/>
    </contour>
    <contour>
      <point x="125.0" y="616.0" type="line"/>
      <point x="847.0" y="616.0" type="line"/>
      <point x="847.0" y="881.0" type="line"/>
      <point x="125.0" y="881.0" type="line"/>
    </contour>
    <contour>
      <point x="535.0" y="-136.0" type="line"/>
      <point x="884.0" y="-136.0" type="line"/>
      <point x="1696.0" y="1616.0" type="line"/>
      <point x="1347.0" y="1616.0" type="line"/>
    </contour>
    <contour>
      <point x="1353.0" y="37.0" type="line"/>
      <point x="2210.0" y="37.0" type="line"/>
      <point x="2210.0" y="283.0" type="line"/>
      <point x="1637.0" y="283.0" type="line"/>
      <point x="1663.0" y="213.0" type="line"/>
      <point x="1939.0" y="864.0" type="line"/>
      <point x="1633.0" y="864.0" type="line"/>
      <point x="1353.0" y="213.0" type="line"/>
    </contour>
    <contour>
      <point x="1807.0" y="-136.0" type="line"/>
      <point x="2097.0" y="-136.0" type="line"/>
      <point x="2097.0" y="526.0" type="line"/>
      <point x="1866.0" y="526.0" type="line"/>
      <point x="1807.0" y="283.0" type="line"/>
    </contour>
  </outline>
</glyph>
<glyph name="onehalf" format="2">
  <advance width="2231.0"/>
  <unicode hex="00BD"/>
  <outline>
    <contour>
      <point x="324.0" y="646.0" type="line"/>
      <point x="659.0" y="646.0" type="line"/>
      <point x="659.0" y="1620.0" type="line"/>
      <point x="442.0" y="1620.0" type="line"/>
      <point x="132.0" y="1432.0" type="line"/>
      <point x="132.0" y="1147.0" type="line"/>
      <point x="442.0" y="1335.0" type="line"/>
      <point x="324.0" y="1443.0" type="line"/>
    </contour>
    <contour>
      <point x="125.0" y="616.0" type="line"/>
      <point x="847.0" y="616.0" type="line"/>
      <point x="847.0" y="881.0" type="line"/>
      <point x="125.0" y="881.0" type="line"/>
    </contour>
    <contour>
      <point x="535.0" y="-136.0" type="line"/>
      <point x="884.0" y="-136.0" type="line"/>
      <point x="1696.0" y="1616.0" type="line"/>
      <point x="1347.0" y="1616.0" type="line"/>
    </contour>
    <contour>
      <point x="1407.0" y="-136.0" type="line"/>
      <point x="2160.0" y="-136.0" type="line"/>
      <point x="2160.0" y="129.0" type="line"/>
      <point x="1784.0" y="129.0" type="line"/>
      <point x="1781.0" y="49.0" type="line"/>
      <point x="1974.0" y="260.0" type="line" smooth="yes"/>
      <point x="2075.0" y="372.0"/>
      <point x="2117.0" y="467.0"/>
      <point x="2117.0" y="567.0" type="curve" smooth="yes"/>
      <point x="2117.0" y="783.0"/>
      <point x="1967.0" y="878.0"/>
      <point x="1675.0" y="878.0" type="curve" smooth="yes"/>
      <point x="1577.0" y="878.0"/>
      <point x="1467.0" y="864.0"/>
      <point x="1394.0" y="841.0" type="curve"/>
      <point x="1394.0" y="583.0" type="line"/>
      <point x="1453.0" y="604.0"/>
      <point x="1545.0" y="622.0"/>
      <point x="1624.0" y="622.0" type="curve" smooth="yes"/>
      <point x="1750.0" y="622.0"/>
      <point x="1787.0" y="590.0"/>
      <point x="1787.0" y="533.0" type="curve" smooth="yes"/>
      <point x="1787.0" y="486.0"/>
      <point x="1757.0" y="432.0"/>
      <point x="1682.0" y="346.0" type="curve" smooth="yes"/>
      <point x="1407.0" y="36.0" type="line"/>
    </contour>
  </outline>
</glyph>
<glyph name="threequarters" format="2">
  <advance width="2231.0"/>
  <unicode hex="00BE"/>
  <outline>
    <contour>
      <point x="355.0" y="602.0" type="curve" smooth="yes"/>
      <point x="667.0" y="602.0"/>
      <point x="815.0" y="715.0"/>
      <point x="815.0" y="901.0" type="curve" smooth="yes"/>
      <point x="815.0" y="1034.0"/>
      <point x="741.0" y="1112.0"/>
      <point x="613.0" y="1134.0" type="curve"/>
      <point x="613.0" y="1127.0" type="line"/>
      <point x="718.0" y="1151.0"/>
      <point x="782.0" y="1235.0"/>
      <point x="782.0" y="1348.0" type="curve" smooth="yes"/>
      <point x="782.0" y="1528.0"/>
      <point x="644.0" y="1630.0"/>
      <point x="356.0" y="1630.0" type="curve" smooth="yes"/>
      <point x="262.0" y="1630.0"/>
      <point x="146.0" y="1614.0"/>
      <point x="78.0" y="1593.0" type="curve"/>
      <point x="78.0" y="1356.0" type="line"/>
      <point x="144.0" y="1380.0"/>
      <point x="241.0" y="1395.0"/>
      <point x="315.0" y="1395.0" type="curve" smooth="yes"/>
      <point x="425.0" y="1395.0"/>
      <point x="464.0" y="1367.0"/>
      <point x="464.0" y="1317.0" type="curve" smooth="yes"/>
      <point x="464.0" y="1274.0"/>
      <point x="436.0" y="1245.0"/>
      <point x="341.0" y="1245.0" type="curve" smooth="yes"/>
      <point x="154.0" y="1245.0" type="line"/>
      <point x="154.0" y="1006.0" type="line"/>
      <point x="353.0" y="1006.0" type="line" smooth="yes"/>
      <point x="465.0" y="1006.0"/>
      <point x="502.0" y="979.0"/>
      <point x="502.0" y="923.0" type="curve" smooth="yes"/>
      <point x="502.0" y="867.0"/>
      <point x="460.0" y="838.0"/>
      <point x="338.0" y="838.0" type="curve" smooth="yes"/>
      <point x="257.0" y="838.0"/>
      <point x="153.0" y="850.0"/>
      <point x="67.0" y="871.0" type="curve"/>
      <point x="67.0" y="634.0" type="line"/>
      <point x="157.0" y="613.0"/>
      <point x="255.0" y="602.0"/>
    </contour>
    <contour>
      <point x="535.0" y="-136.0" type="line"/>
      <point x="884.0" y="-136.0" type="line"/>
      <point x="1696.0" y="1616.0" type="line"/>
      <point x="1347.0" y="1616.0" type="line"/>
    </contour>
    <contour>
      <point x="1353.0" y="37.0" type="line"/>
      <point x="2210.0" y="37.0" type="line"/>
      <point x="2210.0" y="283.0" type="line"/>
      <point x="1637.0" y="283.0" type="line"/>
      <point x="1663.0" y="213.0" type="line"/>
      <point x="1939.0" y="864.0" type="line"/>
      <point x="1633.0" y="864.0" type="line"/>
      <point x="1353.0" y="213.0" type="line"/>
    </contour>
    <contour>
      <point x="1807.0" y="-136.0" type="line"/>
      <point x="2097.0" y="-136.0" type="line"/>
      <point x="2097.0" y="526.0" type="line"/>
      <point x="1866.0" y="526.0" type="line"/>
      <point x="1807.0" y="283.0" type="line"/>
    </contour>
  </outline>
</glyph>
<glyph name="questiondown" format="2">
  <advance width="1050.0"/>
  <unicode hex="00BF"/>
  <outline>
    <contour>
      <point x="710.0" y="568.0" type="line"/>
      <point x="453.0" y="568.0" type="line"/>
      <point x="424.0" y="425.0" type="line"/>
      <point x="195.0" y="366.0"/>
      <point x="45.0" y="232.0"/>
      <point x="45.0" y="16.0" type="curve" smooth="yes"/>
      <point x="45.0" y="-251.0"/>
      <point x="238.0" y="-400.0"/>
      <point x="634.0" y="-400.0" type="curve" smooth="yes"/>
      <point x="765.0" y="-400.0"/>
      <point x="926.0" y="-377.0"/>
      <point x="1024.0" y="-345.0" type="curve"/>
      <point x="1024.0" y="-18.0" type="line"/>
      <point x="926.0" y="-52.0"/>
      <point x="797.0" y="-73.0"/>
      <point x="686.0" y="-73.0" type="curve" smooth="yes"/>
      <point x="521.0" y="-73.0"/>
      <point x="458.0" y="-29.0"/>
      <point x="458.0" y="54.0" type="curve" smooth="yes"/>
      <point x="458.0" y="132.0"/>
      <point x="524.0" y="192.0"/>
      <point x="783.0" y="227.0" type="curve"/>
    </contour>
    <contour>
      <point x="581.0" y="1120.0" type="curve" smooth="yes"/>
      <point x="418.0" y="1120.0"/>
      <point x="313.0" y="1025.0"/>
      <point x="313.0" y="884.0" type="curve" smooth="yes"/>
      <point x="313.0" y="743.0"/>
      <point x="414.0" y="648.0"/>
      <point x="581.0" y="648.0" type="curve" smooth="yes"/>
      <point x="748.0" y="648.0"/>
      <point x="849.0" y="739.0"/>
      <point x="849.0" y="884.0" type="curve" smooth="yes"/>
      <point x="849.0" y="1029.0"/>
      <point x="744.0" y="1120.0"/>
    </contour>
  </outline>
</glyph>
<glyph name="Aacute" format="2">
  <advance width="1530.0"/>
  <unicode hex="00C1"/>
  <anchor x="764.0" y="1520.0" name="_top"/>
  <anchor x="765.0" y="0.0" name="bottom"/>
  <anchor x="1526.0" y="0.0" name="ogonek"/>
  <anchor x="764.0" y="1520.0" name="top"/>
  <outline>
    <contour>
      <point x="4.0" y="0.0" type="line"/>
      <point x="424.0" y="0.0" type="line"/>
      <point x="781.0" y="1295.0" type="line"/>
      <point x="743.0" y="1295.0" type="line"/>
      <point x="1102.0" y="0.0" type="line"/>
      <point x="1526.0" y="0.0" type="line"/>
      <point x="1084.0" y="1480.0" type="line"/>
      <point x="446.0" y="1480.0" type="line"/>
    </contour>
    <contour>
      <point x="373.0" y="339.0" type="line"/>
      <point x="1154.0" y="339.0" type="line"/>
      <point x="1064.0" y="679.0" type="line"/>
      <point x="464.0" y="679.0" type="line"/>
    </contour>
    <contour>
      <point x="571.0" y="1586.0" type="line"/>
      <point x="953.0" y="1586.0" type="line"/>
      <point x="1198.0" y="1902.0" type="line"/>
      <point x="754.0" y="1902.0" type="line"/>
    </contour>
  </outline>
</glyph>
<glyph name="Atilde" format="2">
  <advance width="1530.0"/>
  <unicode hex="00C3"/>
  <anchor x="764.0" y="1520.0" name="_top"/>
  <anchor x="765.0" y="0.0" name="bottom"/>
  <anchor x="1526.0" y="0.0" name="ogonek"/>
  <anchor x="764.0" y="1520.0" name="top"/>
  <outline>
    <contour>
      <point x="4.0" y="0.0" type="line"/>
      <point x="424.0" y="0.0" type="line"/>
      <point x="781.0" y="1295.0" type="line"/>
      <point x="743.0" y="1295.0" type="line"/>
      <point x="1102.0" y="0.0" type="line"/>
      <point x="1526.0" y="0.0" type="line"/>
      <point x="1084.0" y="1480.0" type="line"/>
      <point x="446.0" y="1480.0" type="line"/>
    </contour>
    <contour>
      <point x="373.0" y="339.0" type="line"/>
      <point x="1154.0" y="339.0" type="line"/>
      <point x="1064.0" y="679.0" type="line"/>
      <point x="464.0" y="679.0" type="line"/>
    </contour>
    <contour>
      <point x="948.0" y="1586.0" type="curve" smooth="yes"/>
      <point x="1048.0" y="1586.0"/>
      <point x="1114.0" y="1608.0"/>
      <point x="1174.0" y="1661.0" type="curve"/>
      <point x="1174.0" y="1894.0" type="line"/>
      <point x="1105.0" y="1847.0"/>
      <point x="1045.0" y="1824.0"/>
      <point x="956.0" y="1824.0" type="curve" smooth="yes"/>
      <point x="827.0" y="1824.0"/>
      <point x="729.0" y="1902.0"/>
      <point x="580.0" y="1902.0" type="curve" smooth="yes"/>
      <point x="480.0" y="1902.0"/>
      <point x="414.0" y="1878.0"/>
      <point x="354.0" y="1825.0" type="curve"/>
      <point x="354.0" y="1592.0" type="line"/>
      <point x="423.0" y="1639.0"/>
      <point x="483.0" y="1662.0"/>
      <point x="572.0" y="1662.0" type="curve" smooth="yes"/>
      <point x="701.0" y="1662.0"/>
      <point x="799.0" y="1586.0"/>
    </contour>
  </outline>
</glyph>
<glyph name="Adieresis" format="2">
  <advance width="1530.0"/>
  <unicode hex="00C4"/>
  <anchor x="764.0" y="1520.0" name="_top"/>
  <anchor x="765.0" y="0.0" name="bottom"/>
  <anchor x="1526.0" y="0.0" name="ogonek"/>
  <anchor x="764.0" y="1520.0" name="top"/>
  <outline>
    <contour>
      <point x="4.0" y="0.0" type="line"/>
      <point x="424.0" y="0.0" type="line"/>
      <point x="781.0" y="1295.0" type="line"/>
      <point x="743.0" y="1295.0" type="line"/>
      <point x="1102.0" y="0.0" type="line"/>
      <point x="1526.0" y="0.0" type="line"/>
      <point x="1084.0" y="1480.0" type="line"/>
      <point x="446.0" y="1480.0" type="line"/>
    </contour>
    <contour>
      <point x="373.0" y="339.0" type="line"/>
      <point x="1154.0" y="339.0" type="line"/>
      <point x="1064.0" y="679.0" type="line"/>
      <point x="464.0" y="679.0" type="line"/>
    </contour>
    <contour>
      <point x="1037.0" y="1570.0" type="curve" smooth="yes"/>
      <point x="1183.0" y="1570.0"/>
      <point x="1255.0" y="1636.0"/>
      <point x="1255.0" y="1750.0" type="curve" smooth="yes"/>
      <point x="1255.0" y="1864.0"/>
      <point x="1183.0" y="1930.0"/>
      <point x="1037.0" y="1930.0" type="curve" smooth="yes"/>
      <point x="891.0" y="1930.0"/>
      <point x="819.0" y="1864.0"/>
      <point x="819.0" y="1750.0" type="curve" smooth="yes"/>
      <point x="819.0" y="1636.0"/>
      <point x="891.0" y="1570.0"/>
    </contour>
    <contour>
      <point x="491.0" y="1570.0" type="curve" smooth="yes"/>
      <point x="637.0" y="1570.0"/>
      <point x="709.0" y="1636.0"/>
      <point x="709.0" y="1750.0" type="curve" smooth="yes"/>
      <point x="709.0" y="1864.0"/>
      <point x="637.0" y="1930.0"/>
      <point x="491.0" y="1930.0" type="curve" smooth="yes"/>
      <point x="345.0" y="1930.0"/>
      <point x="273.0" y="1864.0"/>
      <point x="273.0" y="1750.0" type="curve" smooth="yes"/>
      <point x="273.0" y="1636.0"/>
      <point x="345.0" y="1570.0"/>
    </contour>
  </outline>
</glyph>
<glyph name="Eacute" format="2">
  <advance width="1313.0"/>
  <unicode hex="00C9"/>
  <anchor x="692.0" y="1520.0" name="_top"/>
  <anchor x="692.0" y="0.0" name="bottom"/>
  <anchor x="1151.0" y="0.0" name="ogonek"/>
  <anchor x="692.0" y="1520.0" name="top"/>
  <anchor x="38.0" y="1480.0" name="topleft"/>
  <outline>
    <contour>
      <point x="109.0" y="0.0" type="line"/>
      <point x="1241.0" y="0.0" type="line"/>
      <point x="1241.0" y="342.0" type="line"/>
      <point x="537.0" y="342.0" type="line"/>
      <point x="537.0" y="1138.0" type="line"/>
      <point x="1231.0" y="1138.0" type="line"/>
      <point x="1231.0" y="1480.0" type="line"/>
      <point x="109.0" y="1480.0" type="line"/>
    </contour>
    <contour>
      <point x="362.0" y="584.0" type="line"/>
      <point x="1126.0" y="584.0" type="line"/>
      <point x="1126.0" y="926.0" type="line"/>
      <point x="362.0" y="926.0" type="line"/>
    </contour>
    <contour>
      <point x="499.0" y="1586.0" type="line"/>
      <point x="881.0" y="1586.0" type="line"/>
      <point x="1126.0" y="1902.0" type="line"/>
      <point x="682.0" y="1902.0" type="line"/>
    </contour>
  </outline>
</glyph>
<glyph name="Igrave" format="2">
  <advance width="652.0"/>
  <unicode hex="00CC"/>
  <anchor x="326.0" y="1520.0" name="_top"/>
  <anchor x="325.0" y="0.0" name="bottom"/>
  <anchor x="543.0" y="0.0" name="ogonek"/>
  <anchor x="326.0" y="1520.0" name="top"/>
  <outline>
    <contour>
      <point x="109.0" y="0.0" type="line"/>
      <point x="543.0" y="0.0" type="line"/>
      <point x="543.0" y="1480.0" type="line"/>
      <point x="109.0" y="1480.0" type="line"/>
    </contour>
    <contour>
      <point x="135.0" y="1586.0" type="line"/>
      <point x="517.0" y="1586.0" type="line"/>
      <point x="334.0" y="1902.0" type="line"/>
      <point x="-110.0" y="1902.0" type="line"/>
    </contour>
  </outline>
</glyph>
<glyph name="Iacute" format="2">
  <advance width="652.0"/>
  <unicode hex="00CD"/>
  <anchor x="326.0" y="1520.0" name="_top"/>
  <anchor x="325.0" y="0.0" name="bottom"/>
  <anchor x="543.0" y="0.0" name="ogonek"/>
  <anchor x="326.0" y="1520.0" name="top"/>
  <outline>
    <contour>
      <point x="109.0" y="0.0" type="line"/>
      <point x="543.0" y="0.0" type="line"/>
      <point x="543.0" y="1480.0" type="line"/>
      <point x="109.0" y="1480.0" type="line"/>
    </contour>
    <contour>
      <point x="133.0" y="1586.0" type="line"/>
      <point x="515.0" y="1586.0" type="line"/>
      <point x="760.0" y="1902.0" type="line"/>
      <point x="316.0" y="1902.0" type="line"/>
    </contour>
  </outline>
</glyph>
<glyph name="Icircumflex" format="2">
  <advance width="652.0"/>
  <unicode hex="00CE"/>
  <anchor x="326.0" y="1520.0" name="_top"/>
  <anchor x="325.0" y="0.0" name="bottom"/>
  <anchor x="543.0" y="0.0" name="ogonek"/>
  <anchor x="326.0" y="1520.0" name="top"/>
  <outline>
    <contour>
      <point x="109.0" y="0.0" type="line"/>
      <point x="543.0" y="0.0" type="line"/>
      <point x="543.0" y="1480.0" type="line"/>
      <point x="109.0" y="1480.0" type="line"/>
    </contour>
    <contour>
      <point x="-113.0" y="1586.0" type="line"/>
      <point x="197.0" y="1586.0" type="line"/>
      <point x="356.0" y="1791.0" type="line"/>
      <point x="296.0" y="1791.0" type="line"/>
      <point x="455.0" y="1586.0" type="line"/>
      <point x="765.0" y="1586.0" type="line"/>
      <point x="503.0" y="1902.0" type="line"/>
      <point x="149.0" y="1902.0" type="line"/>
    </contour>
  </outline>
</glyph>
<glyph name="Idieresis" format="2">
  <advance width="652.0"/>
  <unicode hex="00CF"/>
  <anchor x="326.0" y="1520.0" name="_top"/>
  <anchor x="325.0" y="0.0" name="bottom"/>
  <anchor x="543.0" y="0.0" name="ogonek"/>
  <anchor x="326.0" y="1520.0" name="top"/>
  <outline>
    <contour>
      <point x="109.0" y="0.0" type="line"/>
      <point x="543.0" y="0.0" type="line"/>
      <point x="543.0" y="1480.0" type="line"/>
      <point x="109.0" y="1480.0" type="line"/>
    </contour>
    <contour>
      <point x="599.0" y="1570.0" type="curve" smooth="yes"/>
      <point x="745.0" y="1570.0"/>
      <point x="817.0" y="1636.0"/>
      <point x="817.0" y="1750.0" type="curve" smooth="yes"/>
      <point x="817.0" y="1864.0"/>
      <point x="745.0" y="1930.0"/>
      <point x="599.0" y="1930.0" type="curve" smooth="yes"/>
      <point x="453.0" y="1930.0"/>
      <point x="381.0" y="1864.0"/>
      <point x="381.0" y="1750.0" type="curve" smooth="yes"/>
      <point x="381.0" y="1636.0"/>
      <point x="453.0" y="1570.0"/>
    </contour>
    <contour>
      <point x="53.0" y="1570.0" type="curve" smooth="yes"/>
      <point x="199.0" y="1570.0"/>
      <point x="271.0" y="1636.0"/>
      <point x="271.0" y="1750.0" type="curve" smooth="yes"/>
      <point x="271.0" y="1864.0"/>
      <point x="199.0" y="1930.0"/>
      <point x="53.0" y="1930.0" type="curve" smooth="yes"/>
      <point x="-93.0" y="1930.0"/>
      <point x="-165.0" y="1864.0"/>
      <point x="-165.0" y="1750.0" type="curve" smooth="yes"/>
      <point x="-165.0" y="1636.0"/>
      <point x="-93.0" y="1570.0"/>
    </contour>
  </outline>
</glyph>
<glyph name="Ntilde" format="2">
  <advance width="1592.0"/>
  <unicode hex="00D1"/>
  <anchor x="796.0" y="1520.0" name="_top"/>
  <anchor x="796.0" y="0.0" name="bottom"/>
  <anchor x="796.0" y="1520.0" name="top"/>
  <outline>
    <contour>
      <point x="109.0" y="0.0" type="line"/>
      <point x="516.0" y="0.0" type="line"/>
      <point x="516.0" y="932.0" type="line"/>
      <point x="450.0" y="932.0" type="line"/>
      <point x="1050.0" y="0.0" type="line"/>
      <point x="1483.0" y="0.0" type="line"/>
      <point x="1483.0" y="1480.0" type="line"/>
      <point x="1076.0" y="1480.0" type="line"/>
      <point x="1076.0" y="548.0" type="line"/>
      <point x="1142.0" y="548.0" type="line"/>
      <point x="542.0" y="1480.0" type="line"/>
      <point x="109.0" y="1480.0" type="line"/>
    </contour>
    <contour>
      <point x="980.0" y="1586.0" type="curve" smooth="yes"/>
      <point x="1080.0" y="1586.0"/>
      <point x="1146.0" y="1608.0"/>
      <point x="1206.0" y="1661.0" type="curve"/>
      <point x="1206.0" y="1894.0" type="line"/>
      <point x="1137.0" y="1847.0"/>
      <point x="1077.0" y="1824.0"/>
      <point x="988.0" y="1824.0" type="curve" smooth="yes"/>
      <point x="859.0" y="1824.0"/>
      <point x="761.0" y="1902.0"/>
      <point x="612.0" y="1902.0" type="curve" smooth="yes"/>
      <point x="512.0" y="1902.0"/>
      <point x="446.0" y="1878.0"/>
      <point x="386.0" y="1825.0" type="curve"/>
      <point x="386.0" y="1592.0" type="line"/>
      <point x="455.0" y="1639.0"/>
      <point x="515.0" y="1662.0"/>
      <point x="604.0" y="1662.0" type="curve" smooth="yes"/>
      <point x="733.0" y="1662.0"/>
      <point x="831.0" y="1586.0"/>
    </contour>
  </outline>
</glyph>
<glyph name="Otilde" format="2">
  <advance width="1644.0"/>
  <unicode hex="00D5"/>
  <anchor x="822.0" y="1520.0" name="_top"/>
  <anchor x="822.0" y="0.0" name="bottom"/>
  <anchor x="822.0" y="740.0" name="center"/>
  <anchor x="997.0" y="0.0" name="ogonek"/>
  <anchor x="822.0" y="1520.0" name="top"/>
  <anchor x="51.0" y="1480.0" name="topleft"/>
  <anchor x="1029.0" y="1480.0" name="topright"/>
  <outline>
    <contour>
      <point x="822.0" y="-20.0" type="curve" smooth="yes"/>
      <point x="1279.0" y="-20.0"/>
      <point x="1575.0" y="239.0"/>
      <point x="1575.0" y="740.0" type="curve" smooth="yes"/>
      <point x="1575.0" y="1241.0"/>
      <point x="1280.0" y="1500.0"/>
      <point x="822.0" y="1500.0" type="curve" smooth="yes"/>
      <point x="364.0" y="1500.0"/>
      <point x="69.0" y="1243.0"/>
      <point x="69.0" y="740.0" type="curve" smooth="yes"/>
      <point x="69.0" y="237.0"/>
      <point x="365.0" y="-20.0"/>
    </contour>
    <contour>
      <point x="822.0" y="326.0" type="curve" smooth="yes"/>
      <point x="622.0" y="326.0"/>
      <point x="513.0" y="447.0"/>
      <point x="513.0" y="748.0" type="curve" smooth="yes"/>
      <point x="513.0" y="1033.0"/>
      <point x="625.0" y="1154.0"/>
      <point x="822.0" y="1154.0" type="curve" smooth="yes"/>
      <point x="1019.0" y="1154.0"/>
      <point x="1131.0" y="1030.0"/>
      <point x="1131.0" y="732.0" type="curve" smooth="yes"/>
      <point x="1131.0" y="450.0"/>
      <point x="1022.0" y="326.0"/>
    </contour>
    <contour>
      <point x="1006.0" y="1586.0" type="curve" smooth="yes"/>
      <point x="1106.0" y="1586.0"/>
      <point x="1172.0" y="1608.0"/>
      <point x="1232.0" y="1661.0" type="curve"/>
      <point x="1232.0" y="1894.0" type="line"/>
      <point x="1163.0" y="1847.0"/>
      <point x="1103.0" y="1824.0"/>
      <point x="1014.0" y="1824.0" type="curve" smooth="yes"/>
      <point x="885.0" y="1824.0"/>
      <point x="787.0" y="1902.0"/>
      <point x="638.0" y="1902.0" type="curve" smooth="yes"/>
      <point x="538.0" y="1902.0"/>
      <point x="472.0" y="1878.0"/>
      <point x="412.0" y="1825.0" type="curve"/>
      <point x="412.0" y="1592.0" type="line"/>
      <point x="481.0" y="1639.0"/>
      <point x="541.0" y="1662.0"/>
      <point x="630.0" y="1662.0" type="curve" smooth="yes"/>
      <point x="759.0" y="1662.0"/>
      <point x="857.0" y="1586.0"/>
    </contour>
  </outline>
</glyph>
<glyph name="Ugrave" format="2">
  <advance width="1547.0"/>
  <unicode hex="00D9"/>
  <anchor x="778.0" y="1520.0" name="_top"/>
  <anchor x="778.0" y="0.0" name="bottom"/>
  <anchor x="1033.0" y="0.0" name="ogonek"/>
  <anchor x="778.0" y="1520.0" name="top"/>
  <anchor x="1052.0" y="1480.0" name="topright"/>
  <outline>
    <contour>
      <point x="778.0" y="-20.0" type="curve" smooth="yes"/>
      <point x="1239.0" y="-20.0"/>
      <point x="1444.0" y="202.0"/>
      <point x="1444.0" y="649.0" type="curve" smooth="yes"/>
      <point x="1444.0" y="1480.0" type="line"/>
      <point x="1018.0" y="1480.0" type="line"/>
      <point x="1018.0" y="608.0" type="line" smooth="yes"/>
      <point x="1018.0" y="410.0"/>
      <point x="934.0" y="332.0"/>
      <point x="778.0" y="332.0" type="curve" smooth="yes"/>
      <point x="622.0" y="332.0"/>
      <point x="537.0" y="410.0"/>
      <point x="537.0" y="608.0" type="curve" smooth="yes"/>
      <point x="537.0" y="1480.0" type="line"/>
      <point x="103.0" y="1480.0" type="line"/>
      <point x="103.0" y="649.0" type="line" smooth="yes"/>
      <point x="103.0" y="202.0"/>
      <point x="310.0" y="-20.0"/>
    </contour>
    <contour>
      <point x="587.0" y="1586.0" type="line"/>
      <point x="969.0" y="1586.0" type="line"/>
      <point x="786.0" y="1902.0" type="line"/>
      <point x="342.0" y="1902.0" type="line"/>
    </contour>
  </outline>
</glyph>
<glyph name="Uacute" format="2">
  <advance width="1547.0"/>
  <unicode hex="00DA"/>
  <anchor x="778.0" y="1520.0" name="_top"/>
  <anchor x="778.0" y="0.0" name="bottom"/>
  <anchor x="1033.0" y="0.0" name="ogonek"/>
  <anchor x="778.0" y="1520.0" name="top"/>
  <anchor x="1052.0" y="1480.0" name="topright"/>
  <outline>
    <contour>
      <point x="778.0" y="-20.0" type="curve" smooth="yes"/>
      <point x="1239.0" y="-20.0"/>
      <point x="1444.0" y="202.0"/>
      <point x="1444.0" y="649.0" type="curve" smooth="yes"/>
      <point x="1444.0" y="1480.0" type="line"/>
      <point x="1018.0" y="1480.0" type="line"/>
      <point x="1018.0" y="608.0" type="line" smooth="yes"/>
      <point x="1018.0" y="410.0"/>
      <point x="934.0" y="332.0"/>
      <point x="778.0" y="332.0" type="curve" smooth="yes"/>
      <point x="622.0" y="332.0"/>
      <point x="537.0" y="410.0"/>
      <point x="537.0" y="608.0" type="curve" smooth="yes"/>
      <point x="537.0" y="1480.0" type="line"/>
      <point x="103.0" y="1480.0" type="line"/>
      <point x="103.0" y="649.0" type="line" smooth="yes"/>
      <point x="103.0" y="202.0"/>
      <point x="310.0" y="-20.0"/>
    </contour>
    <contour>
      <point x="585.0" y="1586.0" type="line"/>
      <point x="967.0" y="1586.0" type="line"/>
      <point x="1212.0" y="1902.0" type="line"/>
      <point x="768.0" y="1902.0" type="line"/>
    </contour>
  </outline>
</glyph>
<glyph name="Ucircumflex" format="2">
  <advance width="1547.0"/>
  <unicode hex="00DB"/>
  <anchor x="778.0" y="1520.0" name="_top"/>
  <anchor x="778.0" y="0.0" name="bottom"/>
  <anchor x="1033.0" y="0.0" name="ogonek"/>
  <anchor x="778.0" y="1520.0" name="top"/>
  <anchor x="1052.0" y="1480.0" name="topright"/>
  <outline>
    <contour>
      <point x="778.0" y="-20.0" type="curve" smooth="yes"/>
      <point x="1239.0" y="-20.0"/>
      <point x="1444.0" y="202.0"/>
      <point x="1444.0" y="649.0" type="curve" smooth="yes"/>
      <point x="1444.0" y="1480.0" type="line"/>
      <point x="1018.0" y="1480.0" type="line"/>
      <point x="1018.0" y="608.0" type="line" smooth="yes"/>
      <point x="1018.0" y="410.0"/>
      <point x="934.0" y="332.0"/>
      <point x="778.0" y="332.0" type="curve" smooth="yes"/>
      <point x="622.0" y="332.0"/>
      <point x="537.0" y="410.0"/>
      <point x="537.0" y="608.0" type="curve" smooth="yes"/>
      <point x="537.0" y="1480.0" type="line"/>
      <point x="103.0" y="1480.0" type="line"/>
      <point x="103.0" y="649.0" type="line" smooth="yes"/>
      <point x="103.0" y="202.0"/>
      <point x="310.0" y="-20.0"/>
    </contour>
    <contour>
      <point x="339.0" y="1586.0" type="line"/>
      <point x="649.0" y="1586.0" type="line"/>
      <point x="808.0" y="1791.0" type="line"/>
      <point x="748.0" y="1791.0" type="line"/>
      <point x="907.0" y="1586.0" type="line"/>
      <point x="1217.0" y="1586.0" type="line"/>
      <point x="955.0" y="1902.0" type="line"/>
      <point x="601.0" y="1902.0" type="line"/>
    </contour>
  </outline>
</glyph>
<glyph name="Udieresis" format="2">
  <advance width="1547.0"/>
  <unicode hex="00DC"/>
  <anchor x="778.0" y="1520.0" name="_top"/>
  <anchor x="778.0" y="0.0" name="bottom"/>
  <anchor x="1033.0" y="0.0" name="ogonek"/>
  <anchor x="778.0" y="1520.0" name="top"/>
  <anchor x="1052.0" y="1480.0" name="topright"/>
  <outline>
    <contour>
      <point x="778.0" y="-20.0" type="curve" smooth="yes"/>
      <point x="1239.0" y="-20.0"/>
      <point x="1444.0" y="202.0"/>
      <point x="1444.0" y="649.0" type="curve" smooth="yes"/>
      <point x="1444.0" y="1480.0" type="line"/>
      <point x="1018.0" y="1480.0" type="line"/>
      <point x="1018.0" y="608.0" type="line" smooth="yes"/>
      <point x="1018.0" y="410.0"/>
      <point x="934.0" y="332.0"/>
      <point x="778.0" y="332.0" type="curve" smooth="yes"/>
      <point x="622.0" y="332.0"/>
      <point x="537.0" y="410.0"/>
      <point x="537.0" y="608.0" type="curve" smooth="yes"/>
      <point x="537.0" y="1480.0" type="line"/>
      <point x="103.0" y="1480.0" type="line"/>
      <point x="103.0" y="649.0" type="line" smooth="yes"/>
      <point x="103.0" y="202.0"/>
      <point x="310.0" y="-20.0"/>
    </contour>
    <contour>
      <point x="1051.0" y="1570.0" type="curve" smooth="yes"/>
      <point x="1197.0" y="1570.0"/>
      <point x="1269.0" y="1636.0"/>
      <point x="1269.0" y="1750.0" type="curve" smooth="yes"/>
      <point x="1269.0" y="1864.0"/>
      <point x="1197.0" y="1930.0"/>
      <point x="1051.0" y="1930.0" type="curve" smooth="yes"/>
      <point x="905.0" y="1930.0"/>
      <point x="833.0" y="1864.0"/>
      <point x="833.0" y="1750.0" type="curve" smooth="yes"/>
      <point x="833.0" y="1636.0"/>
      <point x="905.0" y="1570.0"/>
    </contour>
    <contour>
      <point x="505.0" y="1570.0" type="curve" smooth="yes"/>
      <point x="651.0" y="1570.0"/>
      <point x="723.0" y="1636.0"/>
      <point x="723.0" y="1750.0" type="curve" smooth="yes"/>
      <point x="723.0" y="1864.0"/>
      <point x="651.0" y="1930.0"/>
      <point x="505.0" y="1930.0" type="curve" smooth="yes"/>
      <point x="359.0" y="1930.0"/>
      <point x="287.0" y="1864.0"/>
      <point x="287.0" y="1750.0" type="curve" smooth="yes"/>
      <point x="287.0" y="1636.0"/>
      <point x="359.0" y="1570.0"/>
    </contour>
  </outline>
</glyph>
<glyph name="Yacute" format="2">
  <advance width="1359.0"/>
  <unicode hex="00DD"/>
  <anchor x="680.0" y="1520.0" name="_top"/>
  <anchor x="679.0" y="0.0" name="bottom"/>
  <anchor x="680.0" y="1520.0" name="top"/>
  <anchor x="-17.0" y="1480.0" name="topleft"/>
  <outline>
    <contour>
      <point x="465.0" y="0.0" type="line"/>
      <point x="899.0" y="0.0" type="line"/>
      <point x="899.0" y="773.0" type="line"/>
      <point x="813.0" y="463.0" type="line"/>
      <point x="1412.0" y="1480.0" type="line"/>
      <point x="990.0" y="1480.0" type="line"/>
      <point x="634.0" y="871.0" type="line"/>
      <point x="750.0" y="871.0" type="line"/>
      <point x="390.0" y="1480.0" type="line"/>
      <point x="-66.0" y="1480.0" type="line"/>
      <point x="551.0" y="463.0" type="line"/>
      <point x="465.0" y="779.0" type="line"/>
    </contour>
    <contour>
      <point x="487.0" y="1586.0" type="line"/>
      <point x="869.0" y="1586.0" type="line"/>
      <point x="1114.0" y="1902.0" type="line"/>
      <point x="670.0" y="1902.0" type="line"/>
    </contour>
  </outline>
</glyph>
<glyph name="germandbls" format="2">
  <advance width="1686.0"/>
  <unicode hex="00DF"/>
  <outline>
    <contour>
      <point x="1090.0" y="-22.0" type="curve" smooth="yes"/>
      <point x="1452.0" y="-22.0"/>
      <point x="1650.0" y="120.0"/>
      <point x="1650.0" y="353.0" type="curve" smooth="yes"/>
      <point x="1650.0" y="563.0"/>
      <point x="1536.0" y="648.0"/>
      <point x="1345.0" y="681.0" type="curve" smooth="yes"/>
      <point x="1147.0" y="715.0" type="line" smooth="yes"/>
      <point x="1106.0" y="722.0"/>
      <point x="1092.0" y="732.0"/>
      <point x="1092.0" y="753.0" type="curve" smooth="yes"/>
      <point x="1092.0" y="783.0"/>
      <point x="1121.0" y="815.0"/>
      <point x="1308.0" y="815.0" type="curve" smooth="yes"/>
      <point x="1365.0" y="815.0"/>
      <point x="1420.0" y="813.0"/>
      <point x="1468.0" y="808.0" type="curve"/>
      <point x="1490.0" y="894.0"/>
      <point x="1506.0" y="974.0"/>
      <point x="1506.0" y="1068.0" type="curve" smooth="yes"/>
      <point x="1506.0" y="1462.0"/>
      <point x="1259.0" y="1636.0"/>
      <point x="900.0" y="1636.0" type="curve" smooth="yes"/>
      <point x="451.0" y="1636.0"/>
      <point x="189.0" y="1390.0"/>
      <point x="189.0" y="992.0" type="curve" smooth="yes"/>
      <point x="189.0" y="0.0" type="line"/>
      <point x="614.0" y="0.0" type="line"/>
      <point x="614.0" y="999.0" type="line" smooth="yes"/>
      <point x="614.0" y="1233.0"/>
      <point x="713.0" y="1350.0"/>
      <point x="934.0" y="1350.0" type="curve" smooth="yes"/>
      <point x="1100.0" y="1350.0"/>
      <point x="1210.0" y="1278.0"/>
      <point x="1210.0" y="1104.0" type="curve" smooth="yes"/>
      <point x="1210.0" y="1034.0"/>
      <point x="1199.0" y="970.0"/>
      <point x="1181.0" y="906.0" type="curve"/>
      <point x="1419.0" y="1100.0" type="line"/>
      <point x="1378.0" y="1104.0"/>
      <point x="1285.0" y="1106.0"/>
      <point x="1245.0" y="1106.0" type="curve" smooth="yes"/>
      <point x="885.0" y="1106.0"/>
      <point x="700.0" y="972.0"/>
      <point x="700.0" y="744.0" type="curve" smooth="yes"/>
      <point x="700.0" y="557.0"/>
      <point x="796.0" y="450.0"/>
      <point x="1007.0" y="415.0" type="curve" smooth="yes"/>
      <point x="1205.0" y="381.0" type="line" smooth="yes"/>
      <point x="1246.0" y="374.0"/>
      <point x="1258.0" y="363.0"/>
      <point x="1258.0" y="339.0" type="curve" smooth="yes"/>
      <point x="1258.0" y="304.0"/>
      <point x="1225.0" y="281.0"/>
      <point x="1084.0" y="281.0" type="curve" smooth="yes"/>
      <point x="972.0" y="281.0"/>
      <point x="830.0" y="300.0"/>
      <point x="734.0" y="324.0" type="curve"/>
      <point x="734.0" y="20.0" type="line"/>
      <point x="845.0" y="-8.0"/>
      <point x="983.0" y="-22.0"/>
    </contour>
    <contour>
      <point x="29.0" y="764.0" type="line"/>
      <point x="341.0" y="764.0" type="line"/>
      <point x="341.0" y="1100.0" type="line"/>
      <point x="29.0" y="1100.0" type="line"/>
    </contour>
  </outline>
</glyph>
<glyph name="adieresis" format="2">
  <advance width="1176.0"/>
  <unicode hex="00E4"/>
  <anchor x="585.0" y="1200.0" name="_top"/>
  <anchor x="585.0" y="0.0" name="bottom"/>
  <anchor x="1085.0" y="0.0" name="ogonek"/>
  <anchor x="585.0" y="1200.0" name="top"/>
  <outline>
    <contour>
      <point x="416.0" y="-22.0" type="curve" smooth="yes"/>
      <point x="529.0" y="-22.0"/>
      <point x="628.0" y="12.0"/>
      <point x="690.0" y="101.0" type="curve"/>
      <point x="708.0" y="101.0" type="line"/>
      <point x="737.0" y="0.0" type="line"/>
      <point x="1085.0" y="0.0" type="line"/>
      <point x="1085.0" y="610.0" type="line" smooth="yes"/>
      <point x="1085.0" y="990.0"/>
      <point x="921.0" y="1118.0"/>
      <point x="524.0" y="1118.0" type="curve" smooth="yes"/>
      <point x="408.0" y="1118.0"/>
      <point x="262.0" y="1103.0"/>
      <point x="144.0" y="1073.0" type="curve"/>
      <point x="144.0" y="760.0" type="line"/>
      <point x="240.0" y="787.0"/>
      <point x="357.0" y="801.0"/>
      <point x="443.0" y="801.0" type="curve" smooth="yes"/>
      <point x="620.0" y="801.0"/>
      <point x="671.0" y="757.0"/>
      <point x="671.0" y="639.0" type="curve" smooth="yes"/>
      <point x="671.0" y="292.0" type="line"/>
      <point x="637.0" y="272.0"/>
      <point x="597.0" y="266.0"/>
      <point x="563.0" y="266.0" type="curve" smooth="yes"/>
      <point x="497.0" y="266.0"/>
      <point x="460.0" y="297.0"/>
      <point x="460.0" y="350.0" type="curve" smooth="yes"/>
      <point x="460.0" y="407.0"/>
      <point x="497.0" y="442.0"/>
      <point x="586.0" y="447.0" type="curve" smooth="yes"/>
      <point x="776.0" y="457.0" type="line"/>
      <point x="728.0" y="680.0" type="line"/>
      <point x="539.0" y="670.0" type="line" smooth="yes"/>
      <point x="189.0" y="651.0"/>
      <point x="44.0" y="525.0"/>
      <point x="44.0" y="309.0" type="curve" smooth="yes"/>
      <point x="44.0" y="116.0"/>
      <point x="179.0" y="-22.0"/>
    </contour>
    <contour>
      <point x="849.0" y="1215.0" type="curve" smooth="yes"/>
      <point x="992.0" y="1215.0"/>
      <point x="1068.0" y="1291.0"/>
      <point x="1068.0" y="1418.0" type="curve" smooth="yes"/>
      <point x="1068.0" y="1545.0"/>
      <point x="992.0" y="1621.0"/>
      <point x="849.0" y="1621.0" type="curve" smooth="yes"/>
      <point x="706.0" y="1621.0"/>
      <point x="630.0" y="1545.0"/>
      <point x="630.0" y="1418.0" type="curve" smooth="yes"/>
      <point x="630.0" y="1291.0"/>
      <point x="706.0" y="1215.0"/>
    </contour>
    <contour>
      <point x="321.0" y="1215.0" type="curve" smooth="yes"/>
      <point x="464.0" y="1215.0"/>
      <point x="540.0" y="1291.0"/>
      <point x="540.0" y="1418.0" type="curve" smooth="yes"/>
      <point x="540.0" y="1545.0"/>
      <point x="464.0" y="1621.0"/>
      <point x="321.0" y="1621.0" type="curve" smooth="yes"/>
      <point x="178.0" y="1621.0"/>
      <point x="102.0" y="1545.0"/>
      <point x="102.0" y="1418.0" type="curve" smooth="yes"/>
      <point x="102.0" y="1291.0"/>
      <point x="178.0" y="1215.0"/>
    </contour>
  </outline>
</glyph>
<glyph name="ccedilla" format="2">
  <advance width="1019.0"/>
  <unicode hex="00E7"/>
  <anchor x="577.0" y="0.0" name="_bottom"/>
  <anchor x="577.0" y="0.0" name="bottom"/>
  <anchor x="553.0" y="1200.0" name="top"/>
  <outline>
    <contour>
      <point x="679.0" y="-22.0" type="curve" smooth="yes"/>
      <point x="785.0" y="-22.0"/>
      <point x="888.0" y="-7.0"/>
      <point x="966.0" y="17.0" type="curve"/>
      <point x="966.0" y="347.0" type="line"/>
      <point x="876.0" y="326.0"/>
      <point x="815.0" y="316.0"/>
      <point x="747.0" y="316.0" type="curve" smooth="yes"/>
      <point x="576.0" y="316.0"/>
      <point x="490.0" y="384.0"/>
      <point x="490.0" y="550.0" type="curve" smooth="yes"/>
      <point x="490.0" y="707.0"/>
      <point x="571.0" y="780.0"/>
      <point x="769.0" y="780.0" type="curve" smooth="yes"/>
      <point x="836.0" y="780.0"/>
      <point x="897.0" y="774.0"/>
      <point x="966.0" y="764.0" type="curve"/>
      <point x="966.0" y="1094.0" type="line"/>
      <point x="888.0" y="1110.0"/>
      <point x="804.0" y="1118.0"/>
      <point x="707.0" y="1118.0" type="curve" smooth="yes"/>
      <point x="293.0" y="1118.0"/>
      <point x="53.0" y="929.0"/>
      <point x="53.0" y="547.0" type="curve" smooth="yes"/>
      <point x="53.0" y="172.0"/>
      <point x="274.0" y="-22.0"/>
    </contour>
    <contour>
      <point x="568.0" y="-460.0" type="curve" smooth="yes"/>
      <point x="764.0" y="-460.0"/>
      <point x="855.0" y="-384.0"/>
      <point x="855.0" y="-264.0" type="curve" smooth="yes"/>
      <point x="855.0" y="-142.0"/>
      <point x="766.0" y="-69.0"/>
      <point x="595.0" y="-69.0" type="curve"/>
      <point x="687.0" y="-122.0" type="line"/>
      <point x="687.0" y="20.0" type="line"/>
      <point x="493.0" y="20.0" type="line"/>
      <point x="493.0" y="-181.0" type="line"/>
      <point x="545.0" y="-181.0" type="line" smooth="yes"/>
      <point x="606.0" y="-181.0"/>
      <point x="640.0" y="-200.0"/>
      <point x="640.0" y="-245.0" type="curve" smooth="yes"/>
      <point x="640.0" y="-291.0"/>
      <point x="608.0" y="-307.0"/>
      <point x="546.0" y="-307.0" type="curve" smooth="yes"/>
      <point x="501.0" y="-307.0"/>
      <point x="431.0" y="-298.0"/>
      <point x="379.0" y="-279.0" type="curve"/>
      <point x="379.0" y="-431.0" type="line"/>
      <point x="434.0" y="-449.0"/>
      <point x="496.0" y="-460.0"/>
    </contour>
  </outline>
</glyph>
<glyph name="iacute" format="2">
  <advance width="620.0"/>
  <unicode hex="00ED"/>
  <anchor x="310.0" y="1200.0" name="_top"/>
  <anchor x="310.0" y="0.0" name="bottom"/>
  <anchor x="523.0" y="0.0" name="ogonek"/>
  <anchor x="310.0" y="1200.0" name="top"/>
  <outline>
    <contour>
      <point x="97.0" y="0.0" type="line"/>
      <point x="523.0" y="0.0" type="line"/>
      <point x="523.0" y="1100.0" type="line"/>
      <point x="97.0" y="1100.0" type="line"/>
    </contour>
    <contour>
      <point x="116.0" y="1220.0" type="line"/>
      <point x="504.0" y="1220.0" type="line"/>
      <point x="797.0" y="1616.0" type="line"/>
      <point x="349.0" y="1616.0" type="line"/>
    </contour>
  </outline>
</glyph>
<glyph name="icircumflex" format="2">
  <advance width="620.0"/>
  <unicode hex="00EE"/>
  <anchor x="310.0" y="1200.0" name="_top"/>
  <anchor x="310.0" y="0.0" name="bottom"/>
  <anchor x="523.0" y="0.0" name="ogonek"/>
  <anchor x="310.0" y="1200.0" name="top"/>
  <outline>
    <contour>
      <point x="97.0" y="0.0" type="line"/>
      <point x="523.0" y="0.0" type="line"/>
      <point x="523.0" y="1100.0" type="line"/>
      <point x="97.0" y="1100.0" type="line"/>
    </contour>
    <contour>
      <point x="-99.0" y="1220.0" type="line"/>
      <point x="196.0" y="1220.0" type="line"/>
      <point x="338.0" y="1474.0" type="line"/>
      <point x="282.0" y="1474.0" type="line"/>
      <point x="424.0" y="1220.0" type="line"/>
      <point x="719.0" y="1220.0" type="line"/>
      <point x="480.0" y="1616.0" type="line"/>
      <point x="140.0" y="1616.0" type="line"/>
    </contour>
  </outline>
</glyph>
<glyph name="idieresis" format="2">
  <advance width="620.0"/>
  <unicode hex="00EF"/>
  <anchor x="310.0" y="1200.0" name="_top"/>
  <anchor x="310.0" y="0.0" name="bottom"/>
  <anchor x="523.0" y="0.0" name="ogonek"/>
  <anchor x="310.0" y="1200.0" name="top"/>
  <outline>
    <contour>
      <point x="97.0" y="0.0" type="line"/>
      <point x="523.0" y="0.0" type="line"/>
      <point x="523.0" y="1100.0" type="line"/>
      <point x="97.0" y="1100.0" type="line"/>
    </contour>
    <contour>
      <point x="574.0" y="1215.0" type="curve" smooth="yes"/>
      <point x="717.0" y="1215.0"/>
      <point x="793.0" y="1291.0"/>
      <point x="793.0" y="1418.0" type="curve" smooth="yes"/>
      <point x="793.0" y="1545.0"/>
      <point x="717.0" y="1621.0"/>
      <point x="574.0" y="1621.0" type="curve" smooth="yes"/>
      <point x="431.0" y="1621.0"/>
      <point x="355.0" y="1545.0"/>
      <point x="355.0" y="1418.0" type="curve" smooth="yes"/>
      <point x="355.0" y="1291.0"/>
      <point x="431.0" y="1215.0"/>
    </contour>
    <contour>
      <point x="46.0" y="1215.0" type="curve" smooth="yes"/>
      <point x="189.0" y="1215.0"/>
      <point x="265.0" y="1291.0"/>
      <point x="265.0" y="1418.0" type="curve" smooth="yes"/>
      <point x="265.0" y="1545.0"/>
      <point x="189.0" y="1621.0"/>
      <point x="46.0" y="1621.0" type="curve" smooth="yes"/>
      <point x="-97.0" y="1621.0"/>
      <point x="-173.0" y="1545.0"/>
      <point x="-173.0" y="1418.0" type="curve" smooth="yes"/>
      <point x="-173.0" y="1291.0"/>
      <point x="-97.0" y="1215.0"/>
    </contour>
  </outline>
</glyph>
<glyph name="ntilde" format="2">
  <advance width="1280.0"/>
  <unicode hex="00F1"/>
  <anchor x="644.0" y="1200.0" name="_top"/>
  <anchor x="11.0" y="1200.0" name="apostrophe"/>
  <anchor x="644.0" y="0.0" name="bottom"/>
  <anchor x="644.0" y="1200.0" name="top"/>
  <outline>
    <contour>
      <point x="97.0" y="0.0" type="line"/>
      <point x="522.0" y="0.0" type="line"/>
      <point x="522.0" y="703.0" type="line"/>
      <point x="553.0" y="734.0"/>
      <point x="604.0" y="755.0"/>
      <point x="658.0" y="755.0" type="curve" smooth="yes"/>
      <point x="725.0" y="755.0"/>
      <point x="764.0" y="726.0"/>
      <point x="764.0" y="630.0" type="curve" smooth="yes"/>
      <point x="764.0" y="0.0" type="line"/>
      <point x="1189.0" y="0.0" type="line"/>
      <point x="1189.0" y="658.0" type="line" smooth="yes"/>
      <point x="1189.0" y="988.0"/>
      <point x="1024.0" y="1118.0"/>
      <point x="800.0" y="1118.0" type="curve" smooth="yes"/>
      <point x="674.0" y="1118.0"/>
      <point x="567.0" y="1075.0"/>
      <point x="492.0" y="996.0" type="curve"/>
      <point x="474.0" y="996.0" type="line"/>
      <point x="446.0" y="1100.0" type="line"/>
      <point x="97.0" y="1100.0" type="line"/>
    </contour>
    <contour>
      <point x="812.0" y="1245.0" type="curve" smooth="yes"/>
      <point x="904.0" y="1245.0"/>
      <point x="970.0" y="1270.0"/>
      <point x="1030.0" y="1329.0" type="curve"/>
      <point x="1030.0" y="1585.0" type="line"/>
      <point x="961.0" y="1521.0"/>
      <point x="901.0" y="1494.0"/>
      <point x="820.0" y="1494.0" type="curve" smooth="yes"/>
      <point x="707.0" y="1494.0"/>
      <point x="609.0" y="1593.0"/>
      <point x="476.0" y="1593.0" type="curve" smooth="yes"/>
      <point x="384.0" y="1593.0"/>
      <point x="318.0" y="1568.0"/>
      <point x="258.0" y="1509.0" type="curve"/>
      <point x="258.0" y="1253.0" type="line"/>
      <point x="327.0" y="1317.0"/>
      <point x="387.0" y="1344.0"/>
      <point x="468.0" y="1344.0" type="curve" smooth="yes"/>
      <point x="581.0" y="1344.0"/>
      <point x="679.0" y="1245.0"/>
    </contour>
  </outline>
</glyph>
<glyph name="otilde" format="2">
  <advance width="1266.0"/>
  <unicode hex="00F5"/>
  <anchor x="633.0" y="1200.0" name="_top"/>
  <anchor x="633.0" y="0.0" name="bottom"/>
  <anchor x="633.0" y="550.0" name="center"/>
  <anchor x="824.0" y="0.0" name="ogonek"/>
  <anchor x="633.0" y="1200.0" name="top"/>
  <anchor x="634.0" y="1100.0" name="topright"/>
  <outline>
    <contour>
      <point x="633.0" y="-22.0" type="curve" smooth="yes"/>
      <point x="992.0" y="-22.0"/>
      <point x="1213.0" y="176.0"/>
      <point x="1213.0" y="548.0" type="curve" smooth="yes"/>
      <point x="1213.0" y="916.0"/>
      <point x="1003.0" y="1118.0"/>
      <point x="633.0" y="1118.0" type="curve" smooth="yes"/>
      <point x="263.0" y="1118.0"/>
      <point x="53.0" y="921.0"/>
      <point x="53.0" y="546.0" type="curve" smooth="yes"/>
      <point x="53.0" y="176.0"/>
      <point x="274.0" y="-22.0"/>
    </contour>
    <contour>
      <point x="633.0" y="294.0" type="curve" smooth="yes"/>
      <point x="531.0" y="294.0"/>
      <point x="479.0" y="349.0"/>
      <point x="479.0" y="548.0" type="curve" smooth="yes"/>
      <point x="479.0" y="747.0"/>
      <point x="533.0" y="802.0"/>
      <point x="633.0" y="802.0" type="curve" smooth="yes"/>
      <point x="733.0" y="802.0"/>
      <point x="787.0" y="747.0"/>
      <point x="787.0" y="546.0" type="curve" smooth="yes"/>
      <point x="787.0" y="349.0"/>
      <point x="735.0" y="294.0"/>
    </contour>
    <contour>
      <point x="801.0" y="1245.0" type="curve" smooth="yes"/>
      <point x="893.0" y="1245.0"/>
      <point x="959.0" y="1270.0"/>
      <point x="1019.0" y="1329.0" type="curve"/>
      <point x="1019.0" y="1585.0" type="line"/>
      <point x="950.0" y="1521.0"/>
      <point x="890.0" y="1494.0"/>
      <point x="809.0" y="1494.0" type="curve" smooth="yes"/>
      <point x="696.0" y="1494.0"/>
      <point x="598.0" y="1593.0"/>
      <point x="465.0" y="1593.0" type="curve" smooth="yes"/>
      <point x="373.0" y="1593.0"/>
      <point x="307.0" y="1568.0"/>
      <point x="247.0" y="1509.0" type="curve"/>
      <point x="247.0" y="1253.0" type="line"/>
      <point x="316.0" y="1317.0"/>
      <point x="376.0" y="1344.0"/>
      <point x="457.0" y="1344.0" type="curve" smooth="yes"/>
      <point x="570.0" y="1344.0"/>
      <point x="668.0" y="1245.0"/>
    </contour>
  </outline>
</glyph>
<glyph name="divide" format="2">
  <advance width="1116.0"/>
  <unicode hex="00F7"/>
  <outline>
    <contour>
      <point x="96.0" y="600.0" type="line"/>
      <point x="1020.0" y="600.0" type="line"/>
      <point x="1020.0" y="920.0" type="line"/>
      <point x="96.0" y="920.0" type="line"/>
    </contour>
    <contour>
      <point x="558.0" y="100.0" type="curve" smooth="yes"/>
      <point x="705.0" y="100.0"/>
      <point x="800.0" y="189.0"/>
      <point x="800.0" y="324.0" type="curve" smooth="yes"/>
      <point x="800.0" y="459.0"/>
      <point x="709.0" y="548.0"/>
      <point x="558.0" y="548.0" type="curve" smooth="yes"/>
      <point x="407.0" y="548.0"/>
      <point x="316.0" y="463.0"/>
      <point x="316.0" y="324.0" type="curve" smooth="yes"/>
      <point x="316.0" y="185.0"/>
      <point x="411.0" y="100.0"/>
    </contour>
    <contour>
      <point x="558.0" y="972.0" type="curve" smooth="yes"/>
      <point x="705.0" y="972.0"/>
      <point x="800.0" y="1061.0"/>
      <point x="800.0" y="1196.0" type="curve" smooth="yes"/>
      <point x="800.0" y="1331.0"/>
      <point x="709.0" y="1420.0"/>
      <point x="558.0" y="1420.0" type="curve" smooth="yes"/>
      <point x="407.0" y="1420.0"/>
      <point x="316.0" y="1335.0"/>
      <point x="316.0" y="1196.0" type="curve" smooth="yes"/>
      <point x="316.0" y="1057.0"/>
      <point x="411.0" y="972.0"/>
    </contour>
  </outline>
</glyph>
<glyph name="oslash" format="2">
  <advance width="1266.0"/>
  <unicode hex="00F8"/>
  <anchor x="631.0" y="550.0" name="_center"/>
  <anchor x="631.0" y="-110.0" name="bottom"/>
  <anchor x="631.0" y="550.0" name="center"/>
  <anchor x="753.0" y="54.0" name="ogonek"/>
  <anchor x="631.0" y="1200.0" name="top"/>
  <anchor x="1174.0" y="1100.0" name="topright"/>
  <outline>
    <contour>
      <point x="633.0" y="-22.0" type="curve" smooth="yes"/>
      <point x="992.0" y="-22.0"/>
      <point x="1213.0" y="176.0"/>
      <point x="1213.0" y="548.0" type="curve" smooth="yes"/>
      <point x="1213.0" y="916.0"/>
      <point x="1003.0" y="1118.0"/>
      <point x="633.0" y="1118.0" type="curve" smooth="yes"/>
      <point x="263.0" y="1118.0"/>
      <point x="53.0" y="921.0"/>
      <point x="53.0" y="546.0" type="curve" smooth="yes"/>
      <point x="53.0" y="176.0"/>
      <point x="274.0" y="-22.0"/>
    </contour>
    <contour>
      <point x="633.0" y="288.0" type="curve" smooth="yes"/>
      <point x="523.0" y="288.0"/>
      <point x="466.0" y="345.0"/>
      <point x="466.0" y="548.0" type="curve" smooth="yes"/>
      <point x="466.0" y="751.0"/>
      <point x="525.0" y="808.0"/>
      <point x="633.0" y="808.0" type="curve" smooth="yes"/>
      <point x="741.0" y="808.0"/>
      <point x="800.0" y="751.0"/>
      <point x="800.0" y="546.0" type="curve" smooth="yes"/>
      <point x="800.0" y="345.0"/>
      <point x="743.0" y="288.0"/>
    </contour>
    <contour>
      <point x="301.0" y="-76.0" type="line"/>
      <point x="418.0" y="82.0" type="line"/>
      <point x="495.0" y="222.0" type="line"/>
      <point x="902.0" y="784.0" type="line"/>
      <point x="1007.0" y="896.0" type="line"/>
      <point x="1124.0" y="1054.0" type="line"/>
      <point x="961.0" y="1176.0" type="line"/>
      <point x="844.0" y="1018.0" type="line"/>
      <point x="767.0" y="878.0" type="line"/>
      <point x="360.0" y="316.0" type="line"/>
      <point x="255.0" y="204.0" type="line"/>
      <point x="138.0" y="46.0" type="line"/>
    </contour>
  </outline>
</glyph>
<glyph name="udieresis" format="2">
  <advance width="1271.0"/>
  <unicode hex="00FC"/>
  <anchor x="633.0" y="1200.0" name="_top"/>
  <anchor x="633.0" y="0.0" name="bottom"/>
  <anchor x="1174.0" y="0.0" name="ogonek"/>
  <anchor x="633.0" y="1200.0" name="top"/>
  <anchor x="796.0" y="1100.0" name="topright"/>
  <outline>
    <contour>
      <point x="487.0" y="-19.0" type="curve" smooth="yes"/>
      <point x="602.0" y="-19.0"/>
      <point x="702.0" y="24.0"/>
      <point x="781.0" y="104.0" type="curve"/>
      <point x="797.0" y="104.0" type="line"/>
      <point x="825.0" y="0.0" type="line"/>
      <point x="1174.0" y="0.0" type="line"/>
      <point x="1174.0" y="1100.0" type="line"/>
      <point x="749.0" y="1100.0" type="line"/>
      <point x="749.0" y="396.0" type="line"/>
      <point x="718.0" y="365.0"/>
      <point x="665.0" y="344.0"/>
      <point x="617.0" y="344.0" type="curve" smooth="yes"/>
      <point x="555.0" y="344.0"/>
      <point x="516.0" y="374.0"/>
      <point x="516.0" y="470.0" type="curve" smooth="yes"/>
      <point x="516.0" y="1100.0" type="line"/>
      <point x="91.0" y="1100.0" type="line"/>
      <point x="91.0" y="439.0" type="line" smooth="yes"/>
      <point x="91.0" y="110.0"/>
      <point x="258.0" y="-19.0"/>
    </contour>
    <contour>
      <point x="897.0" y="1215.0" type="curve" smooth="yes"/>
      <point x="1040.0" y="1215.0"/>
      <point x="1116.0" y="1291.0"/>
      <point x="1116.0" y="1418.0" type="curve" smooth="yes"/>
      <point x="1116.0" y="1545.0"/>
      <point x="1040.0" y="1621.0"/>
      <point x="897.0" y="1621.0" type="curve" smooth="yes"/>
      <point x="754.0" y="1621.0"/>
      <point x="678.0" y="1545.0"/>
      <point x="678.0" y="1418.0" type="curve" smooth="yes"/>
      <point x="678.0" y="1291.0"/>
      <point x="754.0" y="1215.0"/>
    </contour>
    <contour>
      <point x="369.0" y="1215.0" type="curve" smooth="yes"/>
      <point x="512.0" y="1215.0"/>
      <point x="588.0" y="1291.0"/>
      <point x="588.0" y="1418.0" type="curve" smooth="yes"/>
      <point x="588.0" y="1545.0"/>
      <point x="512.0" y="1621.0"/>
      <point x="369.0" y="1621.0" type="curve" smooth="yes"/>
      <point x="226.0" y="1621.0"/>
      <point x="150.0" y="1545.0"/>
      <point x="150.0" y="1418.0" type="curve" smooth="yes"/>
      <point x="150.0" y="1291.0"/>
      <point x="226.0" y="1215.0"/>
    </contour>
  </outline>
</glyph>
<glyph name="thorn" format="2">
  <advance width="1297.0"/>
  <unicode hex="00FE"/>
  <outline>
    <contour>
      <point x="97.0" y="-440.0" type="line"/>
      <point x="522.0" y="-440.0" type="line"/>
      <point x="522.0" y="-17.0" type="line"/>
      <point x="550.0" y="-19.0"/>
      <point x="582.0" y="-21.0"/>
      <point x="615.0" y="-21.0" type="curve" smooth="yes"/>
      <point x="1028.0" y="-21.0"/>
      <point x="1244.0" y="196.0"/>
      <point x="1244.0" y="571.0" type="curve" smooth="yes"/>
      <point x="1244.0" y="944.0"/>
      <point x="1044.0" y="1118.0"/>
      <point x="813.0" y="1118.0" type="curve" smooth="yes"/>
      <point x="695.0" y="1118.0"/>
      <point x="603.0" y="1076.0"/>
      <point x="541.0" y="997.0" type="curve"/>
      <point x="522.0" y="997.0" type="line"/>
      <point x="522.0" y="1616.0" type="line"/>
      <point x="97.0" y="1616.0" type="line"/>
    </contour>
    <contour>
      <point x="614.0" y="296.0" type="curve" smooth="yes"/>
      <point x="583.0" y="296.0"/>
      <point x="548.0" y="300.0"/>
      <point x="522.0" y="304.0" type="curve"/>
      <point x="522.0" y="744.0" type="line"/>
      <point x="555.0" y="765.0"/>
      <point x="601.0" y="774.0"/>
      <point x="643.0" y="774.0" type="curve" smooth="yes"/>
      <point x="752.0" y="774.0"/>
      <point x="818.0" y="722.0"/>
      <point x="818.0" y="539.0" type="curve" smooth="yes"/>
      <point x="818.0" y="361.0"/>
      <point x="751.0" y="296.0"/>
    </contour>
  </outline>
</glyph>
<glyph name="ydieresis" format="2">
  <advance width="1238.0"/>
  <unicode hex="00FF"/>
  <anchor x="619.0" y="1200.0" name="_top"/>
  <anchor x="1080.0" y="0.0" name="bottom"/>
  <anchor x="619.0" y="1200.0" name="top"/>
  <outline>
    <contour>
      <point x="321.0" y="-440.0" type="line"/>
      <point x="735.0" y="-440.0" type="line"/>
      <point x="1250.0" y="1100.0" type="line"/>
      <point x="834.0" y="1100.0" type="line"/>
      <point x="619.0" y="344.0" type="line"/>
      <point x="470.0" y="0.0" type="line"/>
    </contour>
    <contour>
      <point x="354.0" y="0.0" type="line"/>
      <point x="746.0" y="0.0" type="line"/>
      <point x="430.0" y="1100.0" type="line"/>
      <point x="-12.0" y="1100.0" type="line"/>
    </contour>
    <contour>
      <point x="883.0" y="1215.0" type="curve" smooth="yes"/>
      <point x="1026.0" y="1215.0"/>
      <point x="1102.0" y="1291.0"/>
      <point x="1102.0" y="1418.0" type="curve" smooth="yes"/>
      <point x="1102.0" y="1545.0"/>
      <point x="1026.0" y="1621.0"/>
      <point x="883.0" y="1621.0" type="curve" smooth="yes"/>
      <point x="740.0" y="1621.0"/>
      <point x="664.0" y="1545.0"/>
      <point x="664.0" y="1418.0" type="curve" smooth="yes"/>
      <point x="664.0" y="1291.0"/>
      <point x="740.0" y="1215.0"/>
    </contour>
    <contour>
      <point x="355.0" y="1215.0" type="curve" smooth="yes"/>
      <point x="498.0" y="1215.0"/>
      <point x="574.0" y="1291.0"/>
      <point x="574.0" y="1418.0" type="curve" smooth="yes"/>
      <point x="574.0" y="1545.0"/>
      <point x="498.0" y="1621.0"/>
      <point x="355.0" y="1621.0" type="curve" smooth="yes"/>
      <point x="212.0" y="1621.0"/>
      <point x="136.0" y="1545.0"/>
      <point x="136.0" y="1418.0" type="curve" smooth="yes"/>
      <point x="136.0" y="1291.0"/>
      <point x="212.0" y="1215.0"/>
    </contour>
  </outline>
</glyph>
<glyph name="amacron" format="2">
  <advance width="1176.0"/>
  <unicode hex="0101"/>
  <anchor x="585.0" y="1200.0" name="_top"/>
  <anchor x="585.0" y="0.0" name="bottom"/>
  <anchor x="1085.0" y="0.0" name="ogonek"/>
  <anchor x="585.0" y="1200.0" name="top"/>
  <outline>
    <contour>
      <point x="416.0" y="-22.0" type="curve" smooth="yes"/>
      <point x="529.0" y="-22.0"/>
      <point x="628.0" y="12.0"/>
      <point x="690.0" y="101.0" type="curve"/>
      <point x="708.0" y="101.0" type="line"/>
      <point x="737.0" y="0.0" type="line"/>
      <point x="1085.0" y="0.0" type="line"/>
      <point x="1085.0" y="610.0" type="line" smooth="yes"/>
      <point x="1085.0" y="990.0"/>
      <point x="921.0" y="1118.0"/>
      <point x="524.0" y="1118.0" type="curve" smooth="yes"/>
      <point x="408.0" y="1118.0"/>
      <point x="262.0" y="1103.0"/>
      <point x="144.0" y="1073.0" type="curve"/>
      <point x="144.0" y="760.0" type="line"/>
      <point x="240.0" y="787.0"/>
      <point x="357.0" y="801.0"/>
      <point x="443.0" y="801.0" type="curve" smooth="yes"/>
      <point x="620.0" y="801.0"/>
      <point x="671.0" y="757.0"/>
      <point x="671.0" y="639.0" type="curve" smooth="yes"/>
      <point x="671.0" y="292.0" type="line"/>
      <point x="637.0" y="272.0"/>
      <point x="597.0" y="266.0"/>
      <point x="563.0" y="266.0" type="curve" smooth="yes"/>
      <point x="497.0" y="266.0"/>
      <point x="460.0" y="297.0"/>
      <point x="460.0" y="350.0" type="curve" smooth="yes"/>
      <point x="460.0" y="407.0"/>
      <point x="497.0" y="442.0"/>
      <point x="586.0" y="447.0" type="curve" smooth="yes"/>
      <point x="776.0" y="457.0" type="line"/>
      <point x="728.0" y="680.0" type="line"/>
      <point x="539.0" y="670.0" type="line" smooth="yes"/>
      <point x="189.0" y="651.0"/>
      <point x="44.0" y="525.0"/>
      <point x="44.0" y="309.0" type="curve" smooth="yes"/>
      <point x="44.0" y="116.0"/>
      <point x="179.0" y="-22.0"/>
    </contour>
    <contour>
      <point x="199.0" y="1295.0" type="line"/>
      <point x="971.0" y="1295.0" type="line"/>
      <point x="971.0" y="1543.0" type="line"/>
      <point x="199.0" y="1543.0" type="line"/>
    </contour>
  </outline>
</glyph>
<glyph name="cacute" format="2">
  <advance width="1019.0"/>
  <unicode hex="0107"/>
  <anchor x="553.0" y="1200.0" name="_top"/>
  <anchor x="577.0" y="0.0" name="bottom"/>
  <anchor x="553.0" y="1200.0" name="top"/>
  <outline>
    <contour>
      <point x="679.0" y="-22.0" type="curve" smooth="yes"/>
      <point x="785.0" y="-22.0"/>
      <point x="888.0" y="-7.0"/>
      <point x="966.0" y="17.0" type="curve"/>
      <point x="966.0" y="347.0" type="line"/>
      <point x="876.0" y="326.0"/>
      <point x="815.0" y="316.0"/>
      <point x="747.0" y="316.0" type="curve" smooth="yes"/>
      <point x="576.0" y="316.0"/>
      <point x="490.0" y="384.0"/>
      <point x="490.0" y="550.0" type="curve" smooth="yes"/>
      <point x="490.0" y="707.0"/>
      <point x="571.0" y="780.0"/>
      <point x="769.0" y="780.0" type="curve" smooth="yes"/>
      <point x="836.0" y="780.0"/>
      <point x="897.0" y="774.0"/>
      <point x="966.0" y="764.0" type="curve"/>
      <point x="966.0" y="1094.0" type="line"/>
      <point x="888.0" y="1110.0"/>
      <point x="804.0" y="1118.0"/>
      <point x="707.0" y="1118.0" type="curve" smooth="yes"/>
      <point x="293.0" y="1118.0"/>
      <point x="53.0" y="929.0"/>
      <point x="53.0" y="547.0" type="curve" smooth="yes"/>
      <point x="53.0" y="172.0"/>
      <point x="274.0" y="-22.0"/>
    </contour>
    <contour>
      <point x="359.0" y="1220.0" type="line"/>
      <point x="747.0" y="1220.0" type="line"/>
      <point x="1040.0" y="1616.0" type="line"/>
      <point x="592.0" y="1616.0" type="line"/>
    </contour>
  </outline>
</glyph>
<glyph name="Ccaron" format="2">
  <advance width="1295.0"/>
  <unicode hex="010C"/>
  <anchor x="784.0" y="1520.0" name="_top"/>
  <anchor x="784.0" y="0.0" name="bottom"/>
  <anchor x="784.0" y="1520.0" name="top"/>
  <outline>
    <contour>
      <point x="909.0" y="-20.0" type="curve" smooth="yes"/>
      <point x="1025.0" y="-20.0"/>
      <point x="1150.0" y="-3.0"/>
      <point x="1242.0" y="24.0" type="curve"/>
      <point x="1242.0" y="376.0" type="line"/>
      <point x="1148.0" y="352.0"/>
      <point x="1048.0" y="335.0"/>
      <point x="953.0" y="335.0" type="curve" smooth="yes"/>
      <point x="653.0" y="335.0"/>
      <point x="523.0" y="453.0"/>
      <point x="523.0" y="740.0" type="curve" smooth="yes"/>
      <point x="523.0" y="1022.0"/>
      <point x="657.0" y="1145.0"/>
      <point x="963.0" y="1145.0" type="curve" smooth="yes"/>
      <point x="1063.0" y="1145.0"/>
      <point x="1155.0" y="1134.0"/>
      <point x="1242.0" y="1117.0" type="curve"/>
      <point x="1242.0" y="1469.0" type="line"/>
      <point x="1143.0" y="1490.0"/>
      <point x="1036.0" y="1500.0"/>
      <point x="925.0" y="1500.0" type="curve" smooth="yes"/>
      <point x="372.0" y="1500.0"/>
      <point x="69.0" y="1228.0"/>
      <point x="69.0" y="736.0" type="curve" smooth="yes"/>
      <point x="69.0" y="220.0"/>
      <point x="363.0" y="-20.0"/>
    </contour>
    <contour>
      <point x="607.0" y="1586.0" type="line"/>
      <point x="961.0" y="1586.0" type="line"/>
      <point x="1223.0" y="1902.0" type="line"/>
      <point x="913.0" y="1902.0" type="line"/>
      <point x="754.0" y="1697.0" type="line"/>
      <point x="814.0" y="1697.0" type="line"/>
      <point x="655.0" y="1902.0" type="line"/>
      <point x="345.0" y="1902.0" type="line"/>
    </contour>
  </outline>
</glyph>
<glyph name="Dcaron" format="2">
  <advance width="1566.0"/>
  <unicode hex="010E"/>
  <anchor x="696.0" y="1520.0" name="_top"/>
  <anchor x="716.0" y="0.0" name="bottom"/>
  <anchor x="769.0" y="740.0" name="center"/>
  <anchor x="109.0" y="762.0" name="stroke"/>
  <anchor x="696.0" y="1520.0" name="top"/>
  <outline>
    <contour>
      <point x="552.0" y="-17.0" type="curve" smooth="yes"/>
      <point x="1188.0" y="-17.0"/>
      <point x="1497.0" y="205.0"/>
      <point x="1497.0" y="740.0" type="curve" smooth="yes"/>
      <point x="1497.0" y="1261.0"/>
      <point x="1204.0" y="1497.0"/>
      <point x="633.0" y="1497.0" type="curve" smooth="yes"/>
      <point x="455.0" y="1497.0"/>
      <point x="258.0" y="1475.0"/>
      <point x="109.0" y="1441.0" type="curve"/>
      <point x="109.0" y="8.0" type="line"/>
      <point x="249.0" y="-9.0"/>
      <point x="421.0" y="-17.0"/>
    </contour>
    <contour>
      <point x="671.0" y="331.0" type="curve" smooth="yes"/>
      <point x="631.0" y="331.0"/>
      <point x="589.0" y="331.0"/>
      <point x="543.0" y="334.0" type="curve"/>
      <point x="543.0" y="1139.0" type="line"/>
      <point x="577.0" y="1146.0"/>
      <point x="631.0" y="1151.0"/>
      <point x="668.0" y="1151.0" type="curve" smooth="yes"/>
      <point x="919.0" y="1151.0"/>
      <point x="1053.0" y="1044.0"/>
      <point x="1053.0" y="742.0" type="curve" smooth="yes"/>
      <point x="1053.0" y="437.0"/>
      <point x="928.0" y="331.0"/>
    </contour>
    <contour>
      <point x="519.0" y="1586.0" type="line"/>
      <point x="873.0" y="1586.0" type="line"/>
      <point x="1135.0" y="1902.0" type="line"/>
      <point x="825.0" y="1902.0" type="line"/>
      <point x="666.0" y="1697.0" type="line"/>
      <point x="726.0" y="1697.0" type="line"/>
      <point x="567.0" y="1902.0" type="line"/>
      <point x="257.0" y="1902.0" type="line"/>
    </contour>
  </outline>
</glyph>
<glyph name="Ebreve" format="2">
  <advance width="1313.0"/>
  <unicode hex="0114"/>
  <anchor x="692.0" y="1520.0" name="_top"/>
  <anchor x="692.0" y="0.0" name="bottom"/>
  <anchor x="1151.0" y="0.0" name="ogonek"/>
  <anchor x="692.0" y="1520.0" name="top"/>
  <anchor x="38.0" y="1480.0" name="topleft"/>
  <outline>
    <contour>
      <point x="109.0" y="0.0" type="line"/>
      <point x="1241.0" y="0.0" type="line"/>
      <point x="1241.0" y="342.0" type="line"/>
      <point x="537.0" y="342.0" type="line"/>
      <point x="537.0" y="1138.0" type="line"/>
      <point x="1231.0" y="1138.0" type="line"/>
      <point x="1231.0" y="1480.0" type="line"/>
      <point x="109.0" y="1480.0" type="line"/>
    </contour>
    <contour>
      <point x="362.0" y="584.0" type="line"/>
      <point x="1126.0" y="584.0" type="line"/>
      <point x="1126.0" y="926.0" type="line"/>
      <point x="362.0" y="926.0" type="line"/>
    </contour>
    <contour>
      <point x="692.0" y="1586.0" type="curve" smooth="yes"/>
      <point x="955.0" y="1586.0"/>
      <point x="1092.0" y="1712.0"/>
      <point x="1117.0" y="1902.0" type="curve"/>
      <point x="864.0" y="1902.0" type="line"/>
      <point x="848.0" y="1824.0"/>
      <point x="795.0" y="1783.0"/>
      <point x="692.0" y="1783.0" type="curve" smooth="yes"/>
      <point x="589.0" y="1783.0"/>
      <point x="536.0" y="1824.0"/>
      <point x="520.0" y="1902.0" type="curve"/>
      <point x="267.0" y="1902.0" type="line"/>
      <point x="292.0" y="1712.0"/>
      <point x="429.0" y="1586.0"/>
    </contour>
  </outline>
</glyph>
<glyph name="Eogonek" format="2">
  <advance width="1313.0"/>
  <unicode hex="0118"/>
  <anchor x="1151.0" y="0.0" name="_ogonek"/>
  <anchor x="692.0" y="0.0" name="bottom"/>
  <anchor x="1151.0" y="0.0" name="ogonek"/>
  <anchor x="692.0" y="1520.0" name="top"/>
  <anchor x="38.0" y="1480.0" name="topleft"/>
  <outline>
    <contour>
      <point x="109.0" y="0.0" type="line"/>
      <point x="1241.0" y="0.0" type="line"/>
      <point x="1241.0" y="342.0" type="line"/>
      <point x="537.0" y="342.0" type="line"/>
      <point x="537.0" y="1138.0" type="line"/>
      <point x="1231.0" y="1138.0" type="line"/>
      <point x="1231.0" y="1480.0" type="line"/>
      <point x="109.0" y="1480.0" type="line"/>
    </contour>
    <contour>
      <point x="362.0" y="584.0" type="line"/>
      <point x="1126.0" y="584.0" type="line"/>
      <point x="1126.0" y="926.0" type="line"/>
      <point x="362.0" y="926.0" type="line"/>
    </contour>
    <contour>
      <point x="981.0" y="-460.0" type="curve" smooth="yes"/>
      <point x="1060.0" y="-460.0"/>
      <point x="1119.0" y="-448.0"/>
      <point x="1174.0" y="-430.0" type="curve"/>
      <point x="1174.0" y="-275.0" type="line"/>
      <point x="1122.0" y="-293.0"/>
      <point x="1078.0" y="-300.0"/>
      <point x="1043.0" y="-300.0" type="curve" smooth="yes"/>
      <point x="945.0" y="-300.0"/>
      <point x="905.0" y="-264.0"/>
      <point x="905.0" y="-206.0" type="curve" smooth="yes"/>
      <point x="905.0" y="-133.0"/>
      <point x="955.0" y="-66.0"/>
      <point x="1151.0" y="0.0" type="curve"/>
      <point x="1039.0" y="82.0" type="line"/>
      <point x="759.0" y="3.0"/>
      <point x="669.0" y="-104.0"/>
      <point x="669.0" y="-236.0" type="curve" smooth="yes"/>
      <point x="669.0" y="-372.0"/>
      <point x="768.0" y="-460.0"/>
    </contour>
  </outline>
</glyph>
<glyph name="Gcommaaccent" format="2">
  <advance width="1479.0"/>
  <unicode hex="0122"/>
  <anchor x="845.0" y="0.0" name="_bottom"/>
  <anchor x="845.0" y="0.0" name="bottom"/>
  <anchor x="845.0" y="1520.0" name="top"/>
  <outline>
    <contour>
      <point x="973.0" y="-20.0" type="curve" smooth="yes"/>
      <point x="1102.0" y="-20.0"/>
      <point x="1238.0" y="-6.0"/>
      <point x="1368.0" y="15.0" type="curve"/>
      <point x="1368.0" y="720.0" type="line"/>
      <point x="966.0" y="720.0" type="line"/>
      <point x="966.0" y="189.0" type="line"/>
      <point x="1154.0" y="347.0" type="line"/>
      <point x="1091.0" y="338.0"/>
      <point x="1008.0" y="332.0"/>
      <point x="937.0" y="332.0" type="curve" smooth="yes"/>
      <point x="656.0" y="332.0"/>
      <point x="521.0" y="458.0"/>
      <point x="521.0" y="729.0" type="curve" smooth="yes"/>
      <point x="521.0" y="1021.0"/>
      <point x="660.0" y="1144.0"/>
      <point x="1026.0" y="1145.0" type="curve" smooth="yes"/>
      <point x="1129.0" y="1145.0"/>
      <point x="1226.0" y="1133.0"/>
      <point x="1320.0" y="1114.0" type="curve"/>
      <point x="1320.0" y="1466.0" type="line"/>
      <point x="1215.0" y="1489.0"/>
      <point x="1102.0" y="1500.0"/>
      <point x="985.0" y="1500.0" type="curve" smooth="yes"/>
      <point x="377.0" y="1500.0"/>
      <point x="69.0" y="1228.0"/>
      <point x="69.0" y="736.0" type="curve" smooth="yes"/>
      <point x="69.0" y="230.0"/>
      <point x="366.0" y="-20.0"/>
    </contour>
    <contour>
      <point x="719.0" y="-518.0" type="curve"/>
      <point x="981.0" y="-518.0" type="line"/>
      <point x="1034.0" y="-458.0"/>
      <point x="1073.0" y="-361.0"/>
      <point x="1073.0" y="-280.0" type="curve" smooth="yes"/>
      <point x="1073.0" y="-169.0"/>
      <point x="1006.0" y="-104.0"/>
      <point x="845.0" y="-104.0" type="curve" smooth="yes"/>
      <point x="684.0" y="-104.0"/>
      <point x="617.0" y="-154.0"/>
      <point x="617.0" y="-238.0" type="curve" smooth="yes"/>
      <point x="617.0" y="-320.0"/>
      <point x="679.0" y="-372.0"/>
      <point x="845.0" y="-372.0" type="curve" smooth="yes"/>
      <point x="873.0" y="-372.0" type="line"/>
      <point x="790.0" y="-294.0" type="line"/>
      <point x="790.0" y="-368.0"/>
      <point x="772.0" y="-423.0"/>
    </contour>
  </outline>
</glyph>
<glyph name="gcommaaccent" format="2">
  <advance width="1297.0"/>
  <unicode hex="0123"/>
  <anchor x="676.0" y="1200.0" name="_top"/>
  <anchor x="648.0" y="-440.0" name="bottom"/>
  <anchor x="676.0" y="1200.0" name="top"/>
  <outline>
    <contour>
      <point x="531.0" y="-460.0" type="curve" smooth="yes"/>
      <point x="985.0" y="-460.0"/>
      <point x="1200.0" y="-276.0"/>
      <point x="1200.0" y="150.0" type="curve" smooth="yes"/>
      <point x="1200.0" y="1049.0" type="line"/>
      <point x="1065.0" y="1094.0"/>
      <point x="879.0" y="1118.0"/>
      <point x="721.0" y="1118.0" type="curve" smooth="yes"/>
      <point x="266.0" y="1117.0"/>
      <point x="53.0" y="897.0"/>
      <point x="53.0" y="528.0" type="curve" smooth="yes"/>
      <point x="53.0" y="173.0"/>
      <point x="260.0" y="-2.0"/>
      <point x="484.0" y="-2.0" type="curve" smooth="yes"/>
      <point x="602.0" y="-2.0"/>
      <point x="694.0" y="40.0"/>
      <point x="756.0" y="119.0" type="curve"/>
      <point x="775.0" y="119.0" type="line"/>
      <point x="775.0" y="69.0" type="line" smooth="yes"/>
      <point x="775.0" y="-76.0"/>
      <point x="695.0" y="-139.0"/>
      <point x="495.0" y="-139.0" type="curve" smooth="yes"/>
      <point x="391.0" y="-139.0"/>
      <point x="263.0" y="-124.0"/>
      <point x="134.0" y="-92.0" type="curve"/>
      <point x="134.0" y="-418.0" type="line"/>
      <point x="267.0" y="-449.0"/>
      <point x="404.0" y="-460.0"/>
    </contour>
    <contour>
      <point x="655.0" y="339.0" type="curve" smooth="yes"/>
      <point x="542.0" y="339.0"/>
      <point x="479.0" y="390.0"/>
      <point x="479.0" y="563.0" type="curve" smooth="yes"/>
      <point x="479.0" y="737.0"/>
      <point x="552.0" y="802.0"/>
      <point x="683.0" y="802.0" type="curve" smooth="yes"/>
      <point x="717.0" y="802.0"/>
      <point x="749.0" y="798.0"/>
      <point x="775.0" y="793.0" type="curve"/>
      <point x="775.0" y="364.0" type="line"/>
      <point x="740.0" y="347.0"/>
      <point x="696.0" y="339.0"/>
    </contour>
    <contour>
      <point x="676.0" y="1212.0" type="curve" smooth="yes"/>
      <point x="837.0" y="1212.0"/>
      <point x="904.0" y="1262.0"/>
      <point x="904.0" y="1346.0" type="curve" smooth="yes"/>
      <point x="904.0" y="1428.0"/>
      <point x="842.0" y="1480.0"/>
      <point x="676.0" y="1480.0" type="curve" smooth="yes"/>
      <point x="648.0" y="1480.0" type="line"/>
      <point x="731.0" y="1402.0" type="line"/>
      <point x="731.0" y="1476.0"/>
      <point x="749.0" y="1531.0"/>
      <point x="802.0" y="1626.0" type="curve"/>
      <point x="540.0" y="1626.0" type="line"/>
      <point x="487.0" y="1566.0"/>
      <point x="448.0" y="1469.0"/>
      <point x="448.0" y="1388.0" type="curve" smooth="yes"/>
      <point x="448.0" y="1277.0"/>
      <point x="515.0" y="1212.0"/>
    </contour>
  </outline>
</glyph>
<glyph name="Hcircumflex" format="2">
  <advance width="1580.0"/>
  <unicode hex="0124"/>
  <anchor x="791.0" y="1520.0" name="_top"/>
  <anchor x="791.0" y="0.0" name="bottom"/>
  <anchor x="791.0" y="1211.0" name="center"/>
  <anchor x="791.0" y="1520.0" name="top"/>
  <anchor x="36.0" y="1480.0" name="topleft"/>
  <outline>
    <contour>
      <point x="109.0" y="0.0" type="line"/>
      <point x="543.0" y="0.0" type="line"/>
      <point x="543.0" y="565.0" type="line"/>
      <point x="1037.0" y="565.0" type="line"/>
      <point x="1037.0" y="0.0" type="line"/>
      <point x="1471.0" y="0.0" type="line"/>
      <point x="1471.0" y="1480.0" type="line"/>
      <point x="1037.0" y="1480.0" type="line"/>
      <point x="1037.0" y="945.0" type="line"/>
      <point x="543.0" y="945.0" type="line"/>
      <point x="543.0" y="1480.0" type="line"/>
      <point x="109.0" y="1480.0" type="line"/>
    </contour>
    <contour>
      <point x="352.0" y="1586.0" type="line"/>
      <point x="662.0" y="1586.0" type="line"/>
      <point x="821.0" y="1791.0" type="line"/>
      <point x="761.0" y="1791.0" type="line"/>
      <point x="920.0" y="1586.0" type="line"/>
      <point x="1230.0" y="1586.0" type="line"/>
      <point x="968.0" y="1902.0" type="line"/>
      <point x="614.0" y="1902.0" type="line"/>
    </contour>
  </outline>
</glyph>
<glyph name="Hbar" format="2">
  <advance width="1580.0"/>
  <unicode hex="0126"/>
  <anchor x="791.0" y="1211.0" name="_center"/>
  <anchor x="791.0" y="0.0" name="bottom"/>
  <anchor x="791.0" y="1211.0" name="center"/>
  <anchor x="791.0" y="1520.0" name="top"/>
  <anchor x="36.0" y="1480.0" name="topleft"/>
  <outline>
    <contour>
      <point x="109.0" y="0.0" type="line"/>
      <point x="543.0" y="0.0" type="line"/>
      <point x="543.0" y="565.0" type="line"/>
      <point x="1037.0" y="565.0" type="line"/>
      <point x="1037.0" y="0.0" type="line"/>
      <point x="1471.0" y="0.0" type="line"/>
      <point x="1471.0" y="1480.0" type="line"/>
      <point x="1037.0" y="1480.0" type="line"/>
      <point x="1037.0" y="945.0" type="line"/>
      <point x="543.0" y="945.0" type="line"/>
      <point x="543.0" y="1480.0" type="line"/>
      <point x="109.0" y="1480.0" type="line"/>
    </contour>
    <contour>
      <point x="4.0" y="1081.0" type="line"/>
      <point x="1576.0" y="1081.0" type="line"/>
      <point x="1576.0" y="1341.0" type="line"/>
      <point x="4.0" y="1341.0" type="line"/>
    </contour>
  </outline>
</glyph>
<glyph name="hbar" format="2">
  <advance width="1280.0"/>
  <unicode hex="0127"/>
  <anchor x="97.0" y="1350.0" name="_stroke"/>
  <anchor x="644.0" y="0.0" name="bottom"/>
  <anchor x="644.0" y="550.0" name="center"/>
  <anchor x="97.0" y="1350.0" name="stroke"/>
  <anchor x="644.0" y="1616.0" name="top"/>
  <outline>
    <contour>
      <point x="97.0" y="0.0" type="line"/>
      <point x="522.0" y="0.0" type="line"/>
      <point x="522.0" y="703.0" type="line"/>
      <point x="553.0" y="734.0"/>
      <point x="606.0" y="755.0"/>
      <point x="658.0" y="755.0" type="curve" smooth="yes"/>
      <point x="725.0" y="755.0"/>
      <point x="764.0" y="725.0"/>
      <point x="764.0" y="627.0" type="curve" smooth="yes"/>
      <point x="764.0" y="0.0" type="line"/>
      <point x="1189.0" y="0.0" type="line"/>
      <point x="1189.0" y="658.0" type="line" smooth="yes"/>
      <point x="1189.0" y="989.0"/>
      <point x="1024.0" y="1118.0"/>
      <point x="822.0" y="1118.0" type="curve" smooth="yes"/>
      <point x="700.0" y="1118.0"/>
      <point x="607.0" y="1074.0"/>
      <point x="541.0" y="997.0" type="curve"/>
      <point x="522.0" y="997.0" type="line"/>
      <point x="522.0" y="1616.0" type="line"/>
      <point x="97.0" y="1616.0" type="line"/>
    </contour>
    <contour>
      <point x="1.0" y="1220.0" type="line"/>
      <point x="848.0" y="1220.0" type="line"/>
      <point x="848.0" y="1480.0" type="line"/>
      <point x="1.0" y="1480.0" type="line"/>
    </contour>
  </outline>
</glyph>
<glyph name="Itilde" format="2">
  <advance width="652.0"/>
  <unicode hex="0128"/>
  <anchor x="326.0" y="1520.0" name="_top"/>
  <anchor x="325.0" y="0.0" name="bottom"/>
  <anchor x="543.0" y="0.0" name="ogonek"/>
  <anchor x="326.0" y="1520.0" name="top"/>
  <outline>
    <contour>
      <point x="109.0" y="0.0" type="line"/>
      <point x="543.0" y="0.0" type="line"/>
      <point x="543.0" y="1480.0" type="line"/>
      <point x="109.0" y="1480.0" type="line"/>
    </contour>
    <contour>
      <point x="510.0" y="1586.0" type="curve" smooth="yes"/>
      <point x="610.0" y="1586.0"/>
      <point x="676.0" y="1608.0"/>
      <point x="736.0" y="1661.0" type="curve"/>
      <point x="736.0" y="1894.0" type="line"/>
      <point x="667.0" y="1847.0"/>
      <point x="607.0" y="1824.0"/>
      <point x="518.0" y="1824.0" type="curve" smooth="yes"/>
      <point x="389.0" y="1824.0"/>
      <point x="291.0" y="1902.0"/>
      <point x="142.0" y="1902.0" type="curve" smooth="yes"/>
      <point x="42.0" y="1902.0"/>
      <point x="-24.0" y="1878.0"/>
      <point x="-84.0" y="1825.0" type="curve"/>
      <point x="-84.0" y="1592.0" type="line"/>
      <point x="-15.0" y="1639.0"/>
      <point x="45.0" y="1662.0"/>
      <point x="134.0" y="1662.0" type="curve" smooth="yes"/>
      <point x="263.0" y="1662.0"/>
      <point x="361.0" y="1586.0"/>
    </contour>
  </outline>
</glyph>
<glyph name="itilde" format="2">
  <advance width="620.0"/>
  <unicode hex="0129"/>
  <anchor x="310.0" y="1200.0" name="_top"/>
  <anchor x="310.0" y="0.0" name="bottom"/>
  <anchor x="523.0" y="0.0" name="ogonek"/>
  <anchor x="310.0" y="1200.0" name="top"/>
  <outline>
    <contour>
      <point x="97.0" y="0.0" type="line"/>
      <point x="523.0" y="0.0" type="line"/>
      <point x="523.0" y="1100.0" type="line"/>
      <point x="97.0" y="1100.0" type="line"/>
    </contour>
    <contour>
      <point x="478.0" y="1245.0" type="curve" smooth="yes"/>
      <point x="570.0" y="1245.0"/>
      <point x="636.0" y="1270.0"/>
      <point x="696.0" y="1329.0" type="curve"/>
      <point x="696.0" y="1585.0" type="line"/>
      <point x="627.0" y="1521.0"/>
      <point x="567.0" y="1494.0"/>
      <point x="486.0" y="1494.0" type="curve" smooth="yes"/>
      <point x="373.0" y="1494.0"/>
      <point x="275.0" y="1593.0"/>
      <point x="142.0" y="1593.0" type="curve" smooth="yes"/>
      <point x="50.0" y="1593.0"/>
      <point x="-16.0" y="1568.0"/>
      <point x="-76.0" y="1509.0" type="curve"/>
      <point x="-76.0" y="1253.0" type="line"/>
      <point x="-7.0" y="1317.0"/>
      <point x="53.0" y="1344.0"/>
      <point x="134.0" y="1344.0" type="curve" smooth="yes"/>
      <point x="247.0" y="1344.0"/>
      <point x="345.0" y="1245.0"/>
    </contour>
  </outline>
</glyph>
<glyph name="Imacron" format="2">
  <advance width="652.0"/>
  <unicode hex="012A"/>
  <anchor x="326.0" y="1520.0" name="_top"/>
  <anchor x="325.0" y="0.0" name="bottom"/>
  <anchor x="543.0" y="0.0" name="ogonek"/>
  <anchor x="326.0" y="1520.0" name="top"/>
  <outline>
    <contour>
      <point x="109.0" y="0.0" type="line"/>
      <point x="543.0" y="0.0" type="line"/>
      <point x="543.0" y="1480.0" type="line"/>
      <point x="109.0" y="1480.0" type="line"/>
    </contour>
    <contour>
      <point x="-84.0" y="1621.0" type="line"/>
      <point x="736.0" y="1621.0" type="line"/>
      <point x="736.0" y="1869.0" type="line"/>
      <point x="-84.0" y="1869.0" type="line"/>
    </contour>
  </outline>
</glyph>
<glyph name="imacron" format="2">
  <advance width="620.0"/>
  <unicode hex="012B"/>
  <anchor x="310.0" y="1200.0" name="_top"/>
  <anchor x="310.0" y="0.0" name="bottom"/>
  <anchor x="523.0" y="0.0" name="ogonek"/>
  <anchor x="310.0" y="1200.0" name="top"/>
  <outline>
    <contour>
      <point x="97.0" y="0.0" type="line"/>
      <point x="523.0" y="0.0" type="line"/>
      <point x="523.0" y="1100.0" type="line"/>
      <point x="97.0" y="1100.0" type="line"/>
    </contour>
    <contour>
      <point x="-76.0" y="1295.0" type="line"/>
      <point x="696.0" y="1295.0" type="line"/>
      <point x="696.0" y="1543.0" type="line"/>
      <point x="-76.0" y="1543.0" type="line"/>
    </contour>
  </outline>
</glyph>
<glyph name="Ibreve" format="2">
  <advance width="652.0"/>
  <unicode hex="012C"/>
  <anchor x="326.0" y="1520.0" name="_top"/>
  <anchor x="325.0" y="0.0" name="bottom"/>
  <anchor x="543.0" y="0.0" name="ogonek"/>
  <anchor x="326.0" y="1520.0" name="top"/>
  <outline>
    <contour>
      <point x="109.0" y="0.0" type="line"/>
      <point x="543.0" y="0.0" type="line"/>
      <point x="543.0" y="1480.0" type="line"/>
      <point x="109.0" y="1480.0" type="line"/>
    </contour>
    <contour>
      <point x="326.0" y="1586.0" type="curve" smooth="yes"/>
      <point x="589.0" y="1586.0"/>
      <point x="726.0" y="1712.0"/>
      <point x="751.0" y="1902.0" type="curve"/>
      <point x="498.0" y="1902.0" type="line"/>
      <point x="482.0" y="1824.0"/>
      <point x="429.0" y="1783.0"/>
      <point x="326.0" y="1783.0" type="curve" smooth="yes"/>
      <point x="223.0" y="1783.0"/>
      <point x="170.0" y="1824.0"/>
      <point x="154.0" y="1902.0" type="curve"/>
      <point x="-99.0" y="1902.0" type="line"/>
      <point x="-74.0" y="1712.0"/>
      <point x="63.0" y="1586.0"/>
    </contour>
  </outline>
</glyph>
<glyph name="ibreve" format="2">
  <advance width="620.0"/>
  <unicode hex="012D"/>
  <anchor x="310.0" y="1200.0" name="_top"/>
  <anchor x="310.0" y="0.0" name="bottom"/>
  <anchor x="523.0" y="0.0" name="ogonek"/>
  <anchor x="310.0" y="1200.0" name="top"/>
  <outline>
    <contour>
      <point x="97.0" y="0.0" type="line"/>
      <point x="523.0" y="0.0" type="line"/>
      <point x="523.0" y="1100.0" type="line"/>
      <point x="97.0" y="1100.0" type="line"/>
    </contour>
    <contour>
      <point x="310.0" y="1228.0" type="curve" smooth="yes"/>
      <point x="555.0" y="1228.0"/>
      <point x="703.0" y="1352.0"/>
      <point x="717.0" y="1596.0" type="curve"/>
      <point x="466.0" y="1596.0" type="line"/>
      <point x="457.0" y="1486.0"/>
      <point x="406.0" y="1435.0"/>
      <point x="310.0" y="1435.0" type="curve" smooth="yes"/>
      <point x="214.0" y="1435.0"/>
      <point x="163.0" y="1486.0"/>
      <point x="154.0" y="1596.0" type="curve"/>
      <point x="-97.0" y="1596.0" type="line"/>
      <point x="-83.0" y="1352.0"/>
      <point x="65.0" y="1228.0"/>
    </contour>
  </outline>
</glyph>
<glyph name="Iogonek" format="2">
  <advance width="652.0"/>
  <unicode hex="012E"/>
  <anchor x="543.0" y="0.0" name="_ogonek"/>
  <anchor x="325.0" y="0.0" name="bottom"/>
  <anchor x="543.0" y="0.0" name="ogonek"/>
  <anchor x="326.0" y="1520.0" name="top"/>
  <outline>
    <contour>
      <point x="109.0" y="0.0" type="line"/>
      <point x="543.0" y="0.0" type="line"/>
      <point x="543.0" y="1480.0" type="line"/>
      <point x="109.0" y="1480.0" type="line"/>
    </contour>
    <contour>
      <point x="373.0" y="-460.0" type="curve" smooth="yes"/>
      <point x="452.0" y="-460.0"/>
      <point x="511.0" y="-448.0"/>
      <point x="566.0" y="-430.0" type="curve"/>
      <point x="566.0" y="-275.0" type="line"/>
      <point x="514.0" y="-293.0"/>
      <point x="470.0" y="-300.0"/>
      <point x="435.0" y="-300.0" type="curve" smooth="yes"/>
      <point x="337.0" y="-300.0"/>
      <point x="297.0" y="-264.0"/>
      <point x="297.0" y="-206.0" type="curve" smooth="yes"/>
      <point x="297.0" y="-133.0"/>
      <point x="347.0" y="-66.0"/>
      <point x="543.0" y="0.0" type="curve"/>
      <point x="431.0" y="82.0" type="line"/>
      <point x="151.0" y="3.0"/>
      <point x="61.0" y="-104.0"/>
      <point x="61.0" y="-236.0" type="curve" smooth="yes"/>
      <point x="61.0" y="-372.0"/>
      <point x="160.0" y="-460.0"/>
    </contour>
  </outline>
</glyph>
<glyph name="iogonek" format="2">
  <advance width="620.0"/>
  <unicode hex="012F"/>
  <anchor x="310.0" y="1200.0" name="_top"/>
  <anchor x="310.0" y="0.0" name="bottom"/>
  <anchor x="523.0" y="0.0" name="ogonek"/>
  <anchor x="310.0" y="1200.0" name="top"/>
  <outline>
    <contour>
      <point x="97.0" y="0.0" type="line"/>
      <point x="523.0" y="0.0" type="line"/>
      <point x="523.0" y="1100.0" type="line"/>
      <point x="97.0" y="1100.0" type="line"/>
    </contour>
    <contour>
      <point x="310.0" y="1208.0" type="curve" smooth="yes"/>
      <point x="486.0" y="1208.0"/>
      <point x="564.0" y="1284.0"/>
      <point x="564.0" y="1418.0" type="curve" smooth="yes"/>
      <point x="564.0" y="1552.0"/>
      <point x="486.0" y="1628.0"/>
      <point x="310.0" y="1628.0" type="curve" smooth="yes"/>
      <point x="134.0" y="1628.0"/>
      <point x="56.0" y="1552.0"/>
      <point x="56.0" y="1418.0" type="curve" smooth="yes"/>
      <point x="56.0" y="1284.0"/>
      <point x="134.0" y="1208.0"/>
    </contour>
    <contour>
      <point x="353.0" y="-460.0" type="curve" smooth="yes"/>
      <point x="432.0" y="-460.0"/>
      <point x="483.0" y="-447.0"/>
      <point x="533.0" y="-430.0" type="curve"/>
      <point x="533.0" y="-275.0" type="line"/>
      <point x="487.0" y="-293.0"/>
      <point x="447.0" y="-300.0"/>
      <point x="415.0" y="-300.0" type="curve" smooth="yes"/>
      <point x="336.0" y="-300.0"/>
      <point x="297.0" y="-264.0"/>
      <point x="297.0" y="-208.0" type="curve" smooth="yes"/>
      <point x="297.0" y="-133.0"/>
      <point x="342.0" y="-66.0"/>
      <point x="523.0" y="0.0" type="curve"/>
      <point x="411.0" y="82.0" type="line"/>
      <point x="141.0" y="3.0"/>
      <point x="61.0" y="-104.0"/>
      <point x="61.0" y="-236.0" type="curve" smooth="yes"/>
      <point x="61.0" y="-372.0"/>
      <point x="158.0" y="-460.0"/>
    </contour>
  </outline>
</glyph>
<glyph name="Idotaccent" format="2">
  <advance width="652.0"/>
  <unicode hex="0130"/>
  <anchor x="326.0" y="1520.0" name="_top"/>
  <anchor x="325.0" y="0.0" name="bottom"/>
  <anchor x="543.0" y="0.0" name="ogonek"/>
  <anchor x="326.0" y="1520.0" name="top"/>
  <outline>
    <contour>
      <point x="109.0" y="0.0" type="line"/>
      <point x="543.0" y="0.0" type="line"/>
      <point x="543.0" y="1480.0" type="line"/>
      <point x="109.0" y="1480.0" type="line"/>
    </contour>
    <contour>
      <point x="326.0" y="1570.0" type="curve" smooth="yes"/>
      <point x="495.0" y="1570.0"/>
      <point x="578.0" y="1636.0"/>
      <point x="578.0" y="1750.0" type="curve" smooth="yes"/>
      <point x="578.0" y="1864.0"/>
      <point x="495.0" y="1930.0"/>
      <point x="326.0" y="1930.0" type="curve" smooth="yes"/>
      <point x="157.0" y="1930.0"/>
      <point x="74.0" y="1864.0"/>
      <point x="74.0" y="1750.0" type="curve" smooth="yes"/>
      <point x="74.0" y="1636.0"/>
      <point x="157.0" y="1570.0"/>
    </contour>
  </outline>
</glyph>
<glyph name="idotless" format="2">
  <advance width="620.0"/>
  <unicode hex="0131"/>
  <anchor x="310.0" y="0.0" name="bottom"/>
  <anchor x="523.0" y="0.0" name="ogonek"/>
  <anchor x="310.0" y="1200.0" name="top"/>
  <outline>
    <contour>
      <point x="97.0" y="0.0" type="line"/>
      <point x="523.0" y="0.0" type="line"/>
      <point x="523.0" y="1100.0" type="line"/>
      <point x="97.0" y="1100.0" type="line"/>
    </contour>
  </outline>
</glyph>
<glyph name="Jcircumflex" format="2">
  <advance width="652.0"/>
  <unicode hex="0134"/>
  <anchor x="327.0" y="1520.0" name="_top"/>
  <anchor x="543.0" y="0.0" name="bottom"/>
  <anchor x="327.0" y="1520.0" name="top"/>
  <outline>
    <contour>
      <point x="243.0" y="-354.0" type="line"/>
      <point x="467.0" y="-136.0"/>
      <point x="543.0" y="70.0"/>
      <point x="543.0" y="320.0" type="curve"/>
      <point x="543.0" y="1480.0" type="line"/>
      <point x="111.0" y="1480.0" type="line"/>
      <point x="111.0" y="304.0" type="line" smooth="yes"/>
      <point x="111.0" y="98.0"/>
      <point x="78.0" y="-28.0"/>
      <point x="-31.0" y="-172.0" type="curve"/>
    </contour>
    <contour>
      <point x="-112.0" y="1586.0" type="line"/>
      <point x="198.0" y="1586.0" type="line"/>
      <point x="357.0" y="1791.0" type="line"/>
      <point x="297.0" y="1791.0" type="line"/>
      <point x="456.0" y="1586.0" type="line"/>
      <point x="766.0" y="1586.0" type="line"/>
      <point x="504.0" y="1902.0" type="line"/>
      <point x="150.0" y="1902.0" type="line"/>
    </contour>
  </outline>
</glyph>
<glyph name="jcircumflex" format="2">
  <advance width="620.0"/>
  <unicode hex="0135"/>
  <anchor x="305.0" y="1200.0" name="_top"/>
  <anchor x="305.0" y="1200.0" name="top"/>
  <outline>
    <contour>
      <point x="227.0" y="-476.0" type="line"/>
      <point x="448.0" y="-258.0"/>
      <point x="523.0" y="-54.0"/>
      <point x="523.0" y="196.0" type="curve" smooth="yes"/>
      <point x="523.0" y="1100.0" type="line"/>
      <point x="97.0" y="1100.0" type="line"/>
      <point x="97.0" y="180.0" type="line" smooth="yes"/>
      <point x="97.0" y="-26.0"/>
      <point x="64.0" y="-152.0"/>
      <point x="-45.0" y="-296.0" type="curve"/>
    </contour>
    <contour>
      <point x="-104.0" y="1220.0" type="line"/>
      <point x="191.0" y="1220.0" type="line"/>
      <point x="333.0" y="1474.0" type="line"/>
      <point x="277.0" y="1474.0" type="line"/>
      <point x="419.0" y="1220.0" type="line"/>
      <point x="714.0" y="1220.0" type="line"/>
      <point x="475.0" y="1616.0" type="line"/>
      <point x="135.0" y="1616.0" type="line"/>
    </contour>
  </outline>
</glyph>
<glyph name="Kcommaaccent" format="2">
  <advance width="1392.0"/>
  <unicode hex="0136"/>
  <anchor x="731.0" y="0.0" name="_bottom"/>
  <anchor x="731.0" y="0.0" name="bottom"/>
  <anchor x="722.0" y="1480.0" name="top"/>
  <outline>
    <contour>
      <point x="986.0" y="0.0" type="line"/>
      <point x="1453.0" y="0.0" type="line"/>
      <point x="943.0" y="814.0" type="line"/>
      <point x="935.0" y="704.0" type="line"/>
      <point x="1410.0" y="1480.0" type="line"/>
      <point x="958.0" y="1480.0" type="line"/>
      <point x="513.0" y="752.0" type="line"/>
    </contour>
    <contour>
      <point x="109.0" y="0.0" type="line"/>
      <point x="543.0" y="0.0" type="line"/>
      <point x="543.0" y="1480.0" type="line"/>
      <point x="109.0" y="1480.0" type="line"/>
    </contour>
    <contour>
      <point x="485.0" y="565.0" type="line"/>
      <point x="677.0" y="565.0" type="line"/>
      <point x="677.0" y="945.0" type="line"/>
      <point x="485.0" y="945.0" type="line"/>
    </contour>
    <contour>
      <point x="605.0" y="-518.0" type="curve"/>
      <point x="867.0" y="-518.0" type="line"/>
      <point x="920.0" y="-458.0"/>
      <point x="959.0" y="-361.0"/>
      <point x="959.0" y="-280.0" type="curve" smooth="yes"/>
      <point x="959.0" y="-169.0"/>
      <point x="892.0" y="-104.0"/>
      <point x="731.0" y="-104.0" type="curve" smooth="yes"/>
      <point x="570.0" y="-104.0"/>
      <point x="503.0" y="-154.0"/>
      <point x="503.0" y="-238.0" type="curve" smooth="yes"/>
      <point x="503.0" y="-320.0"/>
      <point x="565.0" y="-372.0"/>
      <point x="731.0" y="-372.0" type="curve" smooth="yes"/>
      <point x="759.0" y="-372.0" type="line"/>
      <point x="676.0" y="-294.0" type="line"/>
      <point x="676.0" y="-368.0"/>
      <point x="658.0" y="-423.0"/>
    </contour>
  </outline>
</glyph>
<glyph name="kcommaaccent" format="2">
  <advance width="1273.0"/>
  <unicode hex="0137"/>
  <anchor x="667.0" y="0.0" name="_bottom"/>
  <anchor x="667.0" y="0.0" name="bottom"/>
  <anchor x="310.0" y="1616.0" name="top"/>
  <outline>
    <contour>
      <point x="856.0" y="0.0" type="line"/>
      <point x="1314.0" y="0.0" type="line"/>
      <point x="929.0" y="630.0" type="line"/>
      <point x="929.0" y="520.0" type="line"/>
      <point x="1277.0" y="1100.0" type="line"/>
      <point x="829.0" y="1100.0" type="line"/>
      <point x="502.0" y="566.0" type="line"/>
    </contour>
    <contour>
      <point x="490.0" y="398.0" type="line"/>
      <point x="644.0" y="398.0" type="line"/>
      <point x="644.0" y="734.0" type="line"/>
      <point x="490.0" y="734.0" type="line"/>
    </contour>
    <contour>
      <point x="97.0" y="0.0" type="line"/>
      <point x="522.0" y="0.0" type="line"/>
      <point x="522.0" y="1616.0" type="line"/>
      <point x="97.0" y="1616.0" type="line"/>
    </contour>
    <contour>
      <point x="541.0" y="-518.0" type="curve"/>
      <point x="803.0" y="-518.0" type="line"/>
      <point x="856.0" y="-458.0"/>
      <point x="895.0" y="-361.0"/>
      <point x="895.0" y="-280.0" type="curve" smooth="yes"/>
      <point x="895.0" y="-169.0"/>
      <point x="828.0" y="-104.0"/>
      <point x="667.0" y="-104.0" type="curve" smooth="yes"/>
      <point x="506.0" y="-104.0"/>
      <point x="439.0" y="-154.0"/>
      <point x="439.0" y="-238.0" type="curve" smooth="yes"/>
      <point x="439.0" y="-320.0"/>
      <point x="501.0" y="-372.0"/>
      <point x="667.0" y="-372.0" type="curve" smooth="yes"/>
      <point x="695.0" y="-372.0" type="line"/>
      <point x="612.0" y="-294.0" type="line"/>
      <point x="612.0" y="-368.0"/>
      <point x="594.0" y="-423.0"/>
    </contour>
  </outline>
</glyph>
<glyph name="Lacute" format="2">
  <advance width="1199.0"/>
  <unicode hex="0139"/>
  <anchor x="330.0" y="1520.0" name="_top"/>
  <anchor x="650.0" y="0.0" name="bottom"/>
  <anchor x="796.0" y="1616.0" name="caronalt"/>
  <anchor x="917.0" y="912.0" name="periodcentered"/>
  <anchor x="330.0" y="854.0" name="slash"/>
  <anchor x="330.0" y="1520.0" name="top"/>
  <outline>
    <contour>
      <point x="109.0" y="0.0" type="line"/>
      <point x="1191.0" y="0.0" type="line"/>
      <point x="1191.0" y="357.0" type="line"/>
      <point x="543.0" y="357.0" type="line"/>
      <point x="543.0" y="1480.0" type="line"/>
      <point x="109.0" y="1480.0" type="line"/>
    </contour>
    <contour>
      <point x="137.0" y="1586.0" type="line"/>
      <point x="519.0" y="1586.0" type="line"/>
      <point x="764.0" y="1902.0" type="line"/>
      <point x="320.0" y="1902.0" type="line"/>
    </contour>
  </outline>
</glyph>
<glyph name="Lcommaaccent" format="2">
  <advance width="1199.0"/>
  <unicode hex="013B"/>
  <anchor x="650.0" y="0.0" name="_bottom"/>
  <anchor x="650.0" y="0.0" name="bottom"/>
  <anchor x="796.0" y="1616.0" name="caronalt"/>
  <anchor x="917.0" y="912.0" name="periodcentered"/>
  <anchor x="330.0" y="854.0" name="slash"/>
  <anchor x="330.0" y="1520.0" name="top"/>
  <outline>
    <contour>
      <point x="109.0" y="0.0" type="line"/>
      <point x="1191.0" y="0.0" type="line"/>
      <point x="1191.0" y="357.0" type="line"/>
      <point x="543.0" y="357.0" type="line"/>
      <point x="543.0" y="1480.0" type="line"/>
      <point x="109.0" y="1480.0" type="line"/>
    </contour>
    <contour>
      <point x="524.0" y="-518.0" type="curve"/>
      <point x="786.0" y="-518.0" type="line"/>
      <point x="839.0" y="-458.0"/>
      <point x="878.0" y="-361.0"/>
      <point x="878.0" y="-280.0" type="curve" smooth="yes"/>
      <point x="878.0" y="-169.0"/>
      <point x="811.0" y="-104.0"/>
      <point x="650.0" y="-104.0" type="curve" smooth="yes"/>
      <point x="489.0" y="-104.0"/>
      <point x="422.0" y="-154.0"/>
      <point x="422.0" y="-238.0" type="curve" smooth="yes"/>
      <point x="422.0" y="-320.0"/>
      <point x="484.0" y="-372.0"/>
      <point x="650.0" y="-372.0" type="curve" smooth="yes"/>
      <point x="678.0" y="-372.0" type="line"/>
      <point x="595.0" y="-294.0" type="line"/>
      <point x="595.0" y="-368.0"/>
      <point x="577.0" y="-423.0"/>
    </contour>
  </outline>
</glyph>
<glyph name="lcommaaccent" format="2">
  <advance width="619.0"/>
  <unicode hex="013C"/>
  <anchor x="309.0" y="0.0" name="_bottom"/>
  <anchor x="309.0" y="0.0" name="bottom"/>
  <anchor x="612.0" y="1616.0" name="caronalt"/>
  <anchor x="802.0" y="794.0" name="periodcentered"/>
  <anchor x="310.0" y="714.0" name="slash"/>
  <anchor x="310.0" y="1616.0" name="top"/>
  <outline>
    <contour>
      <point x="97.0" y="0.0" type="line"/>
      <point x="522.0" y="0.0" type="line"/>
      <point x="522.0" y="1616.0" type="line"/>
      <point x="97.0" y="1616.0" type="line"/>
    </contour>
    <contour>
      <point x="183.0" y="-518.0" type="curve"/>
      <point x="445.0" y="-518.0" type="line"/>
      <point x="498.0" y="-458.0"/>
      <point x="537.0" y="-361.0"/>
      <point x="537.0" y="-280.0" type="curve" smooth="yes"/>
      <point x="537.0" y="-169.0"/>
      <point x="470.0" y="-104.0"/>
      <point x="309.0" y="-104.0" type="curve" smooth="yes"/>
      <point x="148.0" y="-104.0"/>
      <point x="81.0" y="-154.0"/>
      <point x="81.0" y="-238.0" type="curve" smooth="yes"/>
      <point x="81.0" y="-320.0"/>
      <point x="143.0" y="-372.0"/>
      <point x="309.0" y="-372.0" type="curve" smooth="yes"/>
      <point x="337.0" y="-372.0" type="line"/>
      <point x="254.0" y="-294.0" type="line"/>
      <point x="254.0" y="-368.0"/>
      <point x="236.0" y="-423.0"/>
    </contour>
  </outline>
</glyph>
<glyph name="Lcaron" format="2">
  <advance width="1199.0"/>
  <unicode hex="013D"/>
  <anchor x="796.0" y="1616.0" name="_caronalt"/>
  <anchor x="650.0" y="0.0" name="bottom"/>
  <anchor x="796.0" y="1616.0" name="caronalt"/>
  <anchor x="917.0" y="912.0" name="periodcentered"/>
  <anchor x="330.0" y="854.0" name="slash"/>
  <anchor x="330.0" y="1520.0" name="top"/>
  <outline>
    <contour>
      <point x="109.0" y="0.0" type="line"/>
      <point x="1191.0" y="0.0" type="line"/>
      <point x="1191.0" y="357.0" type="line"/>
      <point x="543.0" y="357.0" type="line"/>
      <point x="543.0" y="1480.0" type="line"/>
      <point x="109.0" y="1480.0" type="line"/>
    </contour>
    <contour>
      <point x="764.0" y="1140.0" type="curve"/>
      <point x="990.0" y="1140.0" type="line"/>
      <point x="1038.0" y="1250.0"/>
      <point x="1072.0" y="1406.0"/>
      <point x="1072.0" y="1616.0" type="curve"/>
      <point x="796.0" y="1616.0" type="line"/>
      <point x="796.0" y="1412.0"/>
      <point x="788.0" y="1294.0"/>
    </contour>
  </outline>
</glyph>
<glyph name="lcaron" format="2">
  <advance width="619.0"/>
  <unicode hex="013E"/>
  <anchor x="612.0" y="1616.0" name="_caronalt"/>
  <anchor x="309.0" y="0.0" name="bottom"/>
  <anchor x="612.0" y="1616.0" name="caronalt"/>
  <anchor x="802.0" y="794.0" name="periodcentered"/>
  <anchor x="310.0" y="714.0" name="slash"/>
  <anchor x="310.0" y="1616.0" name="top"/>
  <outline>
    <contour>
      <point x="97.0" y="0.0" type="line"/>
      <point x="522.0" y="0.0" type="line"/>
      <point x="522.0" y="1616.0" type="line"/>
      <point x="97.0" y="1616.0" type="line"/>
    </contour>
    <contour>
      <point x="578.0" y="1180.0" type="curve"/>
      <point x="804.0" y="1180.0" type="line"/>
      <point x="855.0" y="1290.0"/>
      <point x="888.0" y="1446.0"/>
      <point x="888.0" y="1616.0" type="curve"/>
      <point x="612.0" y="1616.0" type="line"/>
      <point x="612.0" y="1452.0"/>
      <point x="603.0" y="1334.0"/>
    </contour>
  </outline>
</glyph>
<glyph name="Ldot" format="2">
  <advance width="1199.0"/>
  <unicode hex="013F"/>
  <anchor x="917.0" y="912.0" name="_periodcentered"/>
  <anchor x="650.0" y="0.0" name="bottom"/>
  <anchor x="796.0" y="1616.0" name="caronalt"/>
  <anchor x="917.0" y="912.0" name="periodcentered"/>
  <anchor x="330.0" y="854.0" name="slash"/>
  <anchor x="330.0" y="1520.0" name="top"/>
  <outline>
    <contour>
      <point x="109.0" y="0.0" type="line"/>
      <point x="1191.0" y="0.0" type="line"/>
      <point x="1191.0" y="357.0" type="line"/>
      <point x="543.0" y="357.0" type="line"/>
      <point x="543.0" y="1480.0" type="line"/>
      <point x="109.0" y="1480.0" type="line"/>
    </contour>
    <contour>
      <point x="917.0" y="702.0" type="curve" smooth="yes"/>
      <point x="1093.0" y="702.0"/>
      <point x="1171.0" y="778.0"/>
      <point x="1171.0" y="912.0" type="curve" smooth="yes"/>
      <point x="1171.0" y="1046.0"/>
      <point x="1093.0" y="1122.0"/>
      <point x="917.0" y="1122.0" type="curve" smooth="yes"/>
      <point x="741.0" y="1122.0"/>
      <point x="663.0" y="1046.0"/>
      <point x="663.0" y="912.0" type="curve" smooth="yes"/>
      <point x="663.0" y="778.0"/>
      <point x="741.0" y="702.0"/>
    </contour>
  </outline>
</glyph>
<glyph name="ldot" format="2">
  <advance width="1055.0"/>
  <unicode hex="0140"/>
  <outline>
    <contour>
      <point x="97.0" y="0.0" type="line"/>
      <point x="522.0" y="0.0" type="line"/>
      <point x="522.0" y="1616.0" type="line"/>
      <point x="97.0" y="1616.0" type="line"/>
    </contour>
    <contour>
      <point x="836.0" y="584.0" type="curve" smooth="yes"/>
      <point x="1012.0" y="584.0"/>
      <point x="1090.0" y="660.0"/>
      <point x="1090.0" y="794.0" type="curve" smooth="yes"/>
      <point x="1090.0" y="928.0"/>
      <point x="1012.0" y="1004.0"/>
      <point x="836.0" y="1004.0" type="curve" smooth="yes"/>
      <point x="660.0" y="1004.0"/>
      <point x="582.0" y="928.0"/>
      <point x="582.0" y="794.0" type="curve" smooth="yes"/>
      <point x="582.0" y="660.0"/>
      <point x="660.0" y="584.0"/>
    </contour>
  </outline>
</glyph>
<glyph name="Lslash" format="2">
  <advance width="1218.0"/>
  <unicode hex="0141"/>
  <anchor x="349.0" y="854.0" name="_slash"/>
  <anchor x="669.0" y="0.0" name="bottom"/>
  <anchor x="815.0" y="1616.0" name="caronalt"/>
  <anchor x="936.0" y="912.0" name="periodcentered"/>
  <anchor x="349.0" y="854.0" name="slash"/>
  <anchor x="349.0" y="1520.0" name="top"/>
  <outline>
    <contour>
      <point x="128.0" y="0.0" type="line"/>
      <point x="1210.0" y="0.0" type="line"/>
      <point x="1210.0" y="357.0" type="line"/>
      <point x="562.0" y="357.0" type="line"/>
      <point x="562.0" y="1480.0" type="line"/>
      <point x="128.0" y="1480.0" type="line"/>
    </contour>
    <contour>
      <point x="68.0" y="569.0" type="line"/>
      <point x="945.0" y="989.0" type="line"/>
      <point x="825.0" y="1233.0" type="line"/>
      <point x="-52.0" y="813.0" type="line"/>
    </contour>
  </outline>
</glyph>
<glyph name="lslash" format="2">
  <advance width="709.0"/>
  <unicode hex="0142"/>
  <anchor x="355.0" y="714.0" name="_slash"/>
  <anchor x="354.0" y="0.0" name="bottom"/>
  <anchor x="657.0" y="1616.0" name="caronalt"/>
  <anchor x="847.0" y="794.0" name="periodcentered"/>
  <anchor x="355.0" y="714.0" name="slash"/>
  <anchor x="355.0" y="1616.0" name="top"/>
  <outline>
    <contour>
      <point x="142.0" y="0.0" type="line"/>
      <point x="567.0" y="0.0" type="line"/>
      <point x="567.0" y="1616.0" type="line"/>
      <point x="142.0" y="1616.0" type="line"/>
    </contour>
    <contour>
      <point x="71.0" y="435.0" type="line"/>
      <point x="753.0" y="761.0" type="line"/>
      <point x="639.0" y="993.0" type="line"/>
      <point x="-43.0" y="667.0" type="line"/>
    </contour>
  </outline>
</glyph>
<glyph name="Ncommaaccent" format="2">
  <advance width="1592.0"/>
  <unicode hex="0145"/>
  <anchor x="796.0" y="0.0" name="_bottom"/>
  <anchor x="796.0" y="0.0" name="bottom"/>
  <anchor x="796.0" y="1520.0" name="top"/>
  <outline>
    <contour>
      <point x="109.0" y="0.0" type="line"/>
      <point x="516.0" y="0.0" type="line"/>
      <point x="516.0" y="932.0" type="line"/>
      <point x="450.0" y="932.0" type="line"/>
      <point x="1050.0" y="0.0" type="line"/>
      <point x="1483.0" y="0.0" type="line"/>
      <point x="1483.0" y="1480.0" type="line"/>
      <point x="1076.0" y="1480.0" type="line"/>
      <point x="1076.0" y="548.0" type="line"/>
      <point x="1142.0" y="548.0" type="line"/>
      <point x="542.0" y="1480.0" type="line"/>
      <point x="109.0" y="1480.0" type="line"/>
    </contour>
    <contour>
      <point x="670.0" y="-518.0" type="curve"/>
      <point x="932.0" y="-518.0" type="line"/>
      <point x="985.0" y="-458.0"/>
      <point x="1024.0" y="-361.0"/>
      <point x="1024.0" y="-280.0" type="curve" smooth="yes"/>
      <point x="1024.0" y="-169.0"/>
      <point x="957.0" y="-104.0"/>
      <point x="796.0" y="-104.0" type="curve" smooth="yes"/>
      <point x="635.0" y="-104.0"/>
      <point x="568.0" y="-154.0"/>
      <point x="568.0" y="-238.0" type="curve" smooth="yes"/>
      <point x="568.0" y="-320.0"/>
      <point x="630.0" y="-372.0"/>
      <point x="796.0" y="-372.0" type="curve" smooth="yes"/>
      <point x="824.0" y="-372.0" type="line"/>
      <point x="741.0" y="-294.0" type="line"/>
      <point x="741.0" y="-368.0"/>
      <point x="723.0" y="-423.0"/>
    </contour>
  </outline>
</glyph>
<glyph name="Ncaron" format="2">
  <advance width="1592.0"/>
  <unicode hex="0147"/>
  <anchor x="796.0" y="1520.0" name="_top"/>
  <anchor x="796.0" y="0.0" name="bottom"/>
  <anchor x="796.0" y="1520.0" name="top"/>
  <outline>
    <contour>
      <point x="109.0" y="0.0" type="line"/>
      <point x="516.0" y="0.0" type="line"/>
      <point x="516.0" y="932.0" type="line"/>
      <point x="450.0" y="932.0" type="line"/>
      <point x="1050.0" y="0.0" type="line"/>
      <point x="1483.0" y="0.0" type="line"/>
      <point x="1483.0" y="1480.0" type="line"/>
      <point x="1076.0" y="1480.0" type="line"/>
      <point x="1076.0" y="548.0" type="line"/>
      <point x="1142.0" y="548.0" type="line"/>
      <point x="542.0" y="1480.0" type="line"/>
      <point x="109.0" y="1480.0" type="line"/>
    </contour>
    <contour>
      <point x="619.0" y="1586.0" type="line"/>
      <point x="973.0" y="1586.0" type="line"/>
      <point x="1235.0" y="1902.0" type="line"/>
      <point x="925.0" y="1902.0" type="line"/>
      <point x="766.0" y="1697.0" type="line"/>
      <point x="826.0" y="1697.0" type="line"/>
      <point x="667.0" y="1902.0" type="line"/>
      <point x="357.0" y="1902.0" type="line"/>
    </contour>
  </outline>
</glyph>
<glyph name="napostrophe" format="2">
  <advance width="1280.0"/>
  <unicode hex="0149"/>
  <anchor x="11.0" y="1200.0" name="_apostrophe"/>
  <anchor x="11.0" y="1200.0" name="apostrophe"/>
  <anchor x="644.0" y="0.0" name="bottom"/>
  <anchor x="644.0" y="1200.0" name="top"/>
  <outline>
    <contour>
      <point x="97.0" y="0.0" type="line"/>
      <point x="522.0" y="0.0" type="line"/>
      <point x="522.0" y="703.0" type="line"/>
      <point x="553.0" y="734.0"/>
      <point x="604.0" y="755.0"/>
      <point x="658.0" y="755.0" type="curve" smooth="yes"/>
      <point x="725.0" y="755.0"/>
      <point x="764.0" y="726.0"/>
      <point x="764.0" y="630.0" type="curve" smooth="yes"/>
      <point x="764.0" y="0.0" type="line"/>
      <point x="1189.0" y="0.0" type="line"/>
      <point x="1189.0" y="658.0" type="line" smooth="yes"/>
      <point x="1189.0" y="988.0"/>
      <point x="1024.0" y="1118.0"/>
      <point x="800.0" y="1118.0" type="curve" smooth="yes"/>
      <point x="674.0" y="1118.0"/>
      <point x="567.0" y="1075.0"/>
      <point x="492.0" y="996.0" type="curve"/>
      <point x="474.0" y="996.0" type="line"/>
      <point x="446.0" y="1100.0" type="line"/>
      <point x="97.0" y="1100.0" type="line"/>
    </contour>
    <contour>
      <point x="113.0" y="1212.0" type="curve"/>
      <point x="375.0" y="1212.0" type="line"/>
      <point x="428.0" y="1272.0"/>
      <point x="467.0" y="1369.0"/>
      <point x="467.0" y="1450.0" type="curve" smooth="yes"/>
      <point x="467.0" y="1561.0"/>
      <point x="400.0" y="1626.0"/>
      <point x="239.0" y="1626.0" type="curve" smooth="yes"/>
      <point x="78.0" y="1626.0"/>
      <point x="11.0" y="1576.0"/>
      <point x="11.0" y="1492.0" type="curve" smooth="yes"/>
      <point x="11.0" y="1410.0"/>
      <point x="73.0" y="1358.0"/>
      <point x="239.0" y="1358.0" type="curve" smooth="yes"/>
      <point x="267.0" y="1358.0" type="line"/>
      <point x="184.0" y="1436.0" type="line"/>
      <point x="184.0" y="1362.0"/>
      <point x="166.0" y="1307.0"/>
    </contour>
  </outline>
</glyph>
<glyph name="Eng" format="2">
  <advance width="1592.0"/>
  <unicode hex="014A"/>
  <outline>
    <contour>
      <point x="1130.0" y="-125.0" type="line"/>
      <point x="1176.0" y="503.0" type="line"/>
      <point x="542.0" y="1480.0" type="line"/>
      <point x="109.0" y="1480.0" type="line"/>
      <point x="109.0" y="0.0" type="line"/>
      <point x="516.0" y="0.0" type="line"/>
      <point x="516.0" y="932.0" type="line"/>
      <point x="450.0" y="932.0" type="line"/>
    </contour>
    <contour>
      <point x="1187.0" y="-476.0" type="line"/>
      <point x="1408.0" y="-258.0"/>
      <point x="1483.0" y="-54.0"/>
      <point x="1483.0" y="236.0" type="curve" smooth="yes"/>
      <point x="1483.0" y="1480.0" type="line"/>
      <point x="1076.0" y="1480.0" type="line"/>
      <point x="1076.0" y="180.0" type="line" smooth="yes"/>
      <point x="1076.0" y="-26.0"/>
      <point x="1030.0" y="-152.0"/>
      <point x="915.0" y="-296.0" type="curve"/>
    </contour>
  </outline>
</glyph>
<glyph name="obreve" format="2">
  <advance width="1266.0"/>
  <unicode hex="014F"/>
  <anchor x="633.0" y="1200.0" name="_top"/>
  <anchor x="633.0" y="0.0" name="bottom"/>
  <anchor x="633.0" y="550.0" name="center"/>
  <anchor x="824.0" y="0.0" name="ogonek"/>
  <anchor x="633.0" y="1200.0" name="top"/>
  <anchor x="634.0" y="1100.0" name="topright"/>
  <outline>
    <contour>
      <point x="633.0" y="-22.0" type="curve" smooth="yes"/>
      <point x="992.0" y="-22.0"/>
      <point x="1213.0" y="176.0"/>
      <point x="1213.0" y="548.0" type="curve" smooth="yes"/>
      <point x="1213.0" y="916.0"/>
      <point x="1003.0" y="1118.0"/>
      <point x="633.0" y="1118.0" type="curve" smooth="yes"/>
      <point x="263.0" y="1118.0"/>
      <point x="53.0" y="921.0"/>
      <point x="53.0" y="546.0" type="curve" smooth="yes"/>
      <point x="53.0" y="176.0"/>
      <point x="274.0" y="-22.0"/>
    </contour>
    <contour>
      <point x="633.0" y="294.0" type="curve" smooth="yes"/>
      <point x="531.0" y="294.0"/>
      <point x="479.0" y="349.0"/>
      <point x="479.0" y="548.0" type="curve" smooth="yes"/>
      <point x="479.0" y="747.0"/>
      <point x="533.0" y="802.0"/>
      <point x="633.0" y="802.0" type="curve" smooth="yes"/>
      <point x="733.0" y="802.0"/>
      <point x="787.0" y="747.0"/>
      <point x="787.0" y="546.0" type="curve" smooth="yes"/>
      <point x="787.0" y="349.0"/>
      <point x="735.0" y="294.0"/>
    </contour>
    <contour>
      <point x="633.0" y="1228.0" type="curve" smooth="yes"/>
      <point x="878.0" y="1228.0"/>
      <point x="1026.0" y="1352.0"/>
      <point x="1040.0" y="1596.0" type="curve"/>
      <point x="789.0" y="1596.0" type="line"/>
      <point x="780.0" y="1486.0"/>
      <point x="729.0" y="1435.0"/>
      <point x="633.0" y="1435.0" type="curve" smooth="yes"/>
      <point x="537.0" y="1435.0"/>
      <point x="486.0" y="1486.0"/>
      <point x="477.0" y="1596.0" type="curve"/>
      <point x="226.0" y="1596.0" type="line"/>
      <point x="240.0" y="1352.0"/>
      <point x="388.0" y="1228.0"/>
    </contour>
  </outline>
</glyph>
<glyph name="ohungarumlaut" format="2">
  <advance width="1266.0"/>
  <unicode hex="0151"/>
  <anchor x="633.0" y="1200.0" name="_top"/>
  <anchor x="633.0" y="0.0" name="bottom"/>
  <anchor x="633.0" y="550.0" name="center"/>
  <anchor x="824.0" y="0.0" name="ogonek"/>
  <anchor x="633.0" y="1200.0" name="top"/>
  <anchor x="634.0" y="1100.0" name="topright"/>
  <outline>
    <contour>
      <point x="633.0" y="-22.0" type="curve" smooth="yes"/>
      <point x="992.0" y="-22.0"/>
      <point x="1213.0" y="176.0"/>
      <point x="1213.0" y="548.0" type="curve" smooth="yes"/>
      <point x="1213.0" y="916.0"/>
      <point x="1003.0" y="1118.0"/>
      <point x="633.0" y="1118.0" type="curve" smooth="yes"/>
      <point x="263.0" y="1118.0"/>
      <point x="53.0" y="921.0"/>
      <point x="53.0" y="546.0" type="curve" smooth="yes"/>
      <point x="53.0" y="176.0"/>
      <point x="274.0" y="-22.0"/>
    </contour>
    <contour>
      <point x="633.0" y="294.0" type="curve" smooth="yes"/>
      <point x="531.0" y="294.0"/>
      <point x="479.0" y="349.0"/>
      <point x="479.0" y="548.0" type="curve" smooth="yes"/>
      <point x="479.0" y="747.0"/>
      <point x="533.0" y="802.0"/>
      <point x="633.0" y="802.0" type="curve" smooth="yes"/>
      <point x="733.0" y="802.0"/>
      <point x="787.0" y="747.0"/>
      <point x="787.0" y="546.0" type="curve" smooth="yes"/>
      <point x="787.0" y="349.0"/>
      <point x="735.0" y="294.0"/>
    </contour>
    <contour>
      <point x="704.0" y="1220.0" type="line"/>
      <point x="1014.0" y="1220.0" type="line"/>
      <point x="1186.0" y="1616.0" type="line"/>
      <point x="856.0" y="1616.0" type="line"/>
    </contour>
    <contour>
      <point x="252.0" y="1220.0" type="line"/>
      <point x="562.0" y="1220.0" type="line"/>
      <point x="734.0" y="1616.0" type="line"/>
      <point x="404.0" y="1616.0" type="line"/>
    </contour>
  </outline>
</glyph>
<glyph name="OE" format="2">
  <advance width="2185.0"/>
  <unicode hex="0152"/>
  <anchor x="1228.0" y="0.0" name="bottom"/>
  <anchor x="1228.0" y="1520.0" name="top"/>
  <outline>
    <contour>
      <point x="977.0" y="-12.0" type="curve" smooth="yes"/>
      <point x="1073.0" y="-12.0"/>
      <point x="1197.0" y="0.0"/>
      <point x="1303.0" y="0.0" type="curve" smooth="yes"/>
      <point x="2113.0" y="0.0" type="line"/>
      <point x="2113.0" y="342.0" type="line"/>
      <point x="1441.0" y="342.0" type="line"/>
      <point x="1441.0" y="1138.0" type="line"/>
      <point x="2103.0" y="1138.0" type="line"/>
      <point x="2103.0" y="1480.0" type="line"/>
      <point x="1303.0" y="1480.0" type="line" smooth="yes"/>
      <point x="1196.0" y="1480.0"/>
      <point x="1080.0" y="1492.0"/>
      <point x="977.0" y="1492.0" type="curve" smooth="yes"/>
      <point x="391.0" y="1492.0"/>
      <point x="69.0" y="1260.0"/>
      <point x="69.0" y="740.0" type="curve" smooth="yes"/>
      <point x="69.0" y="214.0"/>
      <point x="363.0" y="-12.0"/>
    </contour>
    <contour>
      <point x="885.0" y="336.0" type="curve" smooth="yes"/>
      <point x="639.0" y="336.0"/>
      <point x="512.0" y="442.0"/>
      <point x="512.0" y="738.0" type="curve" smooth="yes"/>
      <point x="512.0" y="1037.0"/>
      <point x="639.0" y="1143.0"/>
      <point x="885.0" y="1143.0" type="curve" smooth="yes"/>
      <point x="925.0" y="1143.0"/>
      <point x="967.0" y="1143.0"/>
      <point x="1013.0" y="1140.0" type="curve"/>
      <point x="1013.0" y="339.0" type="line"/>
      <point x="967.0" y="336.0"/>
      <point x="922.0" y="336.0"/>
    </contour>
    <contour>
      <point x="1266.0" y="584.0" type="line"/>
      <point x="1998.0" y="584.0" type="line"/>
      <point x="1998.0" y="926.0" type="line"/>
      <point x="1266.0" y="926.0" type="line"/>
    </contour>
  </outline>
</glyph>
<glyph name="oe" format="2">
  <advance width="1891.0"/>
  <unicode hex="0153"/>
  <anchor x="1000.0" y="0.0" name="bottom"/>
  <anchor x="1000.0" y="1100.0" name="top"/>
  <outline>
    <contour>
      <point x="613.0" y="-22.0" type="curve" smooth="yes"/>
      <point x="962.0" y="-22.0"/>
      <point x="1133.0" y="204.0"/>
      <point x="1133.0" y="548.0" type="curve" smooth="yes"/>
      <point x="1133.0" y="886.0"/>
      <point x="973.0" y="1118.0"/>
      <point x="613.0" y="1118.0" type="curve" smooth="yes"/>
      <point x="263.0" y="1118.0"/>
      <point x="53.0" y="921.0"/>
      <point x="53.0" y="546.0" type="curve" smooth="yes"/>
      <point x="53.0" y="176.0"/>
      <point x="274.0" y="-22.0"/>
    </contour>
    <contour>
      <point x="633.0" y="294.0" type="curve" smooth="yes"/>
      <point x="531.0" y="294.0"/>
      <point x="479.0" y="349.0"/>
      <point x="479.0" y="548.0" type="curve" smooth="yes"/>
      <point x="479.0" y="747.0"/>
      <point x="533.0" y="802.0"/>
      <point x="633.0" y="802.0" type="curve" smooth="yes"/>
      <point x="733.0" y="802.0"/>
      <point x="787.0" y="747.0"/>
      <point x="787.0" y="546.0" type="curve" smooth="yes"/>
      <point x="787.0" y="349.0"/>
      <point x="735.0" y="294.0"/>
    </contour>
    <contour>
      <point x="1443.0" y="-22.0" type="curve" smooth="yes"/>
      <point x="1550.0" y="-22.0"/>
      <point x="1658.0" y="-13.0"/>
      <point x="1783.0" y="11.0" type="curve"/>
      <point x="1783.0" y="322.0" type="line"/>
      <point x="1691.0" y="305.0"/>
      <point x="1590.0" y="293.0"/>
      <point x="1503.0" y="293.0" type="curve" smooth="yes"/>
      <point x="1260.0" y="293.0"/>
      <point x="1212.0" y="338.0"/>
      <point x="1212.0" y="474.0" type="curve" smooth="yes"/>
      <point x="1212.0" y="649.0" type="line" smooth="yes"/>
      <point x="1212.0" y="808.0"/>
      <point x="1250.0" y="858.0"/>
      <point x="1335.0" y="858.0" type="curve" smooth="yes"/>
      <point x="1419.0" y="858.0"/>
      <point x="1456.0" y="807.0"/>
      <point x="1456.0" y="648.0" type="curve"/>
      <point x="1517.0" y="665.0" type="line"/>
      <point x="1144.0" y="665.0" type="line"/>
      <point x="1144.0" y="431.0" type="line"/>
      <point x="1848.0" y="431.0" type="line"/>
      <point x="1848.0" y="537.0" type="line" smooth="yes"/>
      <point x="1848.0" y="908.0"/>
      <point x="1668.0" y="1118.0"/>
      <point x="1360.0" y="1118.0" type="curve" smooth="yes"/>
      <point x="1049.0" y="1118.0"/>
      <point x="869.0" y="887.0"/>
      <point x="869.0" y="581.0" type="curve"/>
      <point x="832.0" y="551.0" type="line"/>
      <point x="832.0" y="163.0"/>
      <point x="990.0" y="-22.0"/>
    </contour>
  </outline>
</glyph>
<glyph name="Racute" format="2">
  <advance width="1425.0"/>
  <unicode hex="0154"/>
  <anchor x="709.0" y="1520.0" name="_top"/>
  <anchor x="750.0" y="0.0" name="bottom"/>
  <anchor x="709.0" y="1520.0" name="top"/>
  <outline>
    <contour>
      <point x="109.0" y="0.0" type="line"/>
      <point x="535.0" y="0.0" type="line"/>
      <point x="535.0" y="500.0" type="line"/>
      <point x="577.0" y="499.0"/>
      <point x="615.0" y="497.0"/>
      <point x="659.0" y="497.0" type="curve" smooth="yes"/>
      <point x="1044.0" y="497.0"/>
      <point x="1300.0" y="669.0"/>
      <point x="1300.0" y="999.0" type="curve" smooth="yes"/>
      <point x="1300.0" y="1341.0"/>
      <point x="1066.0" y="1500.0"/>
      <point x="617.0" y="1500.0" type="curve" smooth="yes"/>
      <point x="447.0" y="1500.0"/>
      <point x="256.0" y="1475.0"/>
      <point x="109.0" y="1441.0" type="curve"/>
    </contour>
    <contour>
      <point x="959.0" y="0.0" type="line"/>
      <point x="1428.0" y="0.0" type="line"/>
      <point x="973.0" y="676.0" type="line"/>
      <point x="514.0" y="676.0" type="line"/>
    </contour>
    <contour>
      <point x="669.0" y="814.0" type="curve" smooth="yes"/>
      <point x="622.0" y="814.0"/>
      <point x="578.0" y="817.0"/>
      <point x="535.0" y="822.0" type="curve"/>
      <point x="535.0" y="1175.0" type="line"/>
      <point x="573.0" y="1182.0"/>
      <point x="619.0" y="1187.0"/>
      <point x="667.0" y="1187.0" type="curve" smooth="yes"/>
      <point x="815.0" y="1187.0"/>
      <point x="895.0" y="1128.0"/>
      <point x="895.0" y="999.0" type="curve" smooth="yes"/>
      <point x="895.0" y="863.0"/>
      <point x="815.0" y="814.0"/>
    </contour>
    <contour>
      <point x="516.0" y="1586.0" type="line"/>
      <point x="898.0" y="1586.0" type="line"/>
      <point x="1143.0" y="1902.0" type="line"/>
      <point x="699.0" y="1902.0" type="line"/>
    </contour>
  </outline>
</glyph>
<glyph name="racute" format="2">
  <advance width="868.0"/>
  <unicode hex="0155"/>
  <anchor x="478.0" y="1200.0" name="_top"/>
  <anchor x="310.0" y="0.0" name="bottom"/>
  <anchor x="478.0" y="1200.0" name="top"/>
  <outline>
    <contour>
      <point x="97.0" y="0.0" type="line"/>
      <point x="522.0" y="0.0" type="line"/>
      <point x="522.0" y="666.0" type="line"/>
      <point x="565.0" y="711.0"/>
      <point x="654.0" y="738.0"/>
      <point x="739.0" y="738.0" type="curve" smooth="yes"/>
      <point x="774.0" y="738.0"/>
      <point x="820.0" y="736.0"/>
      <point x="857.0" y="728.0" type="curve"/>
      <point x="857.0" y="1110.0" type="line"/>
      <point x="833.0" y="1114.0"/>
      <point x="798.0" y="1118.0"/>
      <point x="766.0" y="1118.0" type="curve" smooth="yes"/>
      <point x="644.0" y="1118.0"/>
      <point x="547.0" y="1073.0"/>
      <point x="494.0" y="961.0" type="curve"/>
      <point x="476.0" y="961.0" type="line"/>
      <point x="443.0" y="1100.0" type="line"/>
      <point x="97.0" y="1100.0" type="line"/>
    </contour>
    <contour>
      <point x="284.0" y="1220.0" type="line"/>
      <point x="672.0" y="1220.0" type="line"/>
      <point x="965.0" y="1616.0" type="line"/>
      <point x="517.0" y="1616.0" type="line"/>
    </contour>
  </outline>
</glyph>
<glyph name="Rcommaaccent" format="2">
  <advance width="1425.0"/>
  <unicode hex="0156"/>
  <anchor x="750.0" y="0.0" name="_bottom"/>
  <anchor x="750.0" y="0.0" name="bottom"/>
  <anchor x="709.0" y="1520.0" name="top"/>
  <outline>
    <contour>
      <point x="109.0" y="0.0" type="line"/>
      <point x="535.0" y="0.0" type="line"/>
      <point x="535.0" y="500.0" type="line"/>
      <point x="577.0" y="499.0"/>
      <point x="615.0" y="497.0"/>
      <point x="659.0" y="497.0" type="curve" smooth="yes"/>
      <point x="1044.0" y="497.0"/>
      <point x="1300.0" y="669.0"/>
      <point x="1300.0" y="999.0" type="curve" smooth="yes"/>
      <point x="1300.0" y="1341.0"/>
      <point x="1066.0" y="1500.0"/>
      <point x="617.0" y="1500.0" type="curve" smooth="yes"/>
      <point x="447.0" y="1500.0"/>
      <point x="256.0" y="1475.0"/>
      <point x="109.0" y="1441.0" type="curve"/>
    </contour>
    <contour>
      <point x="959.0" y="0.0" type="line"/>
      <point x="1428.0" y="0.0" type="line"/>
      <point x="973.0" y="676.0" type="line"/>
      <point x="514.0" y="676.0" type="line"/>
    </contour>
    <contour>
      <point x="669.0" y="814.0" type="curve" smooth="yes"/>
      <point x="622.0" y="814.0"/>
      <point x="578.0" y="817.0"/>
      <point x="535.0" y="822.0" type="curve"/>
      <point x="535.0" y="1175.0" type="line"/>
      <point x="573.0" y="1182.0"/>
      <point x="619.0" y="1187.0"/>
      <point x="667.0" y="1187.0" type="curve" smooth="yes"/>
      <point x="815.0" y="1187.0"/>
      <point x="895.0" y="1128.0"/>
      <point x="895.0" y="999.0" type="curve" smooth="yes"/>
      <point x="895.0" y="863.0"/>
      <point x="815.0" y="814.0"/>
    </contour>
    <contour>
      <point x="624.0" y="-518.0" type="curve"/>
      <point x="886.0" y="-518.0" type="line"/>
      <point x="939.0" y="-458.0"/>
      <point x="978.0" y="-361.0"/>
      <point x="978.0" y="-280.0" type="curve" smooth="yes"/>
      <point x="978.0" y="-169.0"/>
      <point x="911.0" y="-104.0"/>
      <point x="750.0" y="-104.0" type="curve" smooth="yes"/>
      <point x="589.0" y="-104.0"/>
      <point x="522.0" y="-154.0"/>
      <point x="522.0" y="-238.0" type="curve" smooth="yes"/>
      <point x="522.0" y="-320.0"/>
      <point x="584.0" y="-372.0"/>
      <point x="750.0" y="-372.0" type="curve" smooth="yes"/>
      <point x="778.0" y="-372.0" type="line"/>
      <point x="695.0" y="-294.0" type="line"/>
      <point x="695.0" y="-368.0"/>
      <point x="677.0" y="-423.0"/>
    </contour>
  </outline>
</glyph>
<glyph name="rcommaaccent" format="2">
  <advance width="868.0"/>
  <unicode hex="0157"/>
  <anchor x="310.0" y="0.0" name="_bottom"/>
  <anchor x="310.0" y="0.0" name="bottom"/>
  <anchor x="478.0" y="1200.0" name="top"/>
  <outline>
    <contour>
      <point x="97.0" y="0.0" type="line"/>
      <point x="522.0" y="0.0" type="line"/>
      <point x="522.0" y="666.0" type="line"/>
      <point x="565.0" y="711.0"/>
      <point x="654.0" y="738.0"/>
      <point x="739.0" y="738.0" type="curve" smooth="yes"/>
      <point x="774.0" y="738.0"/>
      <point x="820.0" y="736.0"/>
      <point x="857.0" y="728.0" type="curve"/>
      <point x="857.0" y="1110.0" type="line"/>
      <point x="833.0" y="1114.0"/>
      <point x="798.0" y="1118.0"/>
      <point x="766.0" y="1118.0" type="curve" smooth="yes"/>
      <point x="644.0" y="1118.0"/>
      <point x="547.0" y="1073.0"/>
      <point x="494.0" y="961.0" type="curve"/>
      <point x="476.0" y="961.0" type="line"/>
      <point x="443.0" y="1100.0" type="line"/>
      <point x="97.0" y="1100.0" type="line"/>
    </contour>
    <contour>
      <point x="184.0" y="-518.0" type="curve"/>
      <point x="446.0" y="-518.0" type="line"/>
      <point x="499.0" y="-458.0"/>
      <point x="538.0" y="-361.0"/>
      <point x="538.0" y="-280.0" type="curve" smooth="yes"/>
      <point x="538.0" y="-169.0"/>
      <point x="471.0" y="-104.0"/>
      <point x="310.0" y="-104.0" type="curve" smooth="yes"/>
      <point x="149.0" y="-104.0"/>
      <point x="82.0" y="-154.0"/>
      <point x="82.0" y="-238.0" type="curve" smooth="yes"/>
      <point x="82.0" y="-320.0"/>
      <point x="144.0" y="-372.0"/>
      <point x="310.0" y="-372.0" type="curve" smooth="yes"/>
      <point x="338.0" y="-372.0" type="line"/>
      <point x="255.0" y="-294.0" type="line"/>
      <point x="255.0" y="-368.0"/>
      <point x="237.0" y="-423.0"/>
    </contour>
  </outline>
</glyph>
<glyph name="rcaron" format="2">
  <advance width="868.0"/>
  <unicode hex="0159"/>
  <anchor x="478.0" y="1200.0" name="_top"/>
  <anchor x="310.0" y="0.0" name="bottom"/>
  <anchor x="478.0" y="1200.0" name="top"/>
  <outline>
    <contour>
      <point x="97.0" y="0.0" type="line"/>
      <point x="522.0" y="0.0" type="line"/>
      <point x="522.0" y="666.0" type="line"/>
      <point x="565.0" y="711.0"/>
      <point x="654.0" y="738.0"/>
      <point x="739.0" y="738.0" type="curve" smooth="yes"/>
      <point x="774.0" y="738.0"/>
      <point x="820.0" y="736.0"/>
      <point x="857.0" y="728.0" type="curve"/>
      <point x="857.0" y="1110.0" type="line"/>
      <point x="833.0" y="1114.0"/>
      <point x="798.0" y="1118.0"/>
      <point x="766.0" y="1118.0" type="curve" smooth="yes"/>
      <point x="644.0" y="1118.0"/>
      <point x="547.0" y="1073.0"/>
      <point x="494.0" y="961.0" type="curve"/>
      <point x="476.0" y="961.0" type="line"/>
      <point x="443.0" y="1100.0" type="line"/>
      <point x="97.0" y="1100.0" type="line"/>
    </contour>
    <contour>
      <point x="308.0" y="1220.0" type="line"/>
      <point x="648.0" y="1220.0" type="line"/>
      <point x="887.0" y="1616.0" type="line"/>
      <point x="592.0" y="1616.0" type="line"/>
      <point x="450.0" y="1362.0" type="line"/>
      <point x="506.0" y="1362.0" type="line"/>
      <point x="364.0" y="1616.0" type="line"/>
      <point x="69.0" y="1616.0" type="line"/>
    </contour>
  </outline>
</glyph>
<glyph name="scircumflex" format="2">
  <advance width="1030.0"/>
  <unicode hex="015D"/>
  <anchor x="519.0" y="1200.0" name="_top"/>
  <anchor x="519.0" y="0.0" name="bottom"/>
  <anchor x="519.0" y="1200.0" name="top"/>
  <outline>
    <contour>
      <point x="461.0" y="-22.0" type="curve" smooth="yes"/>
      <point x="796.0" y="-22.0"/>
      <point x="994.0" y="120.0"/>
      <point x="994.0" y="353.0" type="curve" smooth="yes"/>
      <point x="994.0" y="563.0"/>
      <point x="880.0" y="648.0"/>
      <point x="689.0" y="681.0" type="curve" smooth="yes"/>
      <point x="491.0" y="715.0" type="line" smooth="yes"/>
      <point x="450.0" y="722.0"/>
      <point x="436.0" y="732.0"/>
      <point x="436.0" y="753.0" type="curve" smooth="yes"/>
      <point x="436.0" y="783.0"/>
      <point x="465.0" y="815.0"/>
      <point x="629.0" y="815.0" type="curve" smooth="yes"/>
      <point x="737.0" y="815.0"/>
      <point x="849.0" y="800.0"/>
      <point x="932.0" y="777.0" type="curve"/>
      <point x="932.0" y="1081.0" type="line"/>
      <point x="849.0" y="1103.0"/>
      <point x="731.0" y="1118.0"/>
      <point x="616.0" y="1118.0" type="curve" smooth="yes"/>
      <point x="228.0" y="1118.0"/>
      <point x="44.0" y="972.0"/>
      <point x="44.0" y="744.0" type="curve" smooth="yes"/>
      <point x="44.0" y="557.0"/>
      <point x="140.0" y="450.0"/>
      <point x="351.0" y="415.0" type="curve" smooth="yes"/>
      <point x="549.0" y="381.0" type="line" smooth="yes"/>
      <point x="590.0" y="374.0"/>
      <point x="602.0" y="363.0"/>
      <point x="602.0" y="339.0" type="curve" smooth="yes"/>
      <point x="602.0" y="304.0"/>
      <point x="569.0" y="281.0"/>
      <point x="453.0" y="281.0" type="curve" smooth="yes"/>
      <point x="320.0" y="281.0"/>
      <point x="184.0" y="301.0"/>
      <point x="78.0" y="333.0" type="curve"/>
      <point x="78.0" y="29.0" type="line"/>
      <point x="189.0" y="-5.0"/>
      <point x="324.0" y="-22.0"/>
    </contour>
    <contour>
      <point x="110.0" y="1220.0" type="line"/>
      <point x="405.0" y="1220.0" type="line"/>
      <point x="547.0" y="1474.0" type="line"/>
      <point x="491.0" y="1474.0" type="line"/>
      <point x="633.0" y="1220.0" type="line"/>
      <point x="928.0" y="1220.0" type="line"/>
      <point x="689.0" y="1616.0" type="line"/>
      <point x="349.0" y="1616.0" type="line"/>
    </contour>
  </outline>
</glyph>
<glyph name="Scedilla" format="2">
  <advance width="1214.0"/>
  <unicode hex="015E"/>
  <anchor x="620.0" y="0.0" name="_bottom"/>
  <anchor x="620.0" y="0.0" name="bottom"/>
  <anchor x="620.0" y="1520.0" name="top"/>
  <outline>
    <contour>
      <point x="531.0" y="-20.0" type="curve" smooth="yes"/>
      <point x="932.0" y="-20.0"/>
      <point x="1172.0" y="166.0"/>
      <point x="1172.0" y="461.0" type="curve" smooth="yes"/>
      <point x="1172.0" y="697.0"/>
      <point x="1035.0" y="836.0"/>
      <point x="739.0" y="908.0" type="curve" smooth="yes"/>
      <point x="607.0" y="942.0" type="line" smooth="yes"/>
      <point x="496.0" y="972.0"/>
      <point x="472.0" y="997.0"/>
      <point x="472.0" y="1045.0" type="curve" smooth="yes"/>
      <point x="472.0" y="1105.0"/>
      <point x="527.0" y="1155.0"/>
      <point x="745.0" y="1155.0" type="curve" smooth="yes"/>
      <point x="867.0" y="1155.0"/>
      <point x="998.0" y="1137.0"/>
      <point x="1088.0" y="1110.0" type="curve"/>
      <point x="1088.0" y="1457.0" type="line"/>
      <point x="993.0" y="1482.0"/>
      <point x="864.0" y="1500.0"/>
      <point x="717.0" y="1500.0" type="curve" smooth="yes"/>
      <point x="264.0" y="1500.0"/>
      <point x="42.0" y="1323.0"/>
      <point x="42.0" y="1022.0" type="curve" smooth="yes"/>
      <point x="42.0" y="786.0"/>
      <point x="181.0" y="646.0"/>
      <point x="447.0" y="581.0" type="curve" smooth="yes"/>
      <point x="579.0" y="547.0" type="line" smooth="yes"/>
      <point x="713.0" y="512.0"/>
      <point x="742.0" y="484.0"/>
      <point x="742.0" y="431.0" type="curve" smooth="yes"/>
      <point x="742.0" y="368.0"/>
      <point x="694.0" y="325.0"/>
      <point x="528.0" y="325.0" type="curve" smooth="yes"/>
      <point x="389.0" y="325.0"/>
      <point x="211.0" y="352.0"/>
      <point x="86.0" y="393.0" type="curve"/>
      <point x="86.0" y="46.0" type="line"/>
      <point x="211.0" y="5.0"/>
      <point x="370.0" y="-20.0"/>
    </contour>
    <contour>
      <point x="571.0" y="-460.0" type="curve" smooth="yes"/>
      <point x="785.0" y="-460.0"/>
      <point x="878.0" y="-382.0"/>
      <point x="878.0" y="-261.0" type="curve" smooth="yes"/>
      <point x="878.0" y="-140.0"/>
      <point x="787.0" y="-69.0"/>
      <point x="598.0" y="-69.0" type="curve"/>
      <point x="690.0" y="-122.0" type="line"/>
      <point x="690.0" y="20.0" type="line"/>
      <point x="496.0" y="20.0" type="line"/>
      <point x="496.0" y="-181.0" type="line"/>
      <point x="548.0" y="-181.0" type="line" smooth="yes"/>
      <point x="623.0" y="-181.0"/>
      <point x="663.0" y="-200.0"/>
      <point x="663.0" y="-246.0" type="curve" smooth="yes"/>
      <point x="663.0" y="-291.0"/>
      <point x="625.0" y="-307.0"/>
      <point x="549.0" y="-307.0" type="curve" smooth="yes"/>
      <point x="494.0" y="-307.0"/>
      <point x="420.0" y="-298.0"/>
      <point x="362.0" y="-279.0" type="curve"/>
      <point x="362.0" y="-431.0" type="line"/>
      <point x="422.0" y="-449.0"/>
      <point x="489.0" y="-460.0"/>
    </contour>
  </outline>
</glyph>
<glyph name="scedilla" format="2">
  <advance width="1030.0"/>
  <unicode hex="015F"/>
  <anchor x="519.0" y="0.0" name="_bottom"/>
  <anchor x="519.0" y="0.0" name="bottom"/>
  <anchor x="519.0" y="1200.0" name="top"/>
  <outline>
    <contour>
      <point x="461.0" y="-22.0" type="curve" smooth="yes"/>
      <point x="796.0" y="-22.0"/>
      <point x="994.0" y="120.0"/>
      <point x="994.0" y="353.0" type="curve" smooth="yes"/>
      <point x="994.0" y="563.0"/>
      <point x="880.0" y="648.0"/>
      <point x="689.0" y="681.0" type="curve" smooth="yes"/>
      <point x="491.0" y="715.0" type="line" smooth="yes"/>
      <point x="450.0" y="722.0"/>
      <point x="436.0" y="732.0"/>
      <point x="436.0" y="753.0" type="curve" smooth="yes"/>
      <point x="436.0" y="783.0"/>
      <point x="465.0" y="815.0"/>
      <point x="629.0" y="815.0" type="curve" smooth="yes"/>
      <point x="737.0" y="815.0"/>
      <point x="849.0" y="800.0"/>
      <point x="932.0" y="777.0" type="curve"/>
      <point x="932.0" y="1081.0" type="line"/>
      <point x="849.0" y="1103.0"/>
      <point x="731.0" y="1118.0"/>
      <point x="616.0" y="1118.0" type="curve" smooth="yes"/>
      <point x="228.0" y="1118.0"/>
      <point x="44.0" y="972.0"/>
      <point x="44.0" y="744.0" type="curve" smooth="yes"/>
      <point x="44.0" y="557.0"/>
      <point x="140.0" y="450.0"/>
      <point x="351.0" y="415.0" type="curve" smooth="yes"/>
      <point x="549.0" y="381.0" type="line" smooth="yes"/>
      <point x="590.0" y="374.0"/>
      <point x="602.0" y="363.0"/>
      <point x="602.0" y="339.0" type="curve" smooth="yes"/>
      <point x="602.0" y="304.0"/>
      <point x="569.0" y="281.0"/>
      <point x="453.0" y="281.0" type="curve" smooth="yes"/>
      <point x="320.0" y="281.0"/>
      <point x="184.0" y="301.0"/>
      <point x="78.0" y="333.0" type="curve"/>
      <point x="78.0" y="29.0" type="line"/>
      <point x="189.0" y="-5.0"/>
      <point x="324.0" y="-22.0"/>
    </contour>
    <contour>
      <point x="510.0" y="-460.0" type="curve" smooth="yes"/>
      <point x="706.0" y="-460.0"/>
      <point x="797.0" y="-384.0"/>
      <point x="797.0" y="-264.0" type="curve" smooth="yes"/>
      <point x="797.0" y="-142.0"/>
      <point x="708.0" y="-69.0"/>
      <point x="537.0" y="-69.0" type="curve"/>
      <point x="629.0" y="-122.0" type="line"/>
      <point x="629.0" y="20.0" type="line"/>
      <point x="435.0" y="20.0" type="line"/>
      <point x="435.0" y="-181.0" type="line"/>
      <point x="487.0" y="-181.0" type="line" smooth="yes"/>
      <point x="548.0" y="-181.0"/>
      <point x="582.0" y="-200.0"/>
      <point x="582.0" y="-245.0" type="curve" smooth="yes"/>
      <point x="582.0" y="-291.0"/>
      <point x="550.0" y="-307.0"/>
      <point x="488.0" y="-307.0" type="curve" smooth="yes"/>
      <point x="443.0" y="-307.0"/>
      <point x="373.0" y="-298.0"/>
      <point x="321.0" y="-279.0" type="curve"/>
      <point x="321.0" y="-431.0" type="line"/>
      <point x="376.0" y="-449.0"/>
      <point x="438.0" y="-460.0"/>
    </contour>
  </outline>
</glyph>
<glyph name="Scaron" format="2">
  <advance width="1214.0"/>
  <unicode hex="0160"/>
  <anchor x="620.0" y="1520.0" name="_top"/>
  <anchor x="620.0" y="0.0" name="bottom"/>
  <anchor x="620.0" y="1520.0" name="top"/>
  <outline>
    <contour>
      <point x="531.0" y="-20.0" type="curve" smooth="yes"/>
      <point x="932.0" y="-20.0"/>
      <point x="1172.0" y="166.0"/>
      <point x="1172.0" y="461.0" type="curve" smooth="yes"/>
      <point x="1172.0" y="697.0"/>
      <point x="1035.0" y="836.0"/>
      <point x="739.0" y="908.0" type="curve" smooth="yes"/>
      <point x="607.0" y="942.0" type="line" smooth="yes"/>
      <point x="496.0" y="972.0"/>
      <point x="472.0" y="997.0"/>
      <point x="472.0" y="1045.0" type="curve" smooth="yes"/>
      <point x="472.0" y="1105.0"/>
      <point x="527.0" y="1155.0"/>
      <point x="745.0" y="1155.0" type="curve" smooth="yes"/>
      <point x="867.0" y="1155.0"/>
      <point x="998.0" y="1137.0"/>
      <point x="1088.0" y="1110.0" type="curve"/>
      <point x="1088.0" y="1457.0" type="line"/>
      <point x="993.0" y="1482.0"/>
      <point x="864.0" y="1500.0"/>
      <point x="717.0" y="1500.0" type="curve" smooth="yes"/>
      <point x="264.0" y="1500.0"/>
      <point x="42.0" y="1323.0"/>
      <point x="42.0" y="1022.0" type="curve" smooth="yes"/>
      <point x="42.0" y="786.0"/>
      <point x="181.0" y="646.0"/>
      <point x="447.0" y="581.0" type="curve" smooth="yes"/>
      <point x="579.0" y="547.0" type="line" smooth="yes"/>
      <point x="713.0" y="512.0"/>
      <point x="742.0" y="484.0"/>
      <point x="742.0" y="431.0" type="curve" smooth="yes"/>
      <point x="742.0" y="368.0"/>
      <point x="694.0" y="325.0"/>
      <point x="528.0" y="325.0" type="curve" smooth="yes"/>
      <point x="389.0" y="325.0"/>
      <point x="211.0" y="352.0"/>
      <point x="86.0" y="393.0" type="curve"/>
      <point x="86.0" y="46.0" type="line"/>
      <point x="211.0" y="5.0"/>
      <point x="370.0" y="-20.0"/>
    </contour>
    <contour>
      <point x="443.0" y="1586.0" type="line"/>
      <point x="797.0" y="1586.0" type="line"/>
      <point x="1059.0" y="1902.0" type="line"/>
      <point x="749.0" y="1902.0" type="line"/>
      <point x="590.0" y="1697.0" type="line"/>
      <point x="650.0" y="1697.0" type="line"/>
      <point x="491.0" y="1902.0" type="line"/>
      <point x="181.0" y="1902.0" type="line"/>
    </contour>
  </outline>
</glyph>
<glyph name="Tcedilla" format="2">
  <advance width="1359.0"/>
  <unicode hex="0162"/>
  <anchor x="680.0" y="0.0" name="_bottom"/>
  <anchor x="680.0" y="0.0" name="bottom"/>
  <anchor x="680.0" y="700.0" name="center"/>
  <anchor x="680.0" y="1520.0" name="top"/>
  <outline>
    <contour>
      <point x="462.0" y="0.0" type="line"/>
      <point x="897.0" y="0.0" type="line"/>
      <point x="897.0" y="1123.0" type="line"/>
      <point x="1346.0" y="1123.0" type="line"/>
      <point x="1346.0" y="1480.0" type="line"/>
      <point x="13.0" y="1480.0" type="line"/>
      <point x="13.0" y="1123.0" type="line"/>
      <point x="462.0" y="1123.0" type="line"/>
    </contour>
    <contour>
      <point x="631.0" y="-460.0" type="curve" smooth="yes"/>
      <point x="845.0" y="-460.0"/>
      <point x="938.0" y="-382.0"/>
      <point x="938.0" y="-261.0" type="curve" smooth="yes"/>
      <point x="938.0" y="-140.0"/>
      <point x="847.0" y="-69.0"/>
      <point x="658.0" y="-69.0" type="curve"/>
      <point x="750.0" y="-122.0" type="line"/>
      <point x="750.0" y="20.0" type="line"/>
      <point x="556.0" y="20.0" type="line"/>
      <point x="556.0" y="-181.0" type="line"/>
      <point x="608.0" y="-181.0" type="line" smooth="yes"/>
      <point x="683.0" y="-181.0"/>
      <point x="723.0" y="-200.0"/>
      <point x="723.0" y="-246.0" type="curve" smooth="yes"/>
      <point x="723.0" y="-291.0"/>
      <point x="685.0" y="-307.0"/>
      <point x="609.0" y="-307.0" type="curve" smooth="yes"/>
      <point x="554.0" y="-307.0"/>
      <point x="480.0" y="-298.0"/>
      <point x="422.0" y="-279.0" type="curve"/>
      <point x="422.0" y="-431.0" type="line"/>
      <point x="482.0" y="-449.0"/>
      <point x="549.0" y="-460.0"/>
    </contour>
  </outline>
</glyph>
